<svg width="306" height="180" viewBox="0 0 306 180" fill="none" xmlns="http://www.w3.org/2000/svg">
<circle cx="6" cy="6" r="6" fill="#1967D2"/>
<circle cx="6" cy="48" r="6" fill="#1967D2"/>
<circle cx="6" cy="90" r="6" fill="#1967D2"/>
<circle cx="174" cy="6" r="6" fill="#1967D2"/>
<circle cx="174" cy="48" r="6" fill="#1967D2"/>
<circle cx="174" cy="90" r="6" fill="#1967D2"/>
<circle cx="90" cy="6" r="6" fill="#1967D2"/>
<circle cx="90" cy="48" r="6" fill="#1967D2"/>
<circle cx="90" cy="90" r="6" fill="#1967D2"/>
<circle cx="258" cy="6" r="6" fill="#1967D2"/>
<circle cx="258" cy="48" r="6" fill="#1967D2"/>
<circle cx="258" cy="90" r="6" fill="#1967D2"/>
<circle cx="48" cy="6" r="6" fill="#1967D2"/>
<circle cx="48" cy="48" r="6" fill="#1967D2"/>
<circle cx="48" cy="90" r="6" fill="#1967D2"/>
<circle cx="216" cy="6" r="6" fill="#1967D2"/>
<circle cx="216" cy="48" r="6" fill="#1967D2"/>
<circle cx="216" cy="90" r="6" fill="#1967D2"/>
<circle cx="132" cy="6" r="6" fill="#1967D2"/>
<circle cx="132" cy="48" r="6" fill="#1967D2"/>
<circle cx="132" cy="90" r="6" fill="#1967D2"/>
<circle cx="300" cy="6" r="6" fill="#1967D2"/>
<circle cx="300" cy="48" r="6" fill="#1967D2"/>
<circle cx="300" cy="90" r="6" fill="#1967D2"/>
<circle cx="6" cy="90" r="6" fill="#1967D2"/>
<circle cx="6" cy="132" r="6" fill="#1967D2"/>
<circle cx="6" cy="174" r="6" fill="#1967D2"/>
<circle cx="174" cy="90" r="6" fill="#1967D2"/>
<circle cx="174" cy="132" r="6" fill="#1967D2"/>
<circle cx="174" cy="174" r="6" fill="#1967D2"/>
<circle cx="90" cy="90" r="6" fill="#1967D2"/>
<circle cx="90" cy="132" r="6" fill="#1967D2"/>
<circle cx="90" cy="174" r="6" fill="#1967D2"/>
<circle cx="258" cy="90" r="6" fill="#1967D2"/>
<circle cx="258" cy="132" r="6" fill="#1967D2"/>
<circle cx="258" cy="174" r="6" fill="#1967D2"/>
<circle cx="48" cy="90" r="6" fill="#1967D2"/>
<circle cx="48" cy="132" r="6" fill="#1967D2"/>
<circle cx="48" cy="174" r="6" fill="#1967D2"/>
<circle cx="216" cy="90" r="6" fill="#1967D2"/>
<circle cx="216" cy="132" r="6" fill="#1967D2"/>
<circle cx="216" cy="174" r="6" fill="#1967D2"/>
<circle cx="132" cy="90" r="6" fill="#1967D2"/>
<circle cx="132" cy="132" r="6" fill="#1967D2"/>
<circle cx="132" cy="174" r="6" fill="#1967D2"/>
<circle cx="300" cy="90" r="6" fill="#1967D2"/>
<circle cx="300" cy="132" r="6" fill="#1967D2"/>
<circle cx="300" cy="174" r="6" fill="#1967D2"/>
</svg>
