<svg width="93" height="32" viewBox="0 0 93 32" fill="none" xmlns="http://www.w3.org/2000/svg">
<g filter="url(#filter0_d)">
<path d="M9.52 10.655V14.15H13.33V15.275H9.52V18.875H13.78V20H8.155V9.53H13.78V10.655H9.52ZM20.4354 20L18.4854 16.94L16.6104 20H15.1854L17.8404 15.92L15.1854 11.78H16.7304L18.6804 14.825L20.5404 11.78H21.9654L19.3254 15.845L21.9804 20H20.4354ZM24.9882 13.295C25.2582 12.825 25.6582 12.435 26.1882 12.125C26.7282 11.805 27.3532 11.645 28.0632 11.645C28.7932 11.645 29.4532 11.82 30.0432 12.17C30.6432 12.52 31.1132 13.015 31.4532 13.655C31.7932 14.285 31.9632 15.02 31.9632 15.86C31.9632 16.69 31.7932 17.43 31.4532 18.08C31.1132 18.73 30.6432 19.235 30.0432 19.595C29.4532 19.955 28.7932 20.135 28.0632 20.135C27.3632 20.135 26.7432 19.98 26.2032 19.67C25.6732 19.35 25.2682 18.955 24.9882 18.485V23.9H23.6232V11.78H24.9882V13.295ZM30.5682 15.86C30.5682 15.24 30.4432 14.7 30.1932 14.24C29.9432 13.78 29.6032 13.43 29.1732 13.19C28.7532 12.95 28.2882 12.83 27.7782 12.83C27.2782 12.83 26.8132 12.955 26.3832 13.205C25.9632 13.445 25.6232 13.8 25.3632 14.27C25.1132 14.73 24.9882 15.265 24.9882 15.875C24.9882 16.495 25.1132 17.04 25.3632 17.51C25.6232 17.97 25.9632 18.325 26.3832 18.575C26.8132 18.815 27.2782 18.935 27.7782 18.935C28.2882 18.935 28.7532 18.815 29.1732 18.575C29.6032 18.325 29.9432 17.97 30.1932 17.51C30.4432 17.04 30.5682 16.49 30.5682 15.86ZM35.4249 8.9V20H34.0599V8.9H35.4249ZM41.6363 20.135C40.8663 20.135 40.1663 19.96 39.5363 19.61C38.9163 19.26 38.4263 18.765 38.0663 18.125C37.7163 17.475 37.5413 16.725 37.5413 15.875C37.5413 15.035 37.7213 14.295 38.0813 13.655C38.4513 13.005 38.9513 12.51 39.5813 12.17C40.2113 11.82 40.9163 11.645 41.6963 11.645C42.4763 11.645 43.1813 11.82 43.8113 12.17C44.4413 12.51 44.9363 13 45.2963 13.64C45.6663 14.28 45.8513 15.025 45.8513 15.875C45.8513 16.725 45.6613 17.475 45.2813 18.125C44.9113 18.765 44.4063 19.26 43.7663 19.61C43.1263 19.96 42.4163 20.135 41.6363 20.135ZM41.6363 18.935C42.1263 18.935 42.5863 18.82 43.0163 18.59C43.4463 18.36 43.7913 18.015 44.0513 17.555C44.3213 17.095 44.4563 16.535 44.4563 15.875C44.4563 15.215 44.3263 14.655 44.0663 14.195C43.8063 13.735 43.4663 13.395 43.0463 13.175C42.6263 12.945 42.1713 12.83 41.6813 12.83C41.1813 12.83 40.7213 12.945 40.3013 13.175C39.8913 13.395 39.5613 13.735 39.3113 14.195C39.0613 14.655 38.9363 15.215 38.9363 15.875C38.9363 16.545 39.0563 17.11 39.2963 17.57C39.5463 18.03 39.8763 18.375 40.2863 18.605C40.6963 18.825 41.1463 18.935 41.6363 18.935ZM49.311 13.115C49.551 12.645 49.891 12.28 50.331 12.02C50.781 11.76 51.326 11.63 51.966 11.63V13.04H51.606C50.076 13.04 49.311 13.87 49.311 15.53V20H47.946V11.78H49.311V13.115ZM61.3417 15.575C61.3417 15.835 61.3267 16.11 61.2967 16.4H54.7267C54.7767 17.21 55.0517 17.845 55.5517 18.305C56.0617 18.755 56.6767 18.98 57.3967 18.98C57.9867 18.98 58.4767 18.845 58.8667 18.575C59.2667 18.295 59.5467 17.925 59.7067 17.465H61.1767C60.9567 18.255 60.5167 18.9 59.8567 19.4C59.1967 19.89 58.3767 20.135 57.3967 20.135C56.6167 20.135 55.9167 19.96 55.2967 19.61C54.6867 19.26 54.2067 18.765 53.8567 18.125C53.5067 17.475 53.3317 16.725 53.3317 15.875C53.3317 15.025 53.5017 14.28 53.8417 13.64C54.1817 13 54.6567 12.51 55.2667 12.17C55.8867 11.82 56.5967 11.645 57.3967 11.645C58.1767 11.645 58.8667 11.815 59.4667 12.155C60.0667 12.495 60.5267 12.965 60.8467 13.565C61.1767 14.155 61.3417 14.825 61.3417 15.575ZM59.9317 15.29C59.9317 14.77 59.8167 14.325 59.5867 13.955C59.3567 13.575 59.0417 13.29 58.6417 13.1C58.2517 12.9 57.8167 12.8 57.3367 12.8C56.6467 12.8 56.0567 13.02 55.5667 13.46C55.0867 13.9 54.8117 14.51 54.7417 15.29H59.9317Z" fill="#1159CD"/>
<path fill-rule="evenodd" clip-rule="evenodd" d="M70 15.5C70 11.3579 73.3579 8 77.5 8C81.6421 8 85 11.3579 85 15.5C85 19.6421 81.6421 23 77.5 23C73.3579 23 70 19.6421 70 15.5ZM78.5001 12.7928L81.2072 15.5L78.5001 18.2071L77.793 17.5L79.2929 16H74V15H79.293L77.793 13.5L78.5001 12.7928Z" fill="#2062BD"/>
</g>
<defs>
<filter id="filter0_d" x="0.15625" y="0" width="92.8438" height="31.8999" filterUnits="userSpaceOnUse" color-interpolation-filters="sRGB">
<feFlood flood-opacity="0" result="BackgroundImageFix"/>
<feColorMatrix in="SourceAlpha" type="matrix" values="0 0 0 0 0 0 0 0 0 0 0 0 0 0 0 0 0 0 127 0"/>
<feOffset/>
<feGaussianBlur stdDeviation="4"/>
<feColorMatrix type="matrix" values="0 0 0 0 0 0 0 0 0 0 0 0 0 0 0 0 0 0 0.02 0"/>
<feBlend mode="normal" in2="BackgroundImageFix" result="effect1_dropShadow"/>
<feBlend mode="normal" in="SourceGraphic" in2="effect1_dropShadow" result="shape"/>
</filter>
</defs>
</svg>
