<svg width="279" height="176" viewBox="0 0 279 176" fill="none" xmlns="http://www.w3.org/2000/svg">
<path d="M117.335 16.3998C117.808 17.0717 118.141 17.8324 118.313 18.6362C118.485 19.4401 118.493 20.2704 118.336 21.0772C118.009 22.6911 117.319 24.2094 116.318 25.5165C114.457 28.0872 111.338 29.9799 108.42 31.231C107.245 27.9096 108.694 24.0878 109.554 22.1991C110.906 19.2087 115.172 14.6241 117.331 16.3998" fill="#F5F5F5"/>
<path d="M108.561 37.2758C108.846 36.4022 109.356 35.6193 110.041 35.0064C110.726 34.3934 111.56 33.972 112.46 33.7849C113.364 33.6122 114.294 33.6217 115.195 33.813C116.096 34.0043 116.95 34.3734 117.706 34.8988C118.408 35.371 119.082 36.0328 119.163 36.8763C119.177 37.2733 119.084 37.6669 118.895 38.0161C118.705 38.3653 118.426 38.6573 118.085 38.8618C117.398 39.2632 116.617 39.4749 115.821 39.4753C113.109 39.6044 110.462 39.2331 108.577 37.2758" fill="#F5F5F5"/>
<path d="M102.249 42.0906C102.634 41.5074 103.079 40.9663 103.577 40.4763C104.099 39.9152 104.685 39.418 105.324 38.9952C106.088 38.4598 106.886 37.9745 107.713 37.5423C109.236 36.7515 110.93 36.3494 112.645 36.372C113.161 36.3893 113.674 36.461 114.174 36.5859C114.363 36.619 114.543 36.686 114.707 36.7836C114.707 36.8442 113.92 36.6101 112.641 36.6222C110.981 36.6723 109.353 37.0914 107.875 37.8491C107.062 38.274 106.274 38.7442 105.514 39.2575C104.882 39.6558 104.293 40.1198 103.758 40.6418C103.288 41.1576 102.784 41.6416 102.249 42.0906Z" fill="#E0E0E0"/>
<path d="M114.397 20.1768C114.283 20.5129 114.14 20.8384 113.969 21.1494C113.674 21.7628 113.238 22.6466 112.685 23.7362C111.584 25.9115 110.026 28.8979 108.226 32.1547C106.426 35.4115 104.707 38.3172 103.436 40.3835C102.794 41.4206 102.265 42.252 101.886 42.8049C101.708 43.1108 101.503 43.3999 101.272 43.6685C101.412 43.3432 101.578 43.03 101.769 42.7322L103.222 40.2382C104.432 38.1316 106.123 35.2137 107.927 31.961C109.731 28.7082 111.281 25.7904 112.476 23.595L113.86 21.0606C114.012 20.7507 114.192 20.455 114.397 20.1768Z" fill="#E0E0E0"/>
<path d="M104.477 36.3682C104.878 34.4733 104.822 32.5099 104.314 30.6409C103.805 28.7719 102.858 27.0511 101.551 25.6212C100.885 24.9028 99.9087 24.2208 98.9885 24.5679C98.0684 24.9149 97.7778 26.0772 97.7778 27.0619C97.8059 29.118 98.4422 31.1198 99.6064 32.8147C100.771 34.5097 102.411 35.822 104.32 36.5861" fill="#F5F5F5"/>
<path d="M101.107 28.4658C101.107 28.4658 101.256 28.603 101.474 28.8694C101.692 29.1357 101.991 29.5797 102.342 30.1164C103.268 31.5246 103.927 33.0909 104.287 34.7373C104.463 35.6553 104.487 36.596 104.36 37.5219C104.17 38.782 103.693 39.9817 102.967 41.0289C102.762 41.3235 102.64 41.4769 102.62 41.4648C102.6 41.4527 103.024 40.7707 103.484 39.6043C103.754 38.9206 103.938 38.2063 104.033 37.4775C104.139 36.5862 104.108 35.6837 103.94 34.8019C103.579 33.1967 102.966 31.6589 102.124 30.2456C101.751 29.6723 101.411 29.0781 101.107 28.4658Z" fill="#E0E0E0"/>
<path d="M65.0966 89.7608L34.4253 105.302C33.9274 105.553 33.3506 105.596 32.8211 105.422C32.2916 105.248 31.8527 104.871 31.6004 104.374L0.226871 42.4584C-0.024959 41.9612 -0.0690744 41.3844 0.10422 40.8546C0.277515 40.3249 0.654039 39.8857 1.15104 39.6334L31.8223 24.096C32.3195 23.8442 32.8964 23.8001 33.4261 23.9734C33.9558 24.1467 34.3951 24.5232 34.6473 25.0202L66.0288 86.9398C66.2788 87.4376 66.321 88.0142 66.1463 88.5431C65.9715 89.072 65.594 89.51 65.0966 89.7608Z" fill="#EBEBEB"/>
<path d="M17.1523 46.2714C17.4063 46.7696 17.5067 47.332 17.4408 47.8873C17.375 48.4427 17.1457 48.9659 16.7822 49.3909C16.4187 49.8158 15.9372 50.1233 15.3988 50.2744C14.8603 50.4255 14.2892 50.4134 13.7577 50.2396C13.2261 50.0658 12.7581 49.7382 12.4129 49.2982C12.0678 48.8582 11.8609 48.3257 11.8186 47.7681C11.7764 47.2105 11.9005 46.6528 12.1754 46.1658C12.4503 45.6788 12.8636 45.2844 13.3628 45.0324C14.0299 44.6958 14.8032 44.6372 15.5134 44.8694C16.2236 45.1016 16.8129 45.6057 17.1523 46.2714Z" fill="#FAFAFA"/>
<path d="M30.0029 42.8497C31.508 42.4472 32.4019 40.9009 31.9994 39.3958C31.597 37.8907 30.0506 36.9968 28.5455 37.3992C27.0404 37.8017 26.1466 39.348 26.549 40.8531C26.9514 42.3582 28.4978 43.2521 30.0029 42.8497Z" fill="#FAFAFA"/>
<path d="M24.0454 59.8759C24.2994 60.3741 24.3998 60.9365 24.3339 61.4918C24.268 62.0472 24.0388 62.5704 23.6753 62.9954C23.3117 63.4203 22.8303 63.7278 22.2918 63.8789C21.7534 64.03 21.1823 64.0179 20.6507 63.8441C20.1192 63.6703 19.6512 63.3427 19.306 62.9027C18.9608 62.4627 18.754 61.9302 18.7117 61.3726C18.6694 60.815 18.7936 60.2573 19.0685 59.7703C19.3434 59.2833 19.7566 58.8889 20.2559 58.6369C20.923 58.3003 21.6963 58.2416 22.4065 58.4739C23.1167 58.7061 23.706 59.2102 24.0454 59.8759Z" fill="#FAFAFA"/>
<path d="M38.6792 52.4589C38.9332 52.9571 39.0336 53.5195 38.9677 54.0748C38.9018 54.6302 38.6726 55.1534 38.3091 55.5784C37.9455 56.0033 37.4641 56.3108 36.9256 56.4619C36.3872 56.613 35.816 56.6009 35.2845 56.4271C34.753 56.2533 34.285 55.9257 33.9398 55.4857C33.5946 55.0457 33.3878 54.5132 33.3455 53.9556C33.3032 53.398 33.4274 52.8403 33.7023 52.3533C33.9772 51.8663 34.3904 51.4719 34.8897 51.2199C35.5568 50.8833 36.33 50.8247 37.0403 51.0569C37.7505 51.2891 38.3398 51.7932 38.6792 52.4589Z" fill="#FAFAFA"/>
<path d="M30.9427 73.4762C31.1975 73.9745 31.2986 74.5372 31.2331 75.0931C31.1676 75.6489 30.9385 76.1728 30.5748 76.5982C30.2111 77.0236 29.7292 77.3314 29.1904 77.4825C28.6515 77.6337 28.0798 77.6213 27.548 77.4471C27.0161 77.2728 26.548 76.9445 26.203 76.5037C25.858 76.063 25.6517 75.5298 25.6103 74.9716C25.5689 74.4135 25.6942 73.8556 25.9703 73.3688C26.2464 72.8819 26.6609 72.4881 27.1612 72.2372C27.8275 71.9031 28.5988 71.8459 29.3071 72.0779C30.0154 72.31 30.6033 72.8126 30.9427 73.4762Z" fill="#FAFAFA"/>
<path d="M45.5762 66.0624C45.8301 66.5606 45.9306 67.123 45.8647 67.6783C45.7988 68.2337 45.5696 68.757 45.206 69.1819C44.8425 69.6068 44.361 69.9143 43.8226 70.0654C43.2842 70.2165 42.713 70.2044 42.1815 70.0306C41.6499 69.8568 41.1819 69.5292 40.8368 69.0892C40.4916 68.6492 40.2847 68.1167 40.2425 67.5591C40.2002 67.0015 40.3244 66.4438 40.5992 65.9568C40.8741 65.4698 41.2874 65.0754 41.7866 64.8235C42.4537 64.4868 43.227 64.4282 43.9372 64.6604C44.6475 64.8926 45.2368 65.3967 45.5762 66.0624Z" fill="#FAFAFA"/>
<path d="M37.9992 89.2269C38.4837 87.7462 37.6762 86.1531 36.1955 85.6686C34.7148 85.184 33.1216 85.9916 32.6371 87.4723C32.1526 88.953 32.9601 90.5461 34.4408 91.0307C35.9215 91.5152 37.5147 90.7077 37.9992 89.2269Z" fill="#FAFAFA"/>
<path d="M52.4687 79.6669C52.7227 80.1651 52.8231 80.7275 52.7572 81.2828C52.6914 81.8382 52.4621 82.3614 52.0986 82.7864C51.7351 83.2113 51.2536 83.5188 50.7152 83.6699C50.1768 83.821 49.6056 83.8089 49.0741 83.6351C48.5425 83.4613 48.0745 83.1337 47.7293 82.6937C47.3842 82.2537 47.1773 81.7212 47.135 81.1636C47.0928 80.606 47.2169 80.0483 47.4918 79.5613C47.7667 79.0743 48.18 78.6799 48.6792 78.4279C49.3463 78.0913 50.1196 78.0327 50.8298 78.2649C51.54 78.4971 52.1294 79.0012 52.4687 79.6669Z" fill="#FAFAFA"/>
<path d="M15.4577 44.9844C15.2826 45.8536 15.0314 46.7057 14.7071 47.5309C14.4557 48.3819 14.1345 49.2107 13.7466 50.0088C13.924 49.1402 14.1751 48.2883 14.4972 47.4623C14.7486 46.6113 15.0698 45.7825 15.4577 44.9844Z" fill="#E0E0E0"/>
<path d="M29.7562 37.5986C29.5765 38.4667 29.3254 39.3184 29.0055 40.1452C28.754 40.9967 28.4313 41.8256 28.041 42.6231C28.2154 41.7555 28.4611 40.9038 28.7755 40.0766C29.0302 39.2238 29.3583 38.3947 29.7562 37.5986Z" fill="#E0E0E0"/>
<path d="M22.4795 58.5684C22.3493 59.4674 22.1455 60.3542 21.8701 61.2198C21.6707 62.1036 21.4008 62.97 21.063 63.8107C21.1906 62.9116 21.393 62.0247 21.6683 61.1593C21.8688 60.2753 22.14 59.4088 22.4795 58.5684Z" fill="#E0E0E0"/>
<path d="M36.9237 51.1465C36.8368 52.0102 36.6761 52.8648 36.4434 53.7011C36.2827 54.5579 36.0478 55.3992 35.7412 56.2153C35.8297 55.3476 35.9917 54.4889 36.2255 53.6486C36.388 52.7966 36.6216 51.9596 36.9237 51.1465Z" fill="#E0E0E0"/>
<path d="M28.9083 72.1768C28.7935 72.9986 28.6072 73.8088 28.3514 74.5982C28.163 75.4118 27.8995 76.2062 27.5645 76.9712C27.6769 76.1489 27.8633 75.3385 28.1214 74.5497C28.3113 73.7365 28.5747 72.9423 28.9083 72.1768Z" fill="#E0E0E0"/>
<path d="M43.9494 64.9492C43.7705 65.7768 43.5193 66.587 43.1988 67.3706C42.9476 68.1774 42.6262 68.9606 42.2383 69.7113C42.4172 68.8838 42.6684 68.0736 42.9889 67.2899C43.239 66.4827 43.5604 65.6994 43.9494 64.9492Z" fill="#E0E0E0"/>
<path d="M36.2495 85.9229C36.0518 86.7822 35.7818 87.6233 35.4423 88.4371C35.1688 89.2727 34.8231 90.0828 34.4092 90.8585C34.6081 90.0008 34.8781 89.1612 35.2163 88.3483C35.4923 87.5124 35.8379 86.701 36.2495 85.9229Z" fill="#E0E0E0"/>
<path d="M50.7819 78.0527C50.6581 79.0088 50.4583 79.9534 50.1846 80.8777C49.9886 81.8177 49.7187 82.7407 49.3774 83.6381C49.5036 82.6825 49.7033 81.7381 49.9747 80.8131C50.1707 79.8732 50.4406 78.9502 50.7819 78.0527Z" fill="#E0E0E0"/>
<path d="M57.7312 86.7294C57.7595 86.7859 53.292 89.1105 47.7348 91.9234C42.1777 94.7362 37.6658 96.968 37.6456 96.9115C37.6254 96.855 42.0848 94.5345 47.638 91.7216C53.1911 88.9087 57.703 86.677 57.7312 86.7294Z" fill="#E0E0E0"/>
<path d="M28.6949 32.2276C28.7231 32.2801 24.2556 34.6046 18.7025 37.4175C13.1494 40.2304 8.61328 42.4621 8.61328 42.4097C8.61328 42.3572 13.0525 40.0286 18.6057 37.2157C24.1588 34.4029 28.6666 32.1711 28.6949 32.2276Z" fill="#E0E0E0"/>
<path d="M19.3562 40.1374C19.3316 40.1512 19.3037 40.1582 19.2755 40.1575C19.2755 40.1575 19.2512 40.1575 19.2432 40.1575L19.4449 40.0566C19.4449 40.093 19.4449 40.1454 19.3763 40.1696C19.3077 40.1939 19.2633 40.1939 19.2432 40.1696L19.4449 40.0687V40.0889C19.4483 40.0994 19.4483 40.1107 19.4449 40.1212C19.4183 40.1371 19.3867 40.1428 19.3562 40.1374Z" fill="#E0E0E0"/>
<path d="M46.9845 92.0404C46.928 92.0687 40.6485 79.784 32.9565 64.5977C25.2644 49.4114 19.0898 37.1025 19.1261 37.0743C19.1625 37.046 25.4622 49.3266 33.1542 64.517C40.8462 79.7073 47.041 92.0162 46.9845 92.0404Z" fill="#E0E0E0"/>
<path d="M235.924 122.57C235.278 122.57 234.628 122.57 233.974 122.506C228.194 122.124 222.657 120.036 218.063 116.507C213.469 112.978 210.024 108.166 208.165 102.68C206.306 97.1933 206.115 91.2787 207.617 85.6839C209.119 80.089 212.246 75.0651 216.603 71.2475C220.96 67.4299 226.352 64.99 232.095 64.2363C237.839 63.4826 243.677 64.449 248.872 67.0132C254.066 69.5774 258.384 73.6243 261.279 78.6423C264.173 83.6602 265.515 89.4238 265.134 95.2042L260.905 94.9257L265.134 95.2042C264.635 102.617 261.343 109.564 255.921 114.643C250.5 119.722 243.353 122.555 235.924 122.57ZM235.875 72.459C230.483 72.4791 225.309 74.5904 221.442 78.3487C217.575 82.107 215.317 87.2191 215.143 92.6087C214.97 97.9983 216.894 103.245 220.511 107.244C224.128 111.244 229.155 113.684 234.535 114.051C234.995 114.079 235.46 114.095 235.92 114.095C241.199 114.086 246.278 112.072 250.131 108.463C253.984 104.853 256.322 99.9151 256.675 94.6473C256.855 91.9195 256.497 89.1829 255.619 86.5937C254.742 84.0046 253.363 81.6136 251.562 79.5573C249.76 77.5011 247.572 75.8198 245.12 74.6095C242.669 73.3991 240.003 72.6835 237.276 72.5034C236.807 72.4711 236.339 72.459 235.875 72.459Z" fill="#EBEBEB"/>
<path d="M244.596 74.0136C243.907 74.0119 243.229 73.8424 242.619 73.5197C242.01 73.1969 241.489 72.7307 241.1 72.1613C240.712 71.5919 240.467 70.9365 240.389 70.2516C240.31 69.5667 240.4 68.873 240.65 68.2305L259.008 21.2832C259.211 20.7649 259.513 20.2916 259.899 19.8903C260.285 19.489 260.746 19.1677 261.255 18.9445C261.765 18.7213 262.314 18.6008 262.871 18.5897C263.427 18.5786 263.98 18.6773 264.498 18.88C265.017 19.0827 265.49 19.3855 265.891 19.7712C266.293 20.1568 266.614 20.6177 266.837 21.1275C267.06 21.6374 267.181 22.1862 267.192 22.7426C267.203 23.2991 267.104 23.8522 266.902 24.3706L248.547 71.3178C248.236 72.1118 247.692 72.7935 246.987 73.2743C246.283 73.7551 245.45 74.0127 244.596 74.0136Z" fill="#EBEBEB"/>
<path d="M268.657 46.4375C268.125 46.4366 267.598 46.3353 267.104 46.1389L244.1 37.0505C243.074 36.6245 242.256 35.8126 241.823 34.7896C241.39 33.7666 241.375 32.6143 241.783 31.5809C242.191 30.5475 242.989 29.7157 244.004 29.2645C245.019 28.8134 246.171 28.779 247.212 29.1688L270.215 38.2572C271.134 38.6189 271.897 39.2899 272.374 40.1545C272.85 41.0191 273.01 42.023 272.825 42.9928C272.641 43.9626 272.123 44.8375 271.362 45.4664C270.601 46.0953 269.644 46.4388 268.657 46.4375Z" fill="#EBEBEB"/>
<path d="M13.3954 124.73C13.3954 124.73 10.4251 126.344 14.7635 132.543C19.1019 138.742 21.9148 141.708 21.9148 141.708C21.9148 141.708 22.7219 143.173 21.4668 143.596C20.2117 144.02 17.2576 143.96 16.8984 145.639C16.5392 147.317 17.9477 148.77 20.579 149.799C23.2102 150.828 28.8844 153.298 29.3969 153.524C29.9095 153.75 30.4664 154.4 29.6431 154.828C28.8198 155.256 22.4596 156.846 23.3878 159.804C24.316 162.762 32.113 164.445 32.9605 164.647C33.808 164.848 34.0501 165.159 34.0461 165.611C34.042 166.063 31.8506 166.39 30.0588 166.915C28.2669 167.439 26.2814 168.355 26.9594 170.026C27.6374 171.697 32.5407 174.728 43.3604 174.284L48.3566 173.751L50.4794 169.171C54.4182 159.081 53.1551 153.464 51.795 152.277C50.435 151.091 48.9176 152.681 47.8401 154.194C46.7625 155.708 45.7415 157.681 45.3137 157.54C44.8859 157.399 44.664 157.068 44.7528 156.2C44.8415 155.332 45.8061 147.418 43.2959 145.574C40.7857 143.73 37.2221 149.23 36.5522 149.868C35.8823 150.506 35.4464 149.755 35.4021 149.206C35.3577 148.657 34.8774 142.487 34.7563 139.662C34.6353 136.837 33.7878 135.045 32.0201 134.819C30.3171 134.613 29.4171 137.406 28.6019 138.471C27.7867 139.537 26.6728 138.281 26.6728 138.281C26.6728 138.281 24.7761 134.649 20.3287 128.527C15.8814 122.405 13.3389 124.758 13.3389 124.758" fill="#EBEBEB"/>
<path d="M48.7802 174.882C45.5516 170.374 39.9017 162.266 35.0144 155.333C30.1272 148.399 25.7324 142.128 22.5038 137.604L18.678 132.253C18.23 131.623 17.8708 131.135 17.6408 130.796L17.3704 130.416L17.2856 130.283L17.3865 130.404L17.665 130.776L18.7264 132.216C19.6506 133.467 20.9702 135.287 22.5926 137.539C25.8454 142.047 30.2604 148.311 35.1557 155.244C40.051 162.177 45.6485 170.293 48.8771 174.817" fill="#E0E0E0"/>
<path d="M21.0068 145.885C21.1294 145.887 21.2513 145.903 21.37 145.933C21.6001 145.974 21.931 146.038 22.3386 146.127C23.1458 146.304 24.2757 146.575 25.5066 146.898L28.6585 147.733L29.615 147.983C29.7347 148.003 29.8514 148.038 29.962 148.088C29.8411 148.083 29.7208 148.067 29.6029 148.04C29.3728 147.999 29.0419 147.935 28.6343 147.842C27.8272 147.656 26.7012 147.37 25.4703 147.035L22.3144 146.228L21.3539 145.982C21.2352 145.961 21.119 145.929 21.0068 145.885Z" fill="#E0E0E0"/>
<path d="M30.2604 147.733C30.216 147.733 30.6639 145.388 31.2854 142.515C31.9069 139.642 32.4235 137.321 32.4679 137.329C32.5123 137.337 32.0643 139.674 31.4388 142.547C30.8132 145.421 30.3007 147.733 30.2604 147.733Z" fill="#E0E0E0"/>
<path d="M37.2705 158.71C37.3107 158.593 37.3635 158.481 37.4279 158.375L37.9041 157.487C38.3077 156.736 38.8565 155.695 39.4215 154.529C39.9865 153.363 40.4668 152.285 40.8058 151.502L41.2093 150.578C41.2507 150.461 41.3063 150.35 41.3748 150.247C41.3484 150.368 41.312 150.487 41.2658 150.602C41.1851 150.828 41.0641 151.151 40.9067 151.547C40.5959 152.354 40.1318 153.423 39.5628 154.598C38.9937 155.772 38.4288 156.801 38.001 157.54C37.7871 157.911 37.5974 158.205 37.4804 158.407C37.4233 158.516 37.3528 158.618 37.2705 158.71Z" fill="#E0E0E0"/>
<path d="M28.5371 158.888C28.6479 158.86 28.7619 158.847 28.8761 158.848L29.8084 158.791C30.6155 158.751 31.6809 158.706 32.8795 158.666C34.0781 158.626 35.1678 158.601 35.9587 158.589H36.891C37.0057 158.583 37.1208 158.59 37.234 158.609C37.1218 158.637 37.0066 158.651 36.891 158.65L35.9587 158.706C35.1758 158.747 34.0862 158.791 32.8876 158.831C31.689 158.872 30.5993 158.896 29.8124 158.908H28.8801C28.7654 158.915 28.6502 158.908 28.5371 158.888Z" fill="#E0E0E0"/>
<path d="M33.4932 169.373C33.6364 169.342 33.7825 169.326 33.929 169.324L35.1397 169.248C36.1446 169.191 37.5369 169.123 39.0745 169.058C40.6121 168.994 42.0085 168.941 43.0174 168.913L44.2281 168.889C44.3743 168.873 44.5218 168.873 44.668 168.889C44.5243 168.917 44.3785 168.933 44.2321 168.937L43.0214 169.014C42.0125 169.07 40.6202 169.139 39.0826 169.203C37.545 169.268 36.1527 169.316 35.1438 169.349L33.9331 169.373C33.7868 169.388 33.6394 169.388 33.4932 169.373Z" fill="#E0E0E0"/>
<path d="M44.3652 168.835C44.4183 168.687 44.4817 168.543 44.5549 168.403L45.1199 167.257C45.5961 166.285 46.2459 164.945 46.9239 163.44C47.6019 161.934 48.183 160.562 48.5946 159.565L49.083 158.383C49.135 158.234 49.2012 158.091 49.2807 157.955C49.2455 158.108 49.1983 158.258 49.1395 158.403C49.0426 158.69 48.8892 159.101 48.6955 159.614C48.292 160.623 47.7471 162.007 47.0813 163.512C46.4154 165.018 45.7374 166.357 45.2369 167.314C44.9827 167.794 44.7769 168.177 44.6276 168.44C44.5514 168.579 44.4636 168.711 44.3652 168.835Z" fill="#E0E0E0"/>
<path d="M221.137 49.908C226.642 45.1095 227.158 37.248 226.173 30.3349C226.012 29.1806 226.008 27.9457 225.366 26.9893C224.725 26.0328 223.348 25.4799 222.364 26.0772C221.557 26.5736 221.278 27.6148 220.887 28.4986C220.368 29.6698 219.529 30.6702 218.465 31.3841C217.771 31.8482 216.883 32.1913 216.112 31.8563C215.055 31.4124 214.789 30.0483 214.672 28.8941L214.018 22.437C213.962 21.2784 213.719 20.1365 213.3 19.0551C212.823 18.0018 211.923 17.0695 210.793 16.8799C209.663 16.6902 208.372 17.4691 208.271 18.6233C208.277 19.1044 208.318 19.5846 208.392 20.06C208.425 20.297 208.387 20.5386 208.283 20.754C208.179 20.9695 208.013 21.1493 207.807 21.2707C207.359 21.4563 206.863 21.1819 206.483 20.8671C205.168 19.834 204.203 18.4215 203.287 17.013C202.371 15.6046 201.475 14.1598 200.26 13.0056C199.046 11.8514 197.435 11.012 195.785 11.0967C194.134 11.1815 192.479 12.3881 192.237 14.0508C191.995 15.7135 193.117 17.2794 194.291 18.4901C196.018 20.2769 197.993 21.806 200.155 23.0303C200.573 23.2058 200.923 23.5097 201.156 23.8979C201.491 24.6365 200.845 25.4759 200.111 25.8108C199.304 26.1902 198.343 26.2144 197.459 26.4041C196.576 26.5938 195.639 27.1063 195.393 27.9942C195.046 29.2049 196.164 30.347 197.221 31.0532C199.336 32.4622 201.677 33.497 204.143 34.1123C205.026 34.3302 205.947 34.5158 206.693 35.0284C207.44 35.5409 207.964 36.5418 207.638 37.3973C207.311 38.2529 206.282 38.6282 205.378 38.5596C204.474 38.491 203.626 38.0915 202.746 37.8655C201.1 37.4377 199.066 37.7686 198.198 39.2457C197.94 39.7498 197.802 40.3069 197.795 40.8734C197.788 41.4398 197.912 42.0002 198.158 42.5105C198.657 43.5247 199.356 44.4278 200.212 45.166C203.045 47.9048 206.555 49.8421 210.382 50.7797C214.187 51.6595 217.646 51.6353 221.133 49.908" fill="#F5F5F5"/>
<path d="M218.877 45.7552C217.319 42.0994 215.551 38.5366 213.582 35.0848L212.053 32.3567C211.548 31.4648 211.048 30.581 210.503 29.7416C209.458 28.1385 208.325 26.5945 207.109 25.1166C205.959 23.6961 204.813 22.3926 203.735 21.1778C202.658 19.9631 201.624 18.8613 200.64 17.8887C199.099 16.3476 197.438 14.932 195.672 13.6553C195.05 13.2033 194.554 12.8481 194.215 12.6464L193.832 12.3961C193.788 12.3651 193.742 12.3381 193.694 12.3154C193.732 12.3527 193.774 12.3852 193.819 12.4123L194.191 12.6827C194.522 12.9167 194.998 13.2598 195.623 13.7239C197.366 15.0229 199.008 16.4515 200.535 17.9977C201.507 18.9703 202.528 20.0841 203.602 21.2989C204.675 22.5136 205.814 23.8212 206.956 25.2418C208.165 26.717 209.291 28.2583 210.329 29.8586C210.866 30.6899 211.363 31.5697 211.867 32.4656L213.397 35.1897C215.36 38.6341 217.129 42.1857 218.695 45.8278" fill="#E0E0E0"/>
<path d="M210.442 29.7414C210.482 29.5762 210.502 29.4069 210.503 29.2369C210.527 28.9141 210.551 28.4298 210.571 27.8607C210.608 26.6944 210.608 25.0842 210.599 23.3125C210.591 21.5408 210.599 19.9306 210.672 18.7683C210.7 18.1912 210.725 17.719 210.749 17.3962C210.769 17.2273 210.769 17.0566 210.749 16.8877C210.706 17.0491 210.678 17.2138 210.664 17.3801C210.616 17.7029 210.567 18.1872 210.523 18.7522C210.426 19.9145 210.382 21.5247 210.39 23.3044C210.398 25.0842 210.41 26.6379 210.418 27.8486V29.2248C210.407 29.3974 210.416 29.5705 210.442 29.7414Z" fill="#E0E0E0"/>
<path d="M195.337 28.5711C195.536 28.5885 195.735 28.5885 195.934 28.5711C196.318 28.5711 196.875 28.5711 197.548 28.5711C198.921 28.5711 200.813 28.6356 202.904 28.8011C204.994 28.9666 206.875 29.2047 208.231 29.4105C208.909 29.5114 209.442 29.6082 209.845 29.6688C210.04 29.7145 210.239 29.7416 210.438 29.7495C210.252 29.6756 210.059 29.6215 209.861 29.5881C209.486 29.4993 208.941 29.3822 208.247 29.2612C206.891 29.015 205.019 28.7567 202.912 28.5872C201.124 28.4383 199.33 28.3817 197.536 28.4177C196.85 28.4177 196.293 28.4661 195.922 28.5025C195.725 28.5045 195.529 28.5275 195.337 28.5711Z" fill="#E0E0E0"/>
<path d="M218.667 45.5013C218.699 45.4391 218.726 45.3743 218.748 45.3076L218.941 44.7467C219.111 44.2583 219.345 43.536 219.599 42.6562C220.132 40.8805 220.79 38.4106 221.476 35.6704C222.162 32.9302 222.8 30.4563 223.296 28.6806C223.538 27.8129 223.74 27.0986 223.889 26.5699C223.95 26.3399 224.002 26.1663 224.047 25.9968C224.069 25.9303 224.082 25.8611 224.087 25.791C224.05 25.8494 224.023 25.9135 224.006 25.9807C223.954 26.1341 223.889 26.3197 223.808 26.5457C223.643 27.034 223.405 27.7564 223.151 28.6362C222.622 30.4078 221.964 32.8817 221.274 35.622C220.584 38.3622 219.954 40.8361 219.458 42.6158L218.857 44.7225C218.792 44.9525 218.74 45.126 218.699 45.2955C218.679 45.3623 218.668 45.4316 218.667 45.5013Z" fill="#E0E0E0"/>
<path d="M198.307 41.2793C198.37 41.3096 198.438 41.33 198.508 41.3398L199.102 41.469L201.281 41.925C203.125 42.3286 205.66 42.8694 208.464 43.4949C211.269 44.1204 213.812 44.6572 215.66 45.0043C216.584 45.1778 217.335 45.311 217.856 45.4078L218.453 45.5006C218.524 45.5097 218.596 45.5097 218.667 45.5006C218.601 45.4709 218.532 45.4505 218.461 45.4401L217.868 45.311L215.688 44.8549C213.848 44.4514 211.31 43.9106 208.509 43.2851C205.708 42.6595 203.162 42.1228 201.309 41.7757C200.385 41.6022 199.638 41.469 199.118 41.3721L198.516 41.2793C198.447 41.2702 198.376 41.2702 198.307 41.2793Z" fill="#E0E0E0"/>
<path d="M235.718 40.7998L248.196 174.974H235.718V40.7998Z" fill="#E0E0E0"/>
<path d="M235.717 40.7998H56.0767V174.974H235.717V40.7998Z" fill="#FAFAFA"/>
<path d="M235.717 40.7998H56.0767V73.8239H235.717V40.7998Z" fill="#1A73E8"/>
<path d="M56.0766 40.7873L235.717 40.6904H235.806V40.7873C235.806 81.0675 235.806 126.748 235.806 174.946V175.067H235.701L56.0605 175.047H55.9717V174.962C56.0241 93.7194 56.0605 41.4976 56.0605 40.7873C56.0605 41.4976 56.0928 93.7194 56.1452 174.962L56.0605 174.877L235.701 174.857L235.596 174.962C235.596 126.756 235.596 81.0837 235.596 40.8034L235.693 40.8963L56.0766 40.7873Z" fill="#263238"/>
<path d="M235.883 73.311C235.883 73.3715 195.409 73.4159 145.484 73.4159C95.5579 73.4159 55.084 73.3715 55.084 73.311C55.084 73.2504 95.5499 73.2061 145.484 73.2061C195.417 73.2061 235.883 73.2545 235.883 73.311Z" fill="#263238"/>
<path d="M211.73 115.782H118.114C112.787 115.782 108.468 120.1 108.468 125.426C108.468 130.751 112.787 135.069 118.114 135.069H211.73C217.057 135.069 221.375 130.751 221.375 125.426C221.375 120.1 217.057 115.782 211.73 115.782Z" fill="#1A73E8"/>
<path d="M98.823 136.332H73.2649C67.938 136.332 63.6196 140.649 63.6196 145.975C63.6196 151.301 67.938 155.619 73.2649 155.619H98.823C104.15 155.619 108.468 151.301 108.468 145.975C108.468 140.649 104.15 136.332 98.823 136.332Z" fill="#1A73E8"/>
<path d="M84.7261 50.4287C86.7521 50.4287 88.3945 48.7863 88.3945 46.7602C88.3945 44.7342 86.7521 43.0918 84.7261 43.0918C82.7 43.0918 81.0576 44.7342 81.0576 46.7602C81.0576 48.7863 82.7 50.4287 84.7261 50.4287Z" fill="#263238"/>
<path d="M84.7263 50.6301C83.9607 50.6309 83.212 50.4046 82.575 49.9798C81.938 49.555 81.4414 48.9509 81.1478 48.2437C80.8543 47.5366 80.777 46.7583 80.9259 46.0073C81.0748 45.2563 81.4431 44.5663 81.9842 44.0246C82.5253 43.483 83.2149 43.114 83.9658 42.9643C84.7166 42.8147 85.495 42.8911 86.2024 43.1839C86.9098 43.4767 87.5145 43.9727 87.94 44.6093C88.3654 45.2458 88.5925 45.9942 88.5925 46.7599C88.5914 47.7853 88.1839 48.7685 87.4592 49.4939C86.7345 50.2194 85.7517 50.628 84.7263 50.6301ZM84.7263 43.2973C84.0403 43.2965 83.3695 43.4992 82.7988 43.8798C82.2281 44.2604 81.7832 44.8018 81.5203 45.4354C81.2574 46.069 81.1884 46.7664 81.322 47.4392C81.4557 48.1121 81.7859 48.7301 82.271 49.2152C82.756 49.7003 83.3741 50.0305 84.047 50.1642C84.7198 50.2978 85.4172 50.2288 86.0508 49.9659C86.6844 49.703 87.2258 49.2581 87.6064 48.6874C87.987 48.1167 88.1897 47.4459 88.1889 46.7599C88.1879 45.8419 87.8227 44.9617 87.1736 44.3126C86.5244 43.6635 85.6443 43.2983 84.7263 43.2973Z" fill="#263238"/>
<path d="M114.97 50.4287C116.996 50.4287 118.638 48.7863 118.638 46.7602C118.638 44.7342 116.996 43.0918 114.97 43.0918C112.944 43.0918 111.301 44.7342 111.301 46.7602C111.301 48.7863 112.944 50.4287 114.97 50.4287Z" fill="#263238"/>
<path d="M114.97 50.6301C114.204 50.6301 113.456 50.4031 112.82 49.9779C112.183 49.5526 111.687 48.9481 111.394 48.241C111.101 47.5338 111.025 46.7556 111.174 46.0048C111.323 45.2541 111.692 44.5645 112.233 44.0232C112.774 43.482 113.464 43.1133 114.215 42.964C114.966 42.8147 115.744 42.8913 116.451 43.1843C117.158 43.4772 117.763 43.9732 118.188 44.6097C118.613 45.2461 118.84 45.9944 118.84 46.7599C118.839 47.786 118.431 48.7698 117.705 49.4954C116.98 50.2209 115.996 50.629 114.97 50.6301ZM114.97 43.2973C114.284 43.2973 113.614 43.5007 113.043 43.8818C112.473 44.2629 112.029 44.8045 111.767 45.4382C111.504 46.0719 111.436 46.7691 111.57 47.4417C111.704 48.1143 112.035 48.732 112.52 49.2166C113.005 49.7013 113.623 50.0311 114.296 50.1645C114.969 50.2978 115.666 50.2285 116.299 49.9655C116.933 49.7025 117.474 49.2576 117.854 48.687C118.235 48.1163 118.437 47.4457 118.437 46.7599C118.434 45.8415 118.068 44.9614 117.419 44.3124C116.769 43.6633 115.888 43.2983 114.97 43.2973Z" fill="#263238"/>
<path d="M145.213 50.4287C147.239 50.4287 148.881 48.7863 148.881 46.7602C148.881 44.7342 147.239 43.0918 145.213 43.0918C143.187 43.0918 141.544 44.7342 141.544 46.7602C141.544 48.7863 143.187 50.4287 145.213 50.4287Z" fill="#263238"/>
<path d="M145.213 50.6301C144.448 50.6301 143.699 50.4031 143.063 49.9779C142.426 49.5526 141.93 48.9481 141.637 48.241C141.344 47.5338 141.268 46.7556 141.417 46.0048C141.566 45.2541 141.935 44.5645 142.476 44.0232C143.018 43.482 143.707 43.1133 144.458 42.964C145.209 42.8147 145.987 42.8913 146.694 43.1843C147.401 43.4772 148.006 43.9732 148.431 44.6097C148.856 45.2461 149.083 45.9944 149.083 46.7599C149.082 47.786 148.674 48.7698 147.948 49.4954C147.223 50.2209 146.239 50.629 145.213 50.6301ZM145.213 43.2973C144.527 43.2973 143.857 43.5007 143.287 43.8818C142.716 44.2629 142.272 44.8045 142.01 45.4382C141.748 46.0719 141.679 46.7691 141.813 47.4417C141.947 48.1143 142.278 48.732 142.763 49.2166C143.248 49.7013 143.866 50.0311 144.539 50.1645C145.212 50.2978 145.909 50.2285 146.542 49.9655C147.176 49.7025 147.717 49.2576 148.097 48.687C148.478 48.1163 148.68 47.4457 148.68 46.7599C148.679 45.8412 148.313 44.9604 147.663 44.3112C147.013 43.6619 146.132 43.2973 145.213 43.2973Z" fill="#263238"/>
<path d="M175.46 50.4287C177.486 50.4287 179.129 48.7863 179.129 46.7602C179.129 44.7342 177.486 43.0918 175.46 43.0918C173.434 43.0918 171.792 44.7342 171.792 46.7602C171.792 48.7863 173.434 50.4287 175.46 50.4287Z" fill="#263238"/>
<path d="M175.461 50.6301C174.695 50.6309 173.946 50.4046 173.309 49.9798C172.672 49.555 172.176 48.9509 171.882 48.2437C171.589 47.5366 171.511 46.7583 171.66 46.0073C171.809 45.2563 172.177 44.5663 172.719 44.0246C173.26 43.483 173.949 43.114 174.7 42.9643C175.451 42.8147 176.229 42.8911 176.937 43.1839C177.644 43.4767 178.249 43.9727 178.674 44.6093C179.1 45.2458 179.327 45.9942 179.327 46.7599C179.326 47.7853 178.918 48.7685 178.194 49.4939C177.469 50.2194 176.486 50.628 175.461 50.6301ZM175.461 43.2973C174.775 43.2965 174.104 43.4992 173.533 43.8798C172.962 44.2604 172.518 44.8018 172.255 45.4354C171.992 46.069 171.923 46.7664 172.056 47.4392C172.19 48.1121 172.52 48.7301 173.005 49.2152C173.49 49.7003 174.108 50.0305 174.781 50.1642C175.454 50.2978 176.152 50.2288 176.785 49.9659C177.419 49.703 177.96 49.2581 178.341 48.6874C178.721 48.1167 178.924 47.4459 178.923 46.7599C178.922 45.8419 178.557 44.9617 177.908 44.3126C177.259 43.6635 176.379 43.2983 175.461 43.2973Z" fill="#263238"/>
<path d="M205.705 50.4287C207.731 50.4287 209.373 48.7863 209.373 46.7602C209.373 44.7342 207.731 43.0918 205.705 43.0918C203.679 43.0918 202.036 44.7342 202.036 46.7602C202.036 48.7863 203.679 50.4287 205.705 50.4287Z" fill="#263238"/>
<path d="M205.704 50.6301C204.939 50.6301 204.19 50.4031 203.554 49.9779C202.918 49.5526 202.422 48.9481 202.129 48.241C201.836 47.5338 201.759 46.7556 201.908 46.0048C202.058 45.2541 202.426 44.5645 202.968 44.0232C203.509 43.482 204.198 43.1133 204.949 42.964C205.7 42.8147 206.478 42.8913 207.185 43.1843C207.892 43.4772 208.497 43.9732 208.922 44.6097C209.347 45.2461 209.574 45.9944 209.574 46.7599C209.573 47.786 209.165 48.7698 208.44 49.4954C207.714 50.2209 206.73 50.629 205.704 50.6301ZM205.704 43.2973C205.018 43.2973 204.348 43.5007 203.778 43.8818C203.208 44.2629 202.763 44.8045 202.501 45.4382C202.239 46.0719 202.17 46.7691 202.304 47.4417C202.439 48.1143 202.769 48.732 203.254 49.2166C203.74 49.7013 204.358 50.0311 205.03 50.1645C205.703 50.2978 206.4 50.2285 207.034 49.9655C207.667 49.7025 208.208 49.2576 208.589 48.687C208.969 48.1163 209.172 47.4457 209.171 46.7599C209.169 45.8415 208.803 44.9614 208.153 44.3124C207.503 43.6633 206.623 43.2983 205.704 43.2973Z" fill="#263238"/>
<path d="M73.1152 80.458V87.7545H72.0821V81.366H70.4355V80.458H73.1152Z" fill="#263238"/>
<path d="M98.6696 86.8471V87.7552H93.4232V87.0489L96.3934 84.1795C97.1683 83.4289 97.3136 82.9688 97.3136 82.5128C97.3136 81.7621 96.7809 81.3021 95.7598 81.3021C95.4074 81.2846 95.0556 81.3482 94.7316 81.4882C94.4077 81.6281 94.1202 81.8406 93.8913 82.1092L93.1851 81.4958C93.5198 81.1251 93.9328 80.8335 94.3942 80.6423C94.8556 80.451 95.3538 80.3649 95.8526 80.39C97.3741 80.39 98.3548 81.1729 98.3548 82.4079C98.3548 83.1181 98.1449 83.7517 97.1441 84.7001L94.9123 86.8471H98.6696Z" fill="#263238"/>
<path d="M120.696 85.6075C120.696 86.8384 119.788 87.8393 117.936 87.8393C116.966 87.8674 116.018 87.5531 115.256 86.9514L115.733 86.1443C116.346 86.6664 117.13 86.945 117.936 86.9272C119.03 86.9272 119.655 86.4268 119.655 85.6358C119.655 84.8448 119.102 84.3605 117.851 84.3605H117.266V83.6341L119.102 81.3822H115.587V80.458H120.406V81.1683L118.497 83.5211C119.958 83.6583 120.696 84.4816 120.696 85.6075Z" fill="#263238"/>
<path d="M145.225 85.9627H143.837V87.7545H142.828V85.9627H138.772V85.2322L142.505 80.458H143.631L140.055 85.0668H142.86V83.4807H143.837V85.0668H145.225V85.9627Z" fill="#263238"/>
<path d="M166.461 85.5833C166.461 86.8424 165.565 87.8554 163.697 87.8554C162.728 87.8794 161.78 87.5655 161.017 86.9675L161.497 86.1604C162.107 86.681 162.887 86.9596 163.689 86.9433C164.79 86.9433 165.416 86.4308 165.416 85.6398C165.416 84.8488 164.895 84.304 163.208 84.304H161.55L161.953 80.4902H166.07V81.3983H162.841L162.639 83.4161H163.447C165.606 83.3677 166.461 84.2717 166.461 85.5833Z" fill="#263238"/>
<path d="M189.638 85.5347C189.638 86.9432 188.5 87.8391 187.051 87.8391C185.094 87.8391 183.988 86.5235 183.988 84.207C183.988 81.7169 185.397 80.3811 187.439 80.3811C188.07 80.3587 188.696 80.5064 189.251 80.8089L188.847 81.6161C188.425 81.3677 187.94 81.2471 187.451 81.269C185.97 81.269 185.029 82.1972 185.029 84.0213C185.024 84.1087 185.024 84.1963 185.029 84.2836C185.271 83.9622 185.589 83.706 185.955 83.5383C186.321 83.3706 186.723 83.2967 187.124 83.3232C188.589 83.3232 189.638 84.1908 189.638 85.5347ZM188.625 85.5751C188.625 84.7195 187.98 84.1707 186.959 84.1707C185.938 84.1707 185.28 84.776 185.28 85.5831C185.28 86.3903 185.885 86.9916 187.011 86.9916C187.959 86.9956 188.625 86.4427 188.625 85.5831V85.5751Z" fill="#263238"/>
<path d="M211.85 80.458V81.1683L208.9 87.7545H207.795L210.68 81.366H207.347V82.6696H206.346V80.458H211.85Z" fill="#263238"/>
<path d="M76.6106 104.955C76.6106 106.278 75.4846 107.102 73.7008 107.102C71.9171 107.102 70.8113 106.295 70.8113 104.955C70.8047 104.561 70.9264 104.176 71.1579 103.858C71.3894 103.54 71.7182 103.306 72.0946 103.191C71.7845 103.064 71.5205 102.845 71.338 102.564C71.1556 102.282 71.0633 101.952 71.0736 101.617C71.0736 100.406 72.1269 99.6396 73.7008 99.6396C75.2748 99.6396 76.3483 100.398 76.3483 101.617C76.357 101.954 76.2627 102.285 76.0781 102.566C75.8934 102.847 75.6272 103.065 75.3151 103.191C75.6934 103.304 76.0245 103.538 76.2583 103.856C76.4921 104.174 76.6157 104.56 76.6106 104.955ZM75.5653 104.922C75.5653 104.115 74.8591 103.619 73.7008 103.619C72.5426 103.619 71.8565 104.119 71.8565 104.922C71.8565 105.725 72.5426 106.258 73.7008 106.258C74.8591 106.258 75.5653 105.73 75.5653 104.906V104.922ZM72.1067 101.662C72.1067 102.38 72.7 102.828 73.7008 102.828C74.7017 102.828 75.3151 102.38 75.3151 101.662C75.3151 100.943 74.6694 100.483 73.7008 100.483C72.7323 100.483 72.1067 100.919 72.1067 101.645V101.662Z" fill="#263238"/>
<path d="M98.9721 103.26C98.9721 105.75 97.5636 107.086 95.5175 107.086C94.8859 107.11 94.2595 106.963 93.7055 106.658L94.1091 105.851C94.5359 106.098 95.0249 106.217 95.5175 106.194C96.9986 106.194 97.9389 105.266 97.9389 103.442V103.179C97.696 103.503 97.3758 103.76 97.0079 103.928C96.6399 104.095 96.2357 104.168 95.8323 104.14C94.3835 104.14 93.3423 103.276 93.3423 101.928C93.3423 100.58 94.4682 99.6279 95.9171 99.6279C97.8663 99.6239 98.9721 100.919 98.9721 103.26ZM97.6887 101.876C97.6887 101.125 97.0834 100.467 95.9453 100.467C94.9969 100.467 94.331 101.02 94.331 101.884C94.331 102.748 94.9646 103.292 95.9857 103.292C97.0067 103.292 97.6887 102.675 97.6887 101.876Z" fill="#263238"/>
<path d="M117.964 99.709V107.01H116.935V100.613H115.284V99.709H117.964Z" fill="#263238"/>
<path d="M119.579 103.34C119.579 100.963 120.85 99.6113 122.557 99.6113C124.264 99.6113 125.531 100.963 125.531 103.34C125.531 105.717 124.256 107.073 122.557 107.073C120.858 107.073 119.579 105.729 119.579 103.34ZM124.486 103.34C124.486 101.476 123.679 100.535 122.557 100.535C121.435 100.535 120.62 101.476 120.62 103.34C120.62 105.205 121.427 106.165 122.557 106.165C123.687 106.165 124.47 105.221 124.47 103.34H124.486Z" fill="#263238"/>
<path d="M141.137 99.709V107.01H140.108V100.613H138.458V99.709H141.137Z" fill="#263238"/>
<path d="M145.003 99.709V107.01H143.97V100.613H142.324V99.709H145.003Z" fill="#263238"/>
<path d="M163.604 99.709V107.01H162.571V100.613H160.924V99.709H163.604Z" fill="#263238"/>
<path d="M170.327 106.097V107.005H165.081V106.294L168.051 103.425C168.822 102.674 168.967 102.214 168.967 101.758C168.967 101.008 168.439 100.547 167.414 100.547C167.062 100.529 166.71 100.593 166.387 100.733C166.063 100.873 165.777 101.086 165.549 101.355L164.839 100.737C165.175 100.367 165.589 100.076 166.051 99.8854C166.513 99.6948 167.011 99.6094 167.51 99.6354C169.032 99.6354 170.013 100.414 170.013 101.653C170.013 102.364 169.803 103.001 168.802 103.95L166.57 106.097H170.327Z" fill="#263238"/>
<path d="M186.248 99.709V107.01H185.219V100.613H183.572V99.709H186.248Z" fill="#263238"/>
<path d="M192.839 104.854C192.839 106.085 191.931 107.086 190.078 107.086C189.109 107.115 188.16 106.803 187.398 106.202L187.875 105.395C188.49 105.915 189.273 106.192 190.078 106.174C191.172 106.174 191.797 105.674 191.797 104.883C191.797 104.092 191.244 103.612 189.993 103.612H189.396V102.881L191.232 100.629H187.717V99.709H192.536V100.419L190.627 102.776C192.1 102.905 192.839 103.745 192.839 104.854Z" fill="#263238"/>
<path d="M208.796 99.709V107.01H207.763V100.613H206.116V99.709H208.796Z" fill="#263238"/>
<path d="M216.738 105.21H215.353V107.006H214.34V105.21H210.305V104.479L214.013 99.709H215.139L211.564 104.318H214.369V102.732H215.349V104.318H216.734L216.738 105.21Z" fill="#263238"/>
<path d="M73.1152 120.948V128.249H72.0821V121.856H70.4355V120.948H73.1152Z" fill="#263238"/>
<path d="M79.8309 126.058C79.8309 127.321 78.9349 128.33 77.0664 128.33C76.0978 128.354 75.1507 128.042 74.3867 127.446L74.867 126.639C75.4786 127.156 76.2575 127.433 77.0583 127.418C78.1641 127.418 78.7897 126.909 78.7897 126.114C78.7897 125.319 78.265 124.783 76.5781 124.783H74.9194L75.323 120.965H79.4394V121.873H76.2108L76.0131 123.891H76.8202C78.9753 123.858 79.8309 124.766 79.8309 126.058Z" fill="#263238"/>
<path d="M95.8003 120.948V128.249H94.7672V121.856H93.1206V120.948H95.8003Z" fill="#263238"/>
<path d="M103.032 126.025C103.032 127.434 101.894 128.33 100.445 128.33C98.4836 128.33 97.3818 127.018 97.3818 124.698C97.3818 122.204 98.7863 120.872 100.832 120.872C101.464 120.847 102.09 120.995 102.644 121.3L102.241 122.107C101.818 121.86 101.333 121.741 100.844 121.764C99.3634 121.764 98.423 122.692 98.423 124.516C98.423 124.597 98.423 124.681 98.423 124.774C98.6657 124.453 98.9847 124.197 99.3511 124.03C99.7176 123.863 100.12 123.79 100.522 123.818C101.995 123.818 103.032 124.681 103.032 126.025ZM102.019 126.07C102.019 125.214 101.373 124.661 100.352 124.661C99.3311 124.661 98.6733 125.275 98.6733 126.078C98.6733 126.881 99.2786 127.486 100.405 127.486C101.369 127.486 102.035 126.933 102.035 126.07H102.019Z" fill="#263238"/>
<path d="M117.964 120.948V128.249H116.935V121.856H115.284V120.948H117.964Z" fill="white"/>
<path d="M124.877 120.948V121.659L121.927 128.249H120.821L123.711 121.856H120.386V123.16H119.385V120.948H124.877Z" fill="white"/>
<path d="M141.137 120.948V128.249H140.108V121.856H138.458V120.948H141.137Z" fill="white"/>
<path d="M148.49 126.182C148.49 127.506 147.364 128.329 145.58 128.329C143.796 128.329 142.691 127.522 142.691 126.182C142.684 125.789 142.805 125.405 143.037 125.087C143.269 124.769 143.598 124.536 143.974 124.423C143.664 124.294 143.4 124.075 143.218 123.793C143.035 123.511 142.943 123.18 142.953 122.845C142.953 121.634 144.006 120.867 145.58 120.867C147.154 120.867 148.228 121.626 148.228 122.845C148.236 123.181 148.142 123.513 147.957 123.795C147.773 124.077 147.507 124.296 147.195 124.423C147.573 124.535 147.904 124.768 148.137 125.085C148.371 125.403 148.495 125.788 148.49 126.182ZM147.445 126.15C147.445 125.343 146.739 124.846 145.58 124.846C144.422 124.846 143.736 125.347 143.736 126.15C143.736 126.953 144.422 127.486 145.58 127.486C146.739 127.486 147.445 126.973 147.445 126.15ZM143.986 122.889C143.986 123.607 144.579 124.055 145.58 124.055C146.581 124.055 147.195 123.607 147.195 122.889C147.195 122.171 146.549 121.711 145.58 121.711C144.612 121.711 143.986 122.159 143.986 122.889Z" fill="white"/>
<path d="M163.604 120.948V128.249H162.571V121.856H160.924V120.948H163.604Z" fill="white"/>
<path d="M170.63 124.504C170.63 126.998 169.221 128.33 167.179 128.33C166.548 128.355 165.921 128.207 165.367 127.902L165.771 127.095C166.197 127.343 166.686 127.462 167.179 127.438C168.656 127.438 169.601 126.51 169.601 124.686V124.428C169.357 124.75 169.037 125.007 168.669 125.174C168.301 125.341 167.897 125.413 167.494 125.384C166.045 125.384 165.004 124.52 165.004 123.176C165.004 121.768 166.13 120.872 167.579 120.872C169.524 120.868 170.63 122.18 170.63 124.504ZM169.346 123.116C169.346 122.365 168.745 121.707 167.607 121.707C166.659 121.707 165.993 122.26 165.993 123.124C165.993 123.988 166.63 124.532 167.651 124.532C168.672 124.532 169.346 123.923 169.346 123.116Z" fill="white"/>
<path d="M189.117 127.341V128.249H183.871V127.555L186.841 124.69C187.612 123.939 187.757 123.479 187.757 123.019C187.757 122.268 187.225 121.808 186.204 121.808C185.852 121.79 185.5 121.854 185.177 121.994C184.854 122.134 184.567 122.346 184.339 122.615L183.629 121.998C183.964 121.628 184.377 121.337 184.839 121.146C185.3 120.956 185.798 120.87 186.297 120.896C187.822 120.896 188.799 121.675 188.799 122.914C188.799 123.624 188.593 124.262 187.588 125.21L185.36 127.341H189.117Z" fill="white"/>
<path d="M189.94 124.596C189.94 122.219 191.212 120.867 192.923 120.867C194.634 120.867 195.893 122.219 195.893 124.596C195.893 126.973 194.622 128.329 192.923 128.329C191.224 128.329 189.94 126.973 189.94 124.596ZM194.852 124.596C194.852 122.732 194.045 121.795 192.923 121.795C191.801 121.795 190.982 122.732 190.982 124.596C190.982 126.461 191.789 127.401 192.923 127.401C194.057 127.401 194.852 126.465 194.852 124.596Z" fill="white"/>
<path d="M211.66 127.341V128.249H206.414V127.555L209.384 124.69C210.155 123.939 210.3 123.479 210.3 123.019C210.3 122.268 209.772 121.808 208.751 121.808C208.398 121.79 208.046 121.854 207.722 121.994C207.398 122.134 207.111 122.347 206.882 122.615L206.172 121.998C206.508 121.628 206.922 121.337 207.384 121.146C207.846 120.956 208.344 120.87 208.844 120.896C210.365 120.896 211.346 121.675 211.346 122.914C211.346 123.624 211.136 124.262 210.135 125.21L207.903 127.357L211.66 127.341Z" fill="white"/>
<path d="M214.78 120.948V128.249H213.747V121.856H212.101V120.948H214.78Z" fill="white"/>
<path d="M75.9928 148.387V149.295H70.7464V148.585L73.7167 145.72C74.4915 144.969 74.6368 144.509 74.6368 144.049C74.6368 143.298 74.1041 142.838 73.0831 142.838C72.7306 142.821 72.3788 142.884 72.0549 143.024C71.7309 143.164 71.4434 143.377 71.2145 143.645L70.5083 143.032C70.843 142.661 71.2561 142.37 71.7175 142.178C72.1789 141.987 72.6771 141.901 73.1759 141.926C74.6974 141.926 75.678 142.709 75.678 143.944C75.678 144.65 75.4682 145.288 74.4673 146.236L72.2356 148.383L75.9928 148.387Z" fill="white"/>
<path d="M81.9699 148.387V149.296H76.7235V148.585L79.6937 145.72C80.4686 144.969 80.6139 144.509 80.6139 144.049C80.6139 143.298 80.0812 142.838 79.0601 142.838C78.7076 142.821 78.3557 142.884 78.0317 143.024C77.7077 143.164 77.4203 143.377 77.1916 143.646L76.4854 143.032C76.8197 142.661 77.2327 142.369 77.6942 142.178C78.1557 141.987 78.654 141.901 79.1529 141.926C80.6744 141.926 81.6551 142.709 81.6551 143.944C81.6551 144.65 81.4452 145.288 80.4444 146.236L78.2126 148.383L81.9699 148.387Z" fill="white"/>
<path d="M98.6696 148.387V149.295H93.4232V148.585L96.3934 145.72C97.1683 144.969 97.3136 144.509 97.3136 144.049C97.3136 143.298 96.7809 142.838 95.7598 142.838C95.4074 142.821 95.0556 142.884 94.7316 143.024C94.4077 143.164 94.1202 143.377 93.8913 143.645L93.1851 143.032C93.5198 142.661 93.9328 142.37 94.3942 142.178C94.8556 141.987 95.3538 141.901 95.8526 141.926C97.3741 141.926 98.3548 142.709 98.3548 143.944C98.3548 144.65 98.1449 145.288 97.1441 146.236L94.9123 148.383L98.6696 148.387Z" fill="white"/>
<path d="M104.517 147.148C104.517 148.379 103.609 149.38 101.753 149.38C100.783 149.407 99.8351 149.092 99.0732 148.492L99.5535 147.685C100.167 148.205 100.949 148.483 101.753 148.468C102.851 148.468 103.476 147.967 103.476 147.172C103.476 146.377 102.923 145.901 101.672 145.901H101.087V145.171L102.923 142.919H99.4001V142.015H104.243V142.721L102.334 145.078C103.779 145.199 104.517 146.022 104.517 147.148Z" fill="white"/>
<path d="M120.834 148.387V149.295H115.587V148.585L118.562 145.72C119.332 144.969 119.478 144.509 119.478 144.049C119.478 143.298 118.945 142.838 117.924 142.838C117.572 142.82 117.221 142.884 116.897 143.024C116.574 143.164 116.287 143.377 116.059 143.645L115.349 143.032C115.684 142.661 116.097 142.37 116.558 142.178C117.02 141.987 117.518 141.901 118.017 141.926C119.538 141.926 120.519 142.709 120.519 143.944C120.519 144.65 120.313 145.288 119.308 146.236L117.076 148.383L120.834 148.387Z" fill="#263238"/>
<path d="M127.84 147.503H126.439V149.295H125.43V147.503H121.395V146.772L125.128 141.998H126.254L122.674 146.603H125.499V145.021H126.439V146.603H127.827L127.84 147.503Z" fill="#263238"/>
<path d="M75.9928 167.064V167.968H70.7464V167.262L73.7167 164.393C74.4915 163.642 74.6368 163.182 74.6368 162.726C74.6368 161.975 74.1041 161.515 73.0831 161.515C72.7305 161.497 72.3786 161.56 72.0545 161.7C71.7304 161.84 71.443 162.053 71.2145 162.322L70.5083 161.705C70.843 161.334 71.2561 161.043 71.7175 160.851C72.1789 160.66 72.6771 160.574 73.1759 160.599C74.6974 160.599 75.678 161.382 75.678 162.617C75.678 163.327 75.4682 163.961 74.4673 164.909L72.2356 167.06L75.9928 167.064Z" fill="#263238"/>
<path d="M82.2683 164.227C82.2683 166.717 80.8639 168.053 78.8178 168.053C78.1864 168.075 77.5605 167.928 77.0058 167.625L77.4094 166.818C77.8362 167.065 78.3251 167.184 78.8178 167.161C80.2989 167.161 81.2392 166.233 81.2392 164.409V164.146C80.9962 164.47 80.6761 164.727 80.3082 164.895C79.9402 165.062 79.536 165.135 79.1326 165.107C77.6838 165.107 76.6426 164.243 76.6426 162.895C76.6426 161.547 77.7685 160.591 79.2174 160.591C81.1666 160.587 82.2683 161.902 82.2683 164.227ZM80.989 162.839C80.989 162.088 80.3837 161.434 79.2456 161.434C78.2972 161.434 77.6313 161.987 77.6313 162.851C77.6313 163.714 78.269 164.259 79.29 164.259C80.311 164.259 80.989 163.642 80.989 162.839Z" fill="#263238"/>
<path d="M98.5324 165.821C98.5324 167.052 97.6244 168.053 95.768 168.053C94.7995 168.08 93.8522 167.766 93.0923 167.165L93.5685 166.358C94.181 166.879 94.9637 167.158 95.768 167.141C96.8657 167.141 97.4912 166.64 97.4912 165.849C97.4912 165.058 96.9383 164.578 95.6872 164.578H95.1021V163.847L96.9383 161.596H93.4232V160.688H98.2418V161.398L96.3329 163.755C97.7858 163.876 98.5324 164.683 98.5324 165.821Z" fill="#263238"/>
<path d="M99.501 164.32C99.501 161.943 100.776 160.587 102.483 160.587C104.19 160.587 105.454 161.943 105.454 164.32C105.454 166.697 104.182 168.053 102.483 168.053C100.784 168.053 99.501 166.701 99.501 164.32ZM104.412 164.32C104.412 162.455 103.605 161.495 102.483 161.495C101.361 161.495 100.546 162.435 100.546 164.32C100.546 166.205 101.353 167.125 102.483 167.125C103.613 167.125 104.412 166.188 104.412 164.32Z" fill="#263238"/>
<path d="M120.696 165.821C120.696 167.052 119.788 168.053 117.936 168.053C116.966 168.081 116.018 167.766 115.256 167.165L115.733 166.358C116.346 166.88 117.13 167.158 117.936 167.141C119.03 167.141 119.655 166.64 119.655 165.849C119.655 165.058 119.102 164.578 117.851 164.578H117.266V163.847L119.102 161.596H115.587V160.688H120.406V161.398L118.497 163.755C119.958 163.876 120.696 164.683 120.696 165.821Z" fill="#263238"/>
<path d="M123.929 160.672V167.968H122.896V161.58H121.249V160.672H123.929Z" fill="#263238"/>
<path d="M144.006 148.387V149.295H138.76V148.585L141.734 145.72C142.505 144.969 142.65 144.509 142.65 144.049C142.65 143.298 142.118 142.838 141.097 142.838C140.745 142.82 140.394 142.884 140.07 143.024C139.747 143.164 139.46 143.377 139.232 143.645L138.522 143.032C138.857 142.661 139.27 142.37 139.731 142.178C140.193 141.987 140.691 141.901 141.19 141.926C142.711 141.926 143.692 142.709 143.692 143.944C143.692 144.65 143.482 145.288 142.481 146.236L140.249 148.383L144.006 148.387Z" fill="#263238"/>
<path d="M149.979 147.104C149.979 148.367 149.083 149.38 147.215 149.38C146.247 149.403 145.301 149.089 144.539 148.492L145.015 147.685C145.626 148.203 146.405 148.481 147.207 148.468C148.312 148.468 148.938 147.955 148.938 147.164C148.938 146.373 148.417 145.828 146.726 145.828H145.068L145.471 142.015H149.588V142.89H146.359L146.161 144.908H146.969C149.124 144.908 149.979 145.812 149.979 147.104Z" fill="#263238"/>
<path d="M166.469 148.387V149.296H161.222V148.585L164.193 145.72C164.964 144.969 165.113 144.509 165.113 144.049C165.113 143.298 164.58 142.838 163.559 142.838C163.207 142.821 162.855 142.884 162.531 143.024C162.207 143.164 161.919 143.377 161.691 143.646L160.984 143.032C161.319 142.661 161.732 142.369 162.193 142.178C162.655 141.987 163.153 141.901 163.652 141.926C165.173 141.926 166.154 142.709 166.154 143.944C166.154 144.65 165.944 145.288 164.943 146.236L162.712 148.383L166.469 148.387Z" fill="#263238"/>
<path d="M172.946 147.075C172.946 148.48 171.808 149.38 170.359 149.38C168.398 149.38 167.296 148.064 167.296 145.747C167.296 143.257 168.701 141.922 170.747 141.922C171.379 141.897 172.005 142.045 172.559 142.349L172.155 143.156C171.733 142.91 171.248 142.79 170.759 142.813C169.278 142.813 168.338 143.742 168.338 145.566C168.332 145.653 168.332 145.741 168.338 145.828C168.579 145.507 168.898 145.25 169.263 145.083C169.629 144.915 170.031 144.841 170.432 144.868C171.893 144.864 172.946 145.715 172.946 147.075ZM171.933 147.115C171.933 146.26 171.288 145.707 170.267 145.707C169.246 145.707 168.588 146.324 168.588 147.128C168.588 147.931 169.193 148.532 170.319 148.532C171.268 148.54 171.933 147.979 171.933 147.115Z" fill="#263238"/>
<path d="M189.117 148.387V149.295H183.871V148.585L186.841 145.72C187.612 144.969 187.757 144.509 187.757 144.049C187.757 143.298 187.225 142.838 186.204 142.838C185.852 142.82 185.5 142.884 185.177 143.024C184.854 143.164 184.567 143.376 184.339 143.645L183.629 143.032C183.964 142.661 184.377 142.37 184.838 142.179C185.3 141.987 185.798 141.901 186.297 141.926C187.822 141.926 188.799 142.709 188.799 143.944C188.799 144.65 188.593 145.288 187.588 146.236L185.36 148.387H189.117Z" fill="#263238"/>
<path d="M195.26 141.998V142.705L192.309 149.295H191.204L194.089 142.89H190.756V144.194H189.755V141.986L195.26 141.998Z" fill="#263238"/>
<path d="M211.661 148.387V149.296H206.415V148.585L209.385 145.72C210.156 144.969 210.305 144.509 210.305 144.049C210.305 143.298 209.773 142.838 208.752 142.838C208.399 142.821 208.047 142.884 207.723 143.024C207.399 143.164 207.112 143.377 206.883 143.646L206.177 143.032C206.511 142.661 206.924 142.369 207.386 142.178C207.847 141.987 208.345 141.901 208.844 141.926C210.366 141.926 211.346 142.709 211.346 143.944C211.346 144.65 211.137 145.288 210.136 146.236L207.904 148.383L211.661 148.387Z" fill="#263238"/>
<path d="M218.271 147.229C218.271 148.553 217.145 149.38 215.365 149.38C213.586 149.38 212.476 148.553 212.476 147.229C212.469 146.836 212.591 146.452 212.823 146.134C213.054 145.817 213.383 145.583 213.759 145.47C213.449 145.342 213.185 145.123 213.003 144.842C212.82 144.561 212.728 144.231 212.738 143.896C212.738 142.685 213.787 141.914 215.365 141.914C216.943 141.914 218.013 142.673 218.013 143.896C218.02 144.232 217.925 144.562 217.74 144.843C217.556 145.124 217.291 145.342 216.98 145.47C217.357 145.583 217.687 145.816 217.92 146.133C218.153 146.451 218.276 146.835 218.271 147.229ZM217.23 147.201C217.23 146.394 216.52 145.897 215.365 145.897C214.211 145.897 213.517 146.398 213.517 147.201C213.517 148.004 214.207 148.533 215.365 148.533C216.524 148.533 217.242 148.024 217.242 147.201H217.23ZM213.767 143.936C213.767 144.654 214.36 145.102 215.382 145.102C216.403 145.102 216.996 144.654 216.996 143.936C216.996 143.218 216.35 142.758 215.382 142.758C214.413 142.758 213.767 143.205 213.767 143.936Z" fill="#263238"/>
<path d="M84.7261 46.8411C84.4364 46.8416 84.1494 46.785 83.8816 46.6745C83.6138 46.564 83.3704 46.4018 83.1654 46.1972C82.9603 45.9925 82.7977 45.7494 82.6867 45.4818C82.5757 45.2142 82.5186 44.9273 82.5186 44.6376V33.7816C82.5196 33.1968 82.7527 32.6364 83.1665 32.2233C83.5804 31.8101 84.1413 31.5781 84.7261 31.5781C85.3102 31.5792 85.87 31.8117 86.283 32.2247C86.696 32.6377 86.9285 33.1975 86.9296 33.7816V44.6376C86.9296 45.222 86.6974 45.7825 86.2842 46.1957C85.8709 46.609 85.3105 46.8411 84.7261 46.8411Z" fill="#E0E0E0"/>
<path d="M84.7264 46.8409C84.7264 46.8409 84.8515 46.8409 85.0815 46.7884C85.5144 46.7089 85.913 46.5001 86.2249 46.1896C86.5368 45.8792 86.7474 45.4815 86.829 45.0491C86.871 44.7145 86.8818 44.3767 86.8613 44.0401C86.8613 43.6769 86.8613 43.2935 86.8613 42.894C86.8613 41.2797 86.8613 39.3628 86.837 37.244C86.837 36.1826 86.837 35.0648 86.837 33.9065C86.8494 33.6253 86.8062 33.3444 86.7099 33.0799C86.6137 32.8154 86.4663 32.5724 86.2761 32.3649C86.0799 32.1516 85.8416 31.9813 85.5762 31.8648C85.3109 31.7484 85.0242 31.6882 84.7345 31.6882C84.4447 31.6882 84.158 31.7484 83.8927 31.8648C83.6273 31.9813 83.389 32.1516 83.1928 32.3649C82.8085 32.7855 82.6068 33.3414 82.6319 33.9106C82.6319 35.0688 82.6319 36.1867 82.6319 37.2481C82.6319 39.3708 82.6319 41.2838 82.6319 42.898C82.6319 43.3016 82.6319 43.681 82.6319 44.0442C82.6133 44.3808 82.6242 44.7184 82.6641 45.0531C82.7455 45.4864 82.9565 45.8847 83.2693 46.1953C83.582 46.5059 83.9818 46.7142 84.4156 46.7925C84.6457 46.8409 84.7708 46.8328 84.7708 46.8449C84.6504 46.8627 84.528 46.8627 84.4076 46.8449C84.0567 46.7913 83.7242 46.6528 83.439 46.4414C82.9793 46.1129 82.6607 45.6227 82.5471 45.0692C82.4847 44.7216 82.4523 44.3692 82.4502 44.0159C82.4502 43.6527 82.4502 43.2693 82.4502 42.8698C82.4502 41.2555 82.4502 39.3386 82.426 37.2198C82.426 36.1584 82.426 35.0405 82.426 33.8823C82.3991 33.261 82.6197 32.6543 83.0395 32.1954C83.2553 31.9611 83.5173 31.774 83.8091 31.6461C84.1008 31.5182 84.4159 31.4521 84.7345 31.4521C85.053 31.4521 85.3681 31.5182 85.6598 31.6461C85.9516 31.774 86.2136 31.9611 86.4294 32.1954C86.8477 32.6552 87.068 33.2612 87.0429 33.8823C87.0429 35.0405 87.0429 36.1584 87.0429 37.2198C87.0429 39.3426 87.0429 41.2555 87.0187 42.8698C87.0187 43.2734 87.0187 43.6527 87.0187 44.0159C87.0302 44.3612 87.0127 44.7068 86.9662 45.0491C86.8541 45.6032 86.5352 46.0938 86.0743 46.4212C85.7902 46.6319 85.4592 46.7704 85.1098 46.8248C84.9836 46.85 84.8542 46.8554 84.7264 46.8409Z" fill="#263238"/>
<path d="M114.97 46.8411C114.68 46.8416 114.393 46.785 114.126 46.6745C113.858 46.5639 113.615 46.4016 113.41 46.1969C113.206 45.9922 113.043 45.7491 112.933 45.4815C112.822 45.2139 112.766 44.9271 112.766 44.6376V33.7816C112.766 33.1972 112.998 32.6367 113.412 32.2235C113.825 31.8103 114.385 31.5781 114.97 31.5781C115.554 31.5781 116.114 31.8103 116.528 32.2235C116.941 32.6367 117.173 33.1972 117.173 33.7816V44.6376C117.174 44.9271 117.117 45.2139 117.006 45.4815C116.896 45.7491 116.734 45.9922 116.529 46.1969C116.324 46.4016 116.081 46.5639 115.813 46.6745C115.546 46.785 115.259 46.8416 114.97 46.8411Z" fill="#E0E0E0"/>
<path d="M114.97 46.8409C114.97 46.8409 115.095 46.8409 115.325 46.7884C115.758 46.7086 116.157 46.4998 116.47 46.1894C116.782 45.8791 116.994 45.4816 117.076 45.0491C117.114 44.7142 117.125 44.3768 117.109 44.0401C117.109 43.6769 117.109 43.2935 117.109 42.894C117.109 41.2797 117.109 39.3628 117.085 37.244C117.085 36.1826 117.085 35.0648 117.085 33.9065C117.097 33.6253 117.054 33.3444 116.957 33.0799C116.861 32.8154 116.714 32.5724 116.524 32.3649C116.328 32.1508 116.09 31.9798 115.824 31.8631C115.559 31.7463 115.272 31.6863 114.982 31.6869C114.692 31.6873 114.406 31.7473 114.141 31.8633C113.876 31.9792 113.637 32.1486 113.44 32.3608C113.056 32.7814 112.854 33.3373 112.879 33.9065C112.879 35.0648 112.879 36.1826 112.879 37.244C112.879 39.3668 112.879 41.2797 112.855 42.894C112.855 43.2976 112.855 43.6769 112.855 44.0401C112.839 44.3768 112.849 44.7142 112.887 45.0491C112.97 45.4816 113.182 45.8791 113.494 46.1894C113.807 46.4998 114.206 46.7086 114.639 46.7884C114.869 46.8369 114.994 46.8288 114.994 46.8409C114.874 46.8587 114.751 46.8587 114.631 46.8409C114.281 46.7878 113.95 46.6491 113.666 46.4373C113.204 46.1111 112.885 45.62 112.774 45.0652C112.724 44.7179 112.705 44.3667 112.718 44.0159C112.718 43.6527 112.718 43.2693 112.718 42.8698C112.718 41.2555 112.718 39.3386 112.698 37.2198C112.698 36.1584 112.698 35.0405 112.698 33.8823C112.673 33.2612 112.893 32.6552 113.311 32.1954C113.527 31.9611 113.789 31.774 114.081 31.6461C114.373 31.5182 114.688 31.4521 115.006 31.4521C115.325 31.4521 115.64 31.5182 115.932 31.6461C116.223 31.774 116.485 31.9611 116.701 32.1954C117.121 32.6543 117.342 33.261 117.315 33.8823C117.315 35.0405 117.315 36.1584 117.315 37.2198C117.315 39.3426 117.315 41.2555 117.315 42.8698C117.315 43.2734 117.315 43.6527 117.315 44.0159C117.328 44.3612 117.311 44.707 117.262 45.0491C117.152 45.6038 116.832 46.095 116.37 46.4212C116.087 46.633 115.755 46.7716 115.406 46.8248C115.262 46.8558 115.115 46.8613 114.97 46.8409Z" fill="#263238"/>
<path d="M145.213 46.8411C144.629 46.8411 144.068 46.609 143.655 46.1957C143.242 45.7825 143.01 45.222 143.01 44.6376V33.7816C143.011 33.1975 143.243 32.6377 143.656 32.2247C144.069 31.8117 144.629 31.5792 145.213 31.5781C145.798 31.5781 146.359 31.8101 146.773 32.2233C147.187 32.6364 147.42 33.1968 147.421 33.7816V44.6376C147.421 44.9273 147.364 45.2142 147.253 45.4818C147.142 45.7494 146.979 45.9925 146.774 46.1972C146.569 46.4018 146.326 46.564 146.058 46.6745C145.79 46.785 145.503 46.8416 145.213 46.8411Z" fill="#E0E0E0"/>
<path d="M145.213 46.8412C145.213 46.8412 145.338 46.8412 145.572 46.7887C146.005 46.7092 146.404 46.5004 146.716 46.1899C147.027 45.8795 147.238 45.4818 147.32 45.0493C147.36 44.7146 147.37 44.377 147.352 44.0404C147.352 43.6772 147.352 43.2938 147.352 42.8943C147.352 41.28 147.352 39.3631 147.332 37.2443C147.332 36.1829 147.332 35.065 147.332 33.9068C147.344 33.6256 147.301 33.3447 147.205 33.0802C147.108 32.8157 146.961 32.5727 146.771 32.3652C146.575 32.152 146.337 31.9818 146.072 31.8653C145.807 31.7489 145.521 31.6888 145.231 31.6888C144.942 31.6888 144.655 31.7489 144.39 31.8653C144.125 31.9818 143.887 32.152 143.692 32.3652C143.5 32.5727 143.351 32.8162 143.254 33.0815C143.157 33.3468 143.114 33.6287 143.127 33.9108C143.127 35.0691 143.127 36.187 143.127 37.2484C143.127 39.3711 143.127 41.284 143.102 42.8983C143.102 43.3019 143.102 43.6813 143.102 44.0445C143.082 44.381 143.093 44.7188 143.135 45.0534C143.216 45.4859 143.427 45.8835 143.739 46.194C144.051 46.5044 144.449 46.7132 144.882 46.7928C145.112 46.8412 145.241 46.8331 145.237 46.8452C145.117 46.863 144.994 46.863 144.874 46.8452C144.525 46.7908 144.194 46.6523 143.909 46.4417C143.449 46.1143 143.13 45.6237 143.018 45.0695C142.971 44.7272 142.954 44.3816 142.965 44.0364C142.965 43.6732 142.965 43.2898 142.965 42.8903C142.965 41.276 142.965 39.359 142.941 37.2403C142.941 36.1789 142.941 35.061 142.941 33.9028C142.916 33.2809 143.138 32.6744 143.558 32.2158C143.881 31.8678 144.302 31.6274 144.766 31.5275C145.229 31.4275 145.713 31.4727 146.15 31.657C146.587 31.8414 146.956 32.1558 147.208 32.5576C147.46 32.9594 147.582 33.4291 147.558 33.9028C147.558 35.061 147.558 36.1789 147.558 37.2403C147.558 39.3631 147.558 41.276 147.534 42.8903C147.534 43.2938 147.534 43.6732 147.534 44.0364C147.546 44.3815 147.53 44.7271 147.485 45.0695C147.373 45.6237 147.054 46.1143 146.593 46.4417C146.308 46.6531 145.976 46.7916 145.625 46.8452C145.488 46.8666 145.349 46.8653 145.213 46.8412Z" fill="#263238"/>
<path d="M175.46 46.8411C175.171 46.8416 174.884 46.785 174.616 46.6745C174.348 46.564 174.105 46.4018 173.9 46.1972C173.695 45.9925 173.532 45.7494 173.421 45.4818C173.31 45.2142 173.253 44.9273 173.253 44.6376V33.7816C173.254 33.1968 173.487 32.6364 173.901 32.2233C174.315 31.8101 174.876 31.5781 175.46 31.5781C176.045 31.5792 176.604 31.8117 177.017 32.2247C177.43 32.6377 177.663 33.1975 177.664 33.7816V44.6376C177.664 45.222 177.432 45.7825 177.019 46.1957C176.605 46.609 176.045 46.8411 175.46 46.8411Z" fill="#E0E0E0"/>
<path d="M175.461 46.8412C175.461 46.8412 175.586 46.8412 175.816 46.7888C176.249 46.7092 176.647 46.5004 176.959 46.19C177.271 45.8795 177.482 45.4819 177.563 45.0494C177.605 44.7148 177.616 44.3771 177.596 44.0405C177.596 43.6773 177.596 43.2939 177.596 42.8943C177.596 41.2801 177.596 39.3631 177.571 37.2444C177.571 36.183 177.571 35.0651 177.571 33.9068C177.584 33.6256 177.541 33.3447 177.444 33.0802C177.348 32.8157 177.201 32.5727 177.011 32.3652C176.814 32.1519 176.576 31.9816 176.311 31.8652C176.045 31.7487 175.759 31.6886 175.469 31.6886C175.179 31.6886 174.892 31.7487 174.627 31.8652C174.362 31.9816 174.123 32.1519 173.927 32.3652C173.543 32.7858 173.341 33.3417 173.366 33.9109C173.366 35.0691 173.366 36.187 173.366 37.2484C173.366 39.3712 173.366 41.2841 173.346 42.8984C173.346 43.3019 173.346 43.6813 173.346 44.0445C173.328 44.3811 173.338 44.7187 173.378 45.0534C173.46 45.4859 173.671 45.8835 173.983 46.194C174.294 46.5045 174.693 46.7132 175.126 46.7928C175.36 46.8412 175.485 46.8332 175.485 46.8453C175.365 46.8631 175.242 46.8631 175.122 46.8453C174.771 46.7916 174.438 46.6531 174.153 46.4417C173.694 46.1132 173.375 45.6231 173.261 45.0696C173.216 44.7272 173.2 44.3816 173.213 44.0364C173.213 43.6732 173.213 43.2898 173.213 42.8903C173.213 41.276 173.213 39.3591 173.189 37.2403C173.189 36.1789 173.189 35.0611 173.189 33.9028C173.162 33.2815 173.382 32.6748 173.802 32.2159C174.018 31.9816 174.28 31.7946 174.572 31.6666C174.864 31.5387 175.179 31.4727 175.497 31.4727C175.816 31.4727 176.131 31.5387 176.423 31.6666C176.714 31.7946 176.976 31.9816 177.192 32.2159C177.61 32.6757 177.831 33.2817 177.806 33.9028C177.806 35.0611 177.806 36.1789 177.806 37.2403C177.806 39.3631 177.806 41.276 177.781 42.8903C177.781 43.2939 177.781 43.6732 177.781 44.0364C177.793 44.3817 177.775 44.7273 177.729 45.0696C177.617 45.6237 177.298 46.1143 176.837 46.4417C176.553 46.6524 176.222 46.7909 175.872 46.8453C175.736 46.8668 175.597 46.8655 175.461 46.8412Z" fill="#263238"/>
<path d="M205.704 46.8411C205.415 46.8416 205.128 46.785 204.861 46.6745C204.593 46.5639 204.35 46.4016 204.145 46.1969C203.94 45.9922 203.778 45.7491 203.668 45.4815C203.557 45.2139 203.5 44.9271 203.501 44.6376V33.7816C203.501 33.1972 203.733 32.6367 204.146 32.2235C204.56 31.8103 205.12 31.5781 205.704 31.5781C206.289 31.5781 206.849 31.8103 207.263 32.2235C207.676 32.6367 207.908 33.1972 207.908 33.7816V44.6376C207.908 44.9271 207.852 45.2139 207.741 45.4815C207.631 45.7491 207.468 45.9922 207.264 46.1969C207.059 46.4016 206.816 46.5639 206.548 46.6745C206.281 46.785 205.994 46.8416 205.704 46.8411Z" fill="#E0E0E0"/>
<path d="M277.346 175.402C277.346 175.458 215.918 175.507 140.168 175.507C64.4185 175.507 2.9751 175.458 2.9751 175.402C2.9751 175.345 64.3862 175.297 140.189 175.297C215.991 175.297 277.346 175.341 277.346 175.402Z" fill="#263238"/>
</svg>
