<svg width="594" height="595" viewBox="0 0 594 595" fill="none" xmlns="http://www.w3.org/2000/svg">
<path d="M444.804 293.857C444.804 293.857 443.731 294.777 441.359 295.631C439.033 296.461 435.177 297.069 430.876 295.497C428.761 294.709 426.556 293.405 424.745 291.426C422.956 289.454 421.44 286.905 420.836 283.937C420.495 282.467 420.393 280.906 420.52 279.333C420.623 277.757 420.981 276.162 421.603 274.639C422.777 271.566 425.057 268.817 427.999 266.945C430.975 265.122 434.445 264.281 437.725 264.574C439.365 264.683 440.955 265.063 442.417 265.662C443.887 266.239 445.245 267.015 446.415 267.967C448.817 269.813 450.443 272.297 451.428 274.769C452.411 277.266 452.613 279.818 452.393 282.065C451.915 286.621 449.676 289.817 447.909 291.541C446.101 293.298 444.804 293.857 444.804 293.857C444.739 293.767 445.968 293.09 447.659 291.299C449.312 289.538 451.384 286.387 451.761 282.006C451.935 279.845 451.701 277.409 450.735 275.041C449.765 272.694 448.197 270.349 445.905 268.618C444.789 267.723 443.497 266.997 442.104 266.459C440.717 265.899 439.211 265.547 437.659 265.45C434.556 265.185 431.287 265.986 428.476 267.706C425.696 269.478 423.541 272.062 422.419 274.965C421.825 276.401 421.48 277.91 421.375 279.401C421.245 280.889 421.332 282.369 421.645 283.763C422.193 286.582 423.612 289.021 425.293 290.922C426.996 292.83 429.083 294.109 431.1 294.903C435.203 296.489 438.943 296.011 441.252 295.298C443.604 294.566 444.752 293.758 444.804 293.857Z" fill="#E0E0E0"/>
<path d="M447.634 314.581C447.636 314.569 447.774 314.692 448.043 314.948C448.336 315.232 448.731 315.613 449.242 316.108C450.331 317.181 451.9 318.728 453.938 320.735L453.76 320.715C456.915 318.72 461.062 316.097 466.08 312.924L465.987 313.191C465.098 310.675 464.11 307.879 463.054 304.887L463 304.737L463.11 304.619C465.128 302.449 467.011 299.877 468.562 296.924L468.644 296.767L468.824 296.768C471.571 296.772 474.544 296.776 477.636 296.781L477.324 297.029C478.348 292.553 479.435 287.805 480.576 282.82L480.767 283.217C478.308 282.035 475.6 280.733 472.824 279.4L472.622 279.303L472.615 279.077C472.52 276.153 472.032 272.945 471.054 269.804L470.986 269.58L471.152 269.415C473.088 267.489 475.223 265.367 477.399 263.205L477.342 263.701C474.911 259.82 472.291 255.635 469.606 251.344L470.098 251.517C467.508 252.423 464.664 253.416 461.783 254.423L461.54 254.508L461.351 254.332C459.204 252.319 456.586 250.403 453.703 248.885L453.471 248.763L453.472 248.499C453.483 245.739 453.495 242.728 453.506 239.687L453.847 240.117C449.35 239.079 444.53 237.965 439.643 236.837L440.144 236.597C438.934 239.103 437.627 241.808 436.312 244.532L436.194 244.777L435.923 244.785C432.94 244.877 429.752 245.373 426.674 246.325L426.668 246.327L426.667 246.328C426.466 246.277 427.116 246.441 426.215 246.215L426.208 246.208L426.196 246.196L426.171 246.172L426.123 246.123L426.026 246.024L425.83 245.827L425.439 245.433L424.662 244.647L423.106 243.077C422.071 242.033 421.042 240.993 420.015 239.957L420.57 240.023C416.39 242.631 412.267 245.204 408.202 247.741L408.384 247.217C409.36 250.019 410.327 252.791 411.282 255.536L411.37 255.788L411.187 255.983C409.012 258.299 407.179 260.881 405.728 263.621L405.606 263.855L405.342 263.853C402.363 263.837 399.428 263.823 396.531 263.807L396.948 263.476C395.823 268.323 394.722 273.057 393.651 277.675L393.428 277.209C396.118 278.513 398.762 279.795 401.358 281.053L401.576 281.16L401.584 281.403C401.682 284.612 402.214 287.737 403.112 290.676L403.183 290.903L403.015 291.067C400.867 293.189 398.784 295.247 396.75 297.256L396.804 296.793C399.51 301.149 402.066 305.263 404.498 309.176L404.094 309.035C407.02 308.021 409.768 307.072 412.418 306.156L412.603 306.092L412.744 306.224C415.195 308.529 417.782 310.32 420.4 311.719L420.558 311.803L420.556 311.981C420.532 315.183 420.51 318.067 420.488 320.791L420.283 320.532C425.779 321.829 430.462 322.935 434.472 323.881L434.246 323.989C435.796 320.831 437.068 318.239 438.13 316.08L438.168 316L438.255 315.997C441.456 315.911 443.806 315.459 445.343 315.127C446.082 314.948 446.648 314.812 447.062 314.713C447.454 314.609 447.636 314.569 447.634 314.581C447.631 314.593 447.44 314.664 447.083 314.784C446.71 314.901 446.144 315.079 445.378 315.272C443.844 315.652 441.491 316.153 438.266 316.287L438.388 316.205C437.358 318.377 436.118 320.985 434.607 324.164L434.539 324.308L434.382 324.273C430.364 323.361 425.671 322.297 420.163 321.049L419.956 321.001L419.958 320.789C419.96 318.064 419.963 315.18 419.967 311.979L420.124 312.24C417.454 310.835 414.811 309.029 412.304 306.695L412.63 306.764C409.986 307.693 407.242 308.657 404.32 309.683L404.06 309.775L403.915 309.541C401.467 305.636 398.894 301.533 396.17 297.188L396.012 296.937L396.224 296.725C398.252 294.709 400.328 292.645 402.47 290.515L402.372 290.905C401.442 287.904 400.888 284.711 400.78 281.428L401.007 281.777C398.407 280.525 395.762 279.251 393.068 277.953L392.771 277.811L392.844 277.488C393.908 272.869 394.999 268.132 396.115 263.283L396.192 262.951L396.535 262.952C399.432 262.963 402.366 262.972 405.346 262.984L404.96 263.215C406.443 260.405 408.318 257.756 410.544 255.38L410.45 255.827C409.492 253.081 408.524 250.309 407.547 247.511L407.43 247.175L407.731 246.987C411.794 244.448 415.918 241.872 420.096 239.263L420.399 239.072L420.652 239.327C421.678 240.361 422.708 241.401 423.743 242.445L425.298 244.015L426.078 244.801L426.467 245.195L426.662 245.392L426.76 245.491L426.81 245.54L426.832 245.564L426.846 245.577L426.851 245.583C425.951 245.357 426.604 245.52 426.403 245.469H426.404L426.41 245.468C429.567 244.491 432.838 243.984 435.894 243.891L435.504 244.143C436.823 241.419 438.13 238.715 439.34 236.209L439.495 235.888L439.843 235.968C444.728 237.101 449.55 238.219 454.046 239.26L454.387 239.34L454.386 239.691C454.371 242.732 454.354 245.744 454.339 248.503L454.108 248.117C457.06 249.677 459.739 251.644 461.935 253.709L461.502 253.617C464.384 252.616 467.231 251.628 469.823 250.728L470.138 250.619L470.315 250.901C472.99 255.199 475.6 259.391 478.02 263.277L478.19 263.549L477.962 263.775C475.78 265.929 473.639 268.045 471.698 269.964L471.794 269.576C472.783 272.791 473.271 276.068 473.356 279.053L473.147 278.732C475.918 280.077 478.62 281.389 481.074 282.581L481.328 282.704L481.266 282.979C480.102 287.96 478.992 292.703 477.947 297.173L477.888 297.423L477.634 297.421C474.542 297.399 471.568 297.377 468.822 297.356L469.083 297.2C467.49 300.192 465.558 302.793 463.495 304.98L463.551 304.713C464.583 307.713 465.548 310.517 466.416 313.041L466.476 313.215L466.323 313.309C461.268 316.424 457.09 318.999 453.911 320.957L453.812 321.019L453.734 320.937C451.762 318.901 450.242 317.332 449.187 316.244C448.691 315.721 448.308 315.32 448.023 315.02C447.762 314.74 447.631 314.593 447.634 314.581Z" fill="#E0E0E0"/>
<path fill-rule="evenodd" clip-rule="evenodd" d="M472.661 179.796C483.02 173.329 486.177 159.688 479.708 149.328C473.241 138.968 459.598 135.815 449.241 142.281C438.88 148.749 435.726 162.389 442.192 172.748C448.661 183.108 462.3 186.264 472.661 179.796ZM476.662 209.099C472.312 210.436 467.854 211.164 463.408 211.305L457.988 222.524L437.905 217.879L437.961 205.419C434.029 203.34 430.342 200.729 427.021 197.615L415.258 201.713L404.345 184.228L413.189 175.461C411.849 171.109 411.124 166.651 410.984 162.204L399.764 156.784L404.409 136.704L416.868 136.759C418.948 132.827 421.56 129.141 424.676 125.819L420.574 114.059L438.061 103.141L446.828 111.988C451.18 110.647 455.636 109.923 460.082 109.78L465.505 98.5614L485.586 103.207L485.529 115.667C489.462 117.747 493.145 120.359 496.469 123.471L508.229 119.375L519.145 136.86L510.3 145.625C511.64 149.976 512.366 154.436 512.508 158.881L523.726 164.303L519.081 184.383L506.622 184.328C504.542 188.26 501.932 191.945 498.816 195.268L502.914 207.027L485.43 217.943L476.662 209.099Z" fill="#E0E0E0"/>
<path fill-rule="evenodd" clip-rule="evenodd" d="M521.847 259.928C527.358 256.488 529.038 249.232 525.597 243.72C522.155 238.208 514.898 236.531 509.387 239.971C503.875 243.412 502.198 250.668 505.638 256.179C509.079 261.691 516.335 263.37 521.847 259.928ZM523.977 275.518C521.661 276.23 519.29 276.616 516.925 276.692L514.042 282.66L503.358 280.188L503.386 273.56C501.295 272.454 499.333 271.066 497.566 269.408L491.31 271.59L485.503 262.287L490.209 257.623C489.495 255.308 489.109 252.935 489.035 250.57L483.066 247.686L485.538 237.004L492.165 237.032C493.271 234.94 494.661 232.982 496.319 231.212L494.138 224.956L503.439 219.148L508.103 223.855C510.419 223.142 512.79 222.756 515.155 222.68L518.041 216.711L528.723 219.183L528.694 225.812C530.785 226.919 532.746 228.308 534.513 229.964L540.769 227.784L546.577 237.087L541.871 241.75C542.585 244.064 542.971 246.438 543.045 248.803L549.014 251.686L546.542 262.37L539.914 262.34C538.809 264.431 537.419 266.392 535.762 268.16L537.942 274.415L528.641 280.223L523.977 275.518Z" fill="#EBEBEB"/>
<path d="M114.819 157.535C114.954 157.671 108.702 164.076 100.857 171.839C93.0085 179.603 86.5392 185.786 86.4032 185.65C86.2685 185.514 92.5192 179.11 100.369 171.344C108.213 163.583 114.685 157.399 114.819 157.535Z" fill="#E0E0E0"/>
<path d="M114.886 185.581C114.752 185.719 108.252 179.565 100.369 171.841C92.4836 164.113 86.2022 157.741 86.3356 157.604C86.4702 157.467 92.9702 163.617 100.856 171.345C108.738 179.069 115.021 185.444 114.886 185.581Z" fill="#E0E0E0"/>
<path d="M143.095 334.981C143.075 335.173 135.097 334.486 125.279 333.45C115.457 332.413 107.513 331.418 107.535 331.229C107.555 331.037 115.531 331.724 125.352 332.76C135.171 333.796 143.115 334.79 143.095 334.981Z" fill="#E0E0E0"/>
<path d="M141.681 348.374C141.661 348.566 133.682 347.879 123.865 346.843C114.042 345.806 106.099 344.811 106.119 344.622C106.139 344.431 114.115 345.117 123.937 346.153C133.755 347.189 141.701 348.183 141.681 348.374Z" fill="#E0E0E0"/>
<path d="M45.5321 305.589C45.5321 305.589 34.9748 304.83 35.9468 328.514C36.9175 352.2 39.3348 364.816 39.3348 364.816C39.3348 364.816 39.0241 370.066 34.9561 369.037C30.8895 368.006 23.2375 362.894 19.4588 366.716C15.5401 370.677 16.9335 376.756 22.1321 383.913C27.3308 391.072 38.1441 407.173 39.1161 408.633C40.0708 410.065 40.4535 412.753 37.5708 412.494C34.6881 412.236 15.2268 405.64 12.6495 415.061C10.0721 424.484 27.8321 442.048 29.7361 444.005C31.6415 445.961 31.7428 447.197 30.9708 448.381C30.1975 449.564 23.8655 446.73 18.2535 445.082C12.6415 443.433 5.84546 442.505 4.81346 448.064C3.78279 453.625 11.6041 469.897 40.8975 487.001L54.9895 494.037L68.3281 485.529C95.7628 465.582 101.919 448.609 100.336 443.178C98.7534 437.749 92.0841 439.353 86.6655 441.556C81.2468 443.758 75.2295 447.21 74.3415 446.11C73.4548 445.009 73.4334 443.769 75.1321 441.63C76.8321 439.494 92.7454 420.242 89.2388 411.125C85.7321 402.008 67.0295 410.518 64.1855 411.064C61.3415 411.609 61.4548 408.897 62.2615 407.377C63.0828 405.828 72.2321 388.725 76.6881 381.081C81.1441 373.44 81.9228 367.253 77.6268 363.702C73.4854 360.28 66.3841 366.129 62.4401 367.562C58.4961 368.996 57.6615 363.8 57.6615 363.8C57.6615 363.8 58.8041 351.006 57.4015 327.342C56.0001 303.678 45.3175 305.589 45.3175 305.589" fill="#EBEBEB"/>
<path d="M46.3661 326.803C46.3661 326.803 46.3941 326.969 46.4221 327.297C46.4501 327.648 46.4875 328.131 46.5355 328.751C46.6235 330.055 46.7515 331.935 46.9141 334.344C47.2381 339.203 47.6541 346.233 48.1341 354.925C49.0995 372.308 50.2288 396.332 51.3875 422.868C52.5461 449.412 53.6155 473.44 54.4835 490.825C54.9248 499.499 55.2821 506.528 55.5315 511.413C55.6515 513.825 55.7448 515.707 55.8101 517.011C55.8355 517.633 55.8541 518.116 55.8675 518.468C55.8781 518.796 55.8701 518.965 55.8701 518.965C55.8701 518.965 55.8408 518.799 55.8128 518.472C55.7861 518.121 55.7488 517.639 55.7008 517.019C55.6128 515.715 55.4848 513.835 55.3221 511.427C54.9981 506.568 54.5835 499.537 54.1035 490.845C53.1368 473.463 52.0075 449.437 50.8488 422.891C49.6901 396.356 48.6208 372.331 47.7528 354.945C47.3101 346.272 46.9528 339.243 46.7048 334.356C46.5848 331.944 46.4915 330.063 46.4261 328.757C46.4008 328.136 46.3821 327.652 46.3675 327.3C46.3581 326.972 46.3661 326.803 46.3661 326.803Z" fill="#E0E0E0"/>
<path d="M29.8745 374.296C29.9012 374.269 30.2118 374.531 30.7518 375.027C31.2932 375.519 32.0545 376.255 32.9865 377.173C34.8465 379.016 37.3478 381.628 40.0532 384.561C42.7012 387.459 45.0945 390.077 46.9452 392.103C47.7678 392.995 48.4678 393.755 49.0425 394.379C49.5412 394.913 49.8038 395.223 49.7772 395.251C49.7518 395.276 49.4385 395.019 48.8945 394.527C48.3532 394.033 47.5918 393.296 46.6692 392.367C44.8265 390.505 42.3612 387.861 39.6558 384.928C36.9892 382.052 34.5785 379.451 32.7132 377.439C31.8852 376.551 31.1812 375.795 30.6025 375.173C30.1092 374.635 29.8478 374.323 29.8745 374.296Z" fill="#E0E0E0"/>
<path d="M51.1757 394.784C51.0691 394.68 56.2237 389.283 62.6851 382.731C69.1491 376.177 74.4744 370.951 74.5811 371.056C74.6864 371.16 69.5344 376.556 63.0691 383.111C56.6077 389.661 51.2824 394.889 51.1757 394.784Z" fill="#E0E0E0"/>
<path d="M51.1173 435.622C51.1 435.59 51.4506 435.368 52.1 434.996C52.852 434.575 53.772 434.058 54.856 433.45C57.1813 432.143 60.388 430.327 63.8533 428.198C67.324 426.074 70.4 424.044 72.6173 422.56C73.6506 421.871 74.5293 421.286 75.2466 420.807C75.8706 420.396 76.2266 420.184 76.2493 420.214C76.2706 420.244 75.956 420.515 75.3693 420.978C74.7826 421.439 73.92 422.094 72.836 422.874C70.6706 424.442 67.6173 426.527 64.1346 428.656C60.6586 430.794 57.4133 432.563 55.036 433.786C53.8453 434.394 52.876 434.872 52.196 435.183C51.5173 435.498 51.1346 435.655 51.1173 435.622Z" fill="#E0E0E0"/>
<path d="M27.7717 421.331C27.7904 421.299 28.1371 421.463 28.7464 421.789C29.3557 422.113 30.2291 422.598 31.3011 423.207C33.4464 424.426 36.3917 426.142 39.6264 428.067C42.8624 429.991 45.7771 431.759 47.8717 433.063C48.9197 433.714 49.7624 434.249 50.3397 434.63C50.9157 435.01 51.2251 435.235 51.2064 435.267C51.1877 435.301 50.8411 435.135 50.2317 434.81C49.6224 434.485 48.7491 434.001 47.6771 433.39C45.5317 432.171 42.5864 430.455 39.3504 428.53C36.1157 426.606 33.2011 424.839 31.1064 423.535C30.0584 422.885 29.2157 422.349 28.6384 421.969C28.0624 421.587 27.7531 421.362 27.7717 421.331Z" fill="#E0E0E0"/>
<path d="M23.1401 457.375C23.1588 457.343 23.5988 457.559 24.3801 457.975C25.2481 458.454 26.3481 459.061 27.6601 459.785C30.4174 461.333 34.2081 463.503 38.3774 465.929C42.5494 468.355 46.3094 470.579 49.0188 472.211C50.2961 472.995 51.3668 473.651 52.2121 474.17C52.9601 474.642 53.3641 474.918 53.3454 474.951C53.3268 474.982 52.8868 474.767 52.1068 474.35C51.2374 473.871 50.1388 473.266 48.8268 472.542C46.0694 470.994 42.2788 468.823 38.1068 466.397C33.9374 463.969 30.1761 461.746 27.4681 460.114C26.1908 459.331 25.1188 458.675 24.2748 458.157C23.5268 457.683 23.1214 457.407 23.1401 457.375Z" fill="#E0E0E0"/>
<path d="M52.7419 474.326C52.7232 474.294 53.1605 474.004 53.9672 473.505C54.8632 472.96 56.0139 472.258 57.3925 471.42C60.2832 469.658 64.2685 467.212 68.5925 464.39C72.9232 461.576 76.7752 458.925 79.5539 456.99C80.8792 456.069 81.9859 455.3 82.8472 454.702C83.6285 454.165 84.0699 453.882 84.0925 453.913C84.1152 453.942 83.7139 454.282 82.9712 454.87C82.2285 455.461 81.1392 456.294 79.7752 457.3C77.0525 459.317 73.2259 462.021 68.8872 464.844C64.5539 467.67 60.5299 470.069 57.5859 471.748C56.1125 472.584 54.9112 473.248 54.0712 473.688C53.2325 474.13 52.7605 474.358 52.7419 474.326Z" fill="#E0E0E0"/>
<path d="M73.9214 498.648H34.9348L47.6601 594.969H61.1974L73.9214 498.648Z" fill="#E0E0E0"/>
<path d="M36.9579 510.487C36.9432 510.497 37.0019 510.625 37.1659 510.83C37.3325 511.035 37.6379 511.301 38.1072 511.503C39.0312 511.905 40.6539 511.938 42.2245 510.998C43.7992 510.129 45.1699 508.423 47.2792 507.67C49.3725 506.871 51.9645 507.015 54.4485 507.811C56.9619 508.59 59.1459 509.862 61.1245 511.047C63.1072 512.227 64.9245 513.278 66.5539 513.959C68.1712 514.666 69.5805 514.991 70.5579 515.117C71.0459 515.182 71.4285 515.201 71.6885 515.193C71.9472 515.193 72.0832 515.182 72.0845 515.161C72.1059 515.033 69.8779 515.054 66.7365 513.549C65.1619 512.829 63.3952 511.753 61.4272 510.545C59.4699 509.337 57.2339 508.009 54.6379 507.205C52.0725 506.379 49.3152 506.23 47.0712 507.123C45.9499 507.55 45.0085 508.221 44.2232 508.883C43.4272 509.542 42.7139 510.162 41.9912 510.613C40.5659 511.534 39.0685 511.573 38.1939 511.271C37.2965 510.959 37.0085 510.434 36.9579 510.487Z" fill="#F5F5F5"/>
<path d="M38.382 528.228C38.434 528.26 38.69 527.831 39.2994 527.195C39.9207 526.576 40.938 525.767 42.414 525.219C43.8767 524.657 45.7554 524.324 47.8354 524.403C49.9234 524.475 52.1994 524.933 54.6194 525.327C57.0354 525.733 59.4287 525.915 61.566 525.615C63.7034 525.341 65.5594 524.725 67.0314 524.055C68.5074 523.381 69.6007 522.645 70.318 522.1C71.038 521.555 71.3807 521.189 71.3594 521.164C71.286 521.059 69.7807 522.407 66.8514 523.643C65.39 524.245 63.5714 524.799 61.4954 525.033C59.4194 525.291 57.122 525.101 54.7194 524.7C52.3207 524.311 50.0087 523.86 47.8527 523.816C45.6954 523.768 43.75 524.161 42.2447 524.803C40.726 525.427 39.6994 526.336 39.1167 527.028C38.8354 527.388 38.6314 527.676 38.5274 527.892C38.4127 528.101 38.3634 528.216 38.382 528.228Z" fill="#F5F5F5"/>
<path d="M69.5048 537.726C69.5194 537.696 69.1594 537.452 68.4301 537.167C67.7048 536.88 66.5968 536.587 65.1994 536.475C63.8034 536.364 62.1301 536.454 60.3154 536.754C58.4968 537.048 56.5488 537.55 54.5008 537.984C52.4554 538.416 50.4821 538.706 48.6954 538.642C46.9088 538.579 45.3194 538.188 44.0861 537.643C41.5781 536.542 40.6834 534.939 40.5901 535.04C40.5648 535.056 40.7421 535.458 41.2501 536.059C41.7528 536.659 42.6288 537.426 43.8968 538.051C45.1621 538.674 46.8101 539.128 48.6701 539.226C50.5328 539.327 52.5621 539.043 54.6314 538.607C56.7008 538.168 58.6368 537.651 60.4141 537.331C62.1928 537.006 63.8154 536.872 65.1741 536.923C67.9101 537.015 69.4661 537.842 69.5048 537.726Z" fill="#F5F5F5"/>
<path d="M41.8257 551.084C41.8444 551.186 43.2177 550.217 45.6097 550.702C46.7844 550.914 48.095 551.508 49.571 552.178C51.0404 552.864 52.811 553.449 54.711 553.596C58.5417 553.964 61.9484 552.725 64.0377 551.434C65.107 550.8 65.8537 550.116 66.359 549.649C66.8324 549.145 67.0764 548.853 67.0457 548.824C66.9604 548.729 65.9364 549.882 63.8124 551.045C61.7244 552.201 58.4364 553.316 54.7684 552.961C51.0764 552.752 48.243 550.55 45.6857 550.258C44.4364 550.072 43.395 550.25 42.7444 550.513C42.0844 550.772 41.8057 551.061 41.8257 551.084Z" fill="#F5F5F5"/>
<path d="M43.9969 569.572C43.9969 569.645 45.3049 569.636 47.2476 568.927C49.2076 568.271 51.6329 566.768 54.4663 565.644C55.8863 565.101 57.3116 564.768 58.6076 564.775C59.9049 564.781 61.0636 565.099 61.9396 565.536C63.7303 566.428 64.2489 567.695 64.3476 567.613C64.3769 567.601 64.2969 567.283 63.9783 566.792C63.6636 566.303 63.0663 565.664 62.1516 565.139C61.2396 564.617 60.0116 564.229 58.6169 564.189C57.2196 564.149 55.7129 564.488 54.2396 565.048C51.3036 566.219 48.9556 567.765 47.0836 568.507C45.2343 569.305 43.9823 569.471 43.9969 569.572Z" fill="#F5F5F5"/>
<path d="M45.9084 578.174C45.887 578.254 46.8217 578.59 48.3777 578.975C49.931 579.362 52.1124 579.774 54.547 580.015C56.9844 580.254 59.2044 580.272 60.803 580.196C62.4044 580.12 63.3857 579.974 63.3804 579.891C63.371 579.699 59.4297 579.868 54.6097 579.382C49.7897 578.92 45.9564 577.987 45.9084 578.174Z" fill="#F5F5F5"/>
<path d="M268.247 151.439C243.875 109.33 189.45 88.8219 142.106 100.033C94.7616 111.243 56.5683 151.026 42.6083 197.634C28.6496 244.242 37.5336 296.153 61.9163 338.255C86.2989 380.358 125.166 413.002 168.734 434.658C283.435 491.671 442.536 489.886 534.208 400.426C553.766 381.342 582.443 358.65 587.87 321.855C593.851 281.282 577.394 254.297 552.227 230.357C519.466 199.191 470.074 209.226 433.783 219.023C397.495 228.822 363.304 247.455 332.399 226.059" fill="#EBEBEB"/>
<path d="M593.358 593.418C593.358 593.612 460.671 593.766 297.031 593.766C133.335 593.766 0.67627 593.612 0.67627 593.418C0.67627 593.226 133.335 593.072 297.031 593.072C460.671 593.072 593.358 593.226 593.358 593.418Z" fill="#263238"/>
<path d="M168.14 176.618C168.14 176.618 171.771 154.872 172.635 153.216C173.499 151.561 183.525 141.396 184.707 141.185C185.889 140.974 201.691 136.014 200.816 138.48C199.943 140.945 188.859 144.27 188.859 144.27L187.807 145.594C187.807 145.594 197.277 142.513 199.632 142.59C201.8 142.664 202.185 144.914 200.492 145.564C198.8 146.213 190.448 148.646 190.14 149.168C189.829 149.689 199.435 146.946 200.64 146.997C202.264 147.066 203.443 149.122 201.783 149.82C200.807 150.232 191.52 152.362 191.52 152.362C191.52 152.362 199.272 151.456 200.144 151.692C201.573 152.078 201.452 153.812 199.883 154.228C198.804 154.512 193.132 154.756 191.689 155.142C191.689 155.142 190.619 156.058 190.657 158.93C190.696 161.802 186.964 169.456 186.964 169.456L168.14 176.618Z" fill="#FFBE9D"/>
<path d="M200.805 138.529C200.866 138.59 200.07 139.469 198.48 140.549C197.685 141.085 196.689 141.661 195.522 142.172C194.345 142.613 193.042 143.061 191.673 143.536C190.66 143.88 189.682 144.21 188.758 144.524L188.916 144.428C185.904 147.433 183.645 149.537 183.522 149.43C183.4 149.322 185.453 147.033 188.405 143.96L188.465 143.897L188.564 143.862C189.476 143.544 190.441 143.205 191.442 142.854C192.78 142.401 194.057 141.969 195.272 141.557C196.41 141.098 197.397 140.588 198.205 140.121C199.82 139.181 200.73 138.446 200.805 138.529Z" fill="#EB996E"/>
<path d="M411.316 415.497L196.089 393.325C189.505 392.646 184.719 386.759 185.397 380.177L222.673 18.3326C223.636 8.98192 231.997 2.18324 241.348 3.1459L446.553 24.2859C455.904 25.2486 462.704 33.6099 461.74 42.9606L424.464 404.803C423.787 411.387 417.899 416.175 411.316 415.497Z" fill="#4285F4"/>
<g opacity="0.399994">
<g opacity="0.399994">
<path opacity="0.399994" d="M411.316 415.497L196.089 393.325C189.505 392.646 184.719 386.759 185.397 380.177L222.673 18.3326C223.636 8.98192 231.997 2.18324 241.348 3.1459L446.553 24.2859C455.904 25.2486 462.704 33.6099 461.74 42.9606L424.464 404.803C423.787 411.387 417.899 416.175 411.316 415.497Z" fill="black"/>
</g>
</g>
<path d="M389.6 413.26L174.372 391.086C167.788 390.409 163.001 384.522 163.68 377.94L200.956 16.0955C201.918 6.74485 210.28 -0.053835 219.63 0.908832L424.837 22.0488C434.186 23.0115 440.986 31.3728 440.022 40.7235L402.746 402.566C402.069 409.15 396.182 413.937 389.6 413.26Z" fill="#4285F4"/>
<path d="M276.479 350.394L202.265 342.748C200.493 342.566 199.203 340.98 199.386 339.207L202.395 310.003C202.577 308.231 204.162 306.942 205.935 307.124L280.149 314.77C281.922 314.952 283.211 316.536 283.029 318.311L280.019 347.515C279.838 349.287 278.253 350.576 276.479 350.394Z" fill="#4285F4"/>
<g opacity="0.399994">
<g opacity="0.399994">
<path opacity="0.399994" d="M276.479 350.394L202.265 342.748C200.493 342.566 199.203 340.98 199.386 339.207L202.395 310.003C202.577 308.231 204.162 306.942 205.935 307.124L280.149 314.77C281.922 314.952 283.211 316.536 283.029 318.311L280.019 347.515C279.838 349.287 278.253 350.576 276.479 350.394Z" fill="black"/>
</g>
</g>
<path d="M412.076 142.59L207.687 121.534L215.946 41.3596L420.335 62.4156L412.076 142.59Z" fill="#FAFAFA"/>
<path d="M412.076 142.59C412.076 142.59 412.11 142.097 412.199 141.16C412.29 140.21 412.424 138.825 412.6 137.009C412.962 133.358 413.494 127.996 414.18 121.08C415.574 107.256 417.592 87.2369 420.096 62.3916L420.311 62.6556C368.871 57.3836 296.284 49.9436 215.923 41.7063L215.911 41.7049L216.291 41.3956C213.398 69.4356 210.602 96.5276 208.018 121.569L207.72 121.204C266.863 127.36 317.91 132.674 354.188 136.45C372.339 138.36 386.792 139.88 396.724 140.925C401.683 141.454 405.51 141.864 408.114 142.141C409.403 142.284 410.384 142.392 411.063 142.465C411.727 142.541 412.076 142.59 412.076 142.59C412.076 142.59 411.752 142.572 411.1 142.51C410.431 142.446 409.459 142.353 408.186 142.232C405.596 141.974 401.788 141.597 396.856 141.108C386.938 140.106 372.503 138.652 354.378 136.824C318.035 133.118 266.899 127.906 207.652 121.866L207.32 121.833L207.355 121.501C209.931 96.4583 212.716 69.3663 215.6 41.3249L215.635 40.9796L215.982 41.0143L215.995 41.0156C296.347 49.3356 368.926 56.8503 420.36 62.1756L420.6 62.2009L420.575 62.4409C417.955 87.3356 415.843 107.396 414.386 121.246C413.651 128.134 413.08 133.476 412.691 137.112C412.495 138.905 412.346 140.274 412.243 141.213C412.14 142.133 412.076 142.59 412.076 142.59Z" fill="#263238"/>
<path d="M244.218 192.718L214.998 189.707C213.474 189.551 212.364 188.187 212.522 186.662L215.532 157.443C215.69 155.918 217.052 154.809 218.578 154.967L247.796 157.977C249.322 158.134 250.431 159.497 250.274 161.022L247.263 190.242C247.107 191.766 245.743 192.875 244.218 192.718Z" fill="#4285F4"/>
<g opacity="0.399994">
<g opacity="0.399994">
<path opacity="0.399994" d="M244.218 192.718L214.998 189.707C213.474 189.551 212.364 188.187 212.522 186.662L215.532 157.443C215.69 155.918 217.052 154.809 218.578 154.967L247.796 157.977C249.322 158.134 250.431 159.497 250.274 161.022L247.263 190.242C247.107 191.766 245.743 192.875 244.218 192.718Z" fill="black"/>
</g>
</g>
<path d="M238.853 192.165L209.634 189.156C208.109 188.998 207 187.634 207.158 186.109L210.168 156.89C210.325 155.365 211.688 154.257 213.213 154.414L242.432 157.424C243.957 157.581 245.066 158.944 244.909 160.469L241.898 189.689C241.742 191.213 240.378 192.322 238.853 192.165Z" fill="#263238"/>
<path d="M229.245 166.143L227.753 180.622L224.404 180.276L225.618 168.487L222.722 168.188L222.998 165.5L229.245 166.143Z" fill="white"/>
<path d="M292.662 197.708L263.442 194.699C261.918 194.541 260.809 193.177 260.966 191.652L263.976 162.433C264.134 160.908 265.497 159.8 267.022 159.957L296.241 162.967C297.766 163.124 298.874 164.487 298.718 166.013L295.708 195.232C295.55 196.756 294.188 197.865 292.662 197.708Z" fill="#4285F4"/>
<g opacity="0.399994">
<g opacity="0.399994">
<path opacity="0.399994" d="M292.662 197.708L263.442 194.699C261.918 194.541 260.809 193.177 260.966 191.652L263.976 162.433C264.134 160.908 265.497 159.8 267.022 159.957L296.241 162.967C297.766 163.124 298.874 164.487 298.718 166.013L295.708 195.232C295.55 196.756 294.188 197.865 292.662 197.708Z" fill="black"/>
</g>
</g>
<path d="M287.298 197.155L258.078 194.146C256.554 193.989 255.444 192.625 255.602 191.099L258.612 161.881C258.77 160.355 260.132 159.247 261.658 159.405L290.876 162.414C292.402 162.571 293.51 163.935 293.354 165.461L290.343 194.679C290.186 196.205 288.823 197.313 287.298 197.155Z" fill="#263238"/>
<path d="M281.713 183.421L281.432 186.152L270.49 185.025L270.714 182.853L276.844 178.153C278.25 177.065 278.554 176.344 278.626 175.641C278.744 174.504 278.026 173.76 276.497 173.602C275.256 173.474 274.15 173.842 273.348 174.742L271.069 172.918C272.353 171.4 274.49 170.553 277.097 170.821C280.322 171.153 282.304 173.032 282.033 175.657C281.888 177.064 281.362 178.306 279.142 179.978L275.488 182.78L281.713 183.421Z" fill="white"/>
<path d="M342.884 202.882L313.665 199.873C312.138 199.715 311.03 198.351 311.189 196.826L314.197 167.607C314.356 166.082 315.718 164.974 317.244 165.131L346.464 168.141C347.988 168.298 349.096 169.661 348.94 171.186L345.929 200.406C345.772 201.93 344.409 203.039 342.884 202.882Z" fill="#4285F4"/>
<g opacity="0.399994">
<g opacity="0.399994">
<path opacity="0.399994" d="M342.884 202.882L313.665 199.873C312.138 199.715 311.03 198.351 311.189 196.826L314.197 167.607C314.356 166.082 315.718 164.974 317.244 165.131L346.464 168.141C347.988 168.298 349.096 169.661 348.94 171.186L345.929 200.406C345.772 201.93 344.409 203.039 342.884 202.882Z" fill="black"/>
</g>
</g>
<path d="M337.519 202.329L308.3 199.32C306.775 199.163 305.666 197.799 305.824 196.273L308.832 167.055C308.991 165.529 310.354 164.421 311.879 164.579L341.099 167.588C342.623 167.745 343.731 169.108 343.575 170.633L340.564 199.853C340.407 201.377 339.044 202.487 337.519 202.329Z" fill="#263238"/>
<path d="M331.985 186.886C331.735 189.327 329.623 191.366 325.508 190.942C323.48 190.734 321.448 189.961 320.143 188.822L321.711 186.391C322.721 187.331 324.203 187.966 325.713 188.121C327.388 188.294 328.493 187.718 328.615 186.539C328.728 185.442 327.991 184.677 326.088 184.481L324.557 184.323L324.785 182.11L328.112 179.046L321.948 178.411L322.225 175.722L332.36 176.766L332.136 178.938L328.484 182.323C331.049 183.006 332.205 184.755 331.985 186.886Z" fill="white"/>
<path d="M393.105 208.056L363.886 205.045C362.361 204.889 361.252 203.525 361.41 202L364.418 172.781C364.577 171.256 365.94 170.146 367.465 170.305L396.685 173.314C398.209 173.472 399.317 174.834 399.161 176.36L396.15 205.58C395.993 207.104 394.63 208.213 393.105 208.056Z" fill="#4285F4"/>
<g opacity="0.399994">
<g opacity="0.399994">
<path opacity="0.399994" d="M393.105 208.056L363.886 205.045C362.361 204.889 361.252 203.525 361.41 202L364.418 172.781C364.577 171.256 365.94 170.146 367.465 170.305L396.685 173.314C398.209 173.472 399.317 174.834 399.161 176.36L396.15 205.58C395.993 207.104 394.63 208.213 393.105 208.056Z" fill="black"/>
</g>
</g>
<path d="M387.863 207.503L358.643 204.494C357.117 204.336 356.009 202.972 356.167 201.447L359.176 172.228C359.335 170.703 360.697 169.595 362.223 169.752L391.441 172.762C392.965 172.919 394.075 174.282 393.917 175.807L390.907 205.027C390.751 206.551 389.388 207.66 387.863 207.503Z" fill="#263238"/>
<path d="M382.579 189.517L367.066 187.918L367.202 186.591L382.715 188.19L382.579 189.517Z" fill="white"/>
<path d="M378.101 181.549C377.96 182.939 376.717 183.948 375.328 183.805C373.938 183.661 372.929 182.42 373.073 181.031C373.216 179.641 374.457 178.632 375.846 178.775C377.236 178.919 378.244 180.16 378.101 181.549Z" fill="white"/>
<path d="M376.708 195.077C376.565 196.467 375.323 197.476 373.935 197.333C372.545 197.189 371.535 195.948 371.679 194.559C371.821 193.171 373.064 192.16 374.453 192.303C375.841 192.447 376.851 193.688 376.708 195.077Z" fill="white"/>
<path d="M238.975 243.61L209.756 240.6C208.231 240.443 207.121 239.079 207.28 237.554L210.289 208.335C210.447 206.81 211.809 205.702 213.335 205.859L242.555 208.868C244.079 209.026 245.188 210.388 245.031 211.914L242.02 241.134C241.864 242.658 240.5 243.767 238.975 243.61Z" fill="#4285F4"/>
<g opacity="0.399994">
<g opacity="0.399994">
<path opacity="0.399994" d="M238.975 243.61L209.756 240.6C208.231 240.443 207.121 239.079 207.28 237.554L210.289 208.335C210.447 206.81 211.809 205.702 213.335 205.859L242.555 208.868C244.079 209.026 245.188 210.388 245.031 211.914L242.02 241.134C241.864 242.658 240.5 243.767 238.975 243.61Z" fill="black"/>
</g>
</g>
<path d="M233.61 243.057L204.392 240.048C202.866 239.89 201.757 238.526 201.916 237.001L204.925 207.782C205.082 206.257 206.445 205.149 207.97 205.306L237.19 208.316C238.714 208.473 239.824 209.836 239.666 211.362L236.656 240.581C236.5 242.106 235.136 243.214 233.61 243.057Z" fill="#263238"/>
<path d="M227.052 228.909L224.692 228.666L224.38 231.706L221.112 231.37L221.426 228.329L213.628 227.526L213.859 225.271L221.632 216.791L225.147 217.154L217.922 225.209L221.81 225.609L222.088 222.901L225.252 223.226L224.974 225.935L227.334 226.178L227.052 228.909Z" fill="white"/>
<path d="M287.419 248.601L258.199 245.59C256.675 245.434 255.566 244.07 255.723 242.545L258.734 213.326C258.891 211.801 260.254 210.691 261.779 210.85L290.998 213.859C292.523 214.017 293.631 215.379 293.475 216.905L290.465 246.125C290.307 247.649 288.945 248.758 287.419 248.601Z" fill="#4285F4"/>
<g opacity="0.399994">
<g opacity="0.399994">
<path opacity="0.399994" d="M287.419 248.601L258.199 245.59C256.675 245.434 255.566 244.07 255.723 242.545L258.734 213.326C258.891 211.801 260.254 210.691 261.779 210.85L290.998 213.859C292.523 214.017 293.631 215.379 293.475 216.905L290.465 246.125C290.307 247.649 288.945 248.758 287.419 248.601Z" fill="black"/>
</g>
</g>
<path d="M282.055 248.048L252.835 245.037C251.311 244.881 250.202 243.517 250.359 241.992L253.37 212.773C253.527 211.248 254.89 210.14 256.415 210.297L285.634 213.307C287.159 213.464 288.268 214.827 288.111 216.352L285.1 245.572C284.943 247.096 283.58 248.205 282.055 248.048Z" fill="#263238"/>
<path d="M275.058 232.329C274.794 234.893 272.682 236.933 268.545 236.507C266.538 236.301 264.487 235.523 263.183 234.386L264.771 231.958C265.781 232.899 267.242 233.53 268.751 233.686C270.427 233.858 271.534 233.261 271.655 232.082C271.773 230.945 271.105 230.123 268.478 229.853L264.777 229.471L266.361 221.399L275.193 222.309L274.915 224.998L268.875 224.377L268.363 227.102L269.543 227.223C273.825 227.665 275.322 229.765 275.058 232.329Z" fill="white"/>
<path d="M337.64 253.774L308.421 250.765C306.896 250.607 305.788 249.243 305.945 247.718L308.955 218.499C309.112 216.974 310.476 215.866 312.001 216.023L341.22 219.033C342.744 219.19 343.853 220.553 343.696 222.079L340.685 251.298C340.529 252.823 339.167 253.931 337.64 253.774Z" fill="#4285F4"/>
<g opacity="0.399994">
<g opacity="0.399994">
<path opacity="0.399994" d="M337.64 253.774L308.421 250.765C306.896 250.607 305.788 249.243 305.945 247.718L308.955 218.499C309.112 216.974 310.476 215.866 312.001 216.023L341.22 219.033C342.744 219.19 343.853 220.553 343.696 222.079L340.685 251.298C340.529 252.823 339.167 253.931 337.64 253.774Z" fill="black"/>
</g>
</g>
<path d="M332.277 253.222L303.057 250.211C301.531 250.055 300.423 248.691 300.581 247.166L303.59 217.947C303.749 216.422 305.111 215.312 306.637 215.47L335.855 218.48C337.379 218.638 338.489 220 338.331 221.526L335.321 250.746C335.165 252.27 333.802 253.379 332.277 253.222Z" fill="#263238"/>
<path d="M323.032 237.416C323.169 236.092 322.283 235.144 320.793 234.991C319.327 234.84 318.197 235.643 318.067 236.906C317.94 238.147 318.779 239.152 320.391 239.318C321.817 239.466 322.896 238.74 323.032 237.416ZM326.296 237.586C325.992 240.543 323.38 242.155 320.319 241.84C316.328 241.428 314.104 238.671 314.585 233.996C315.101 228.991 318.407 226.51 322.773 226.959C324.301 227.116 325.755 227.622 326.703 228.368L325.208 230.702C324.457 230.08 323.545 229.798 322.572 229.698C320.153 229.448 318.453 230.716 318.067 233.476C319.001 232.716 320.267 232.408 321.776 232.563C324.568 232.851 326.577 234.855 326.296 237.586" fill="white"/>
<path d="M387.863 258.948L358.643 255.938C357.117 255.781 356.009 254.417 356.167 252.892L359.176 223.673C359.335 222.148 360.697 221.04 362.223 221.197L391.441 224.206C392.965 224.364 394.075 225.726 393.917 227.252L390.907 256.472C390.751 257.996 389.388 259.105 387.863 258.948Z" fill="#4285F4"/>
<g opacity="0.399994">
<g opacity="0.399994">
<path opacity="0.399994" d="M387.863 258.948L358.643 255.938C357.117 255.781 356.009 254.417 356.167 252.892L359.176 223.673C359.335 222.148 360.697 221.04 362.223 221.197L391.441 224.206C392.965 224.364 394.075 225.726 393.917 227.252L390.907 256.472C390.751 257.996 389.388 259.105 387.863 258.948Z" fill="black"/>
</g>
</g>
<path d="M382.498 258.395L353.278 255.386C351.753 255.228 350.645 253.864 350.802 252.339L353.812 223.12C353.97 221.595 355.333 220.487 356.858 220.644L386.077 223.654C387.601 223.811 388.71 225.174 388.553 226.7L385.544 255.919C385.386 257.444 384.024 258.552 382.498 258.395Z" fill="#263238"/>
<path d="M363.966 244.869L363.14 243.822L375.39 234.17L376.216 235.217L363.966 244.869Z" fill="white"/>
<path d="M374.082 245.989L364.24 233.891L365.275 233.049L375.115 245.148L374.082 245.989Z" fill="white"/>
<path d="M233.775 294.088L204.555 291.078C203.031 290.922 201.922 289.558 202.079 288.032L205.09 258.814C205.247 257.288 206.61 256.179 208.135 256.338L237.354 259.347C238.879 259.504 239.987 260.867 239.831 262.392L236.82 291.612C236.664 293.136 235.3 294.246 233.775 294.088Z" fill="#4285F4"/>
<g opacity="0.399994">
<g opacity="0.399994">
<path opacity="0.399994" d="M233.775 294.088L204.555 291.078C203.031 290.922 201.922 289.558 202.079 288.032L205.09 258.814C205.247 257.288 206.61 256.179 208.135 256.338L237.354 259.347C238.879 259.504 239.987 260.867 239.831 262.392L236.82 291.612C236.664 293.136 235.3 294.246 233.775 294.088Z" fill="black"/>
</g>
</g>
<path d="M228.41 293.536L199.19 290.525C197.666 290.369 196.557 289.005 196.714 287.48L199.725 258.261C199.882 256.736 201.245 255.628 202.77 255.785L231.989 258.794C233.514 258.952 234.624 260.314 234.466 261.84L231.456 291.06C231.3 292.584 229.936 293.693 228.41 293.536Z" fill="#263238"/>
<path d="M221.107 267.75L220.884 269.922L214.236 281.674L210.596 281.3L216.998 270.086L212.2 269.592L211.958 271.949L208.979 271.642L209.503 266.556L221.107 267.75Z" fill="white"/>
<path d="M282.22 299.079L253 296.069C251.476 295.912 250.366 294.548 250.524 293.023L253.533 263.804C253.692 262.279 255.054 261.171 256.58 261.328L285.798 264.337C287.324 264.495 288.432 265.857 288.276 267.384L285.265 296.603C285.108 298.127 283.745 299.236 282.22 299.079Z" fill="#4285F4"/>
<g opacity="0.399994">
<g opacity="0.399994">
<path opacity="0.399994" d="M282.22 299.079L253 296.069C251.476 295.912 250.366 294.548 250.524 293.023L253.533 263.804C253.692 262.279 255.054 261.171 256.58 261.328L285.798 264.337C287.324 264.495 288.432 265.857 288.276 267.384L285.265 296.603C285.108 298.127 283.745 299.236 282.22 299.079Z" fill="black"/>
</g>
</g>
<path d="M276.855 298.526L247.635 295.516C246.111 295.36 245.002 293.996 245.159 292.47L248.168 263.25C248.327 261.726 249.69 260.617 251.215 260.774L280.434 263.785C281.959 263.942 283.067 265.305 282.911 266.83L279.9 296.049C279.743 297.574 278.38 298.682 276.855 298.526Z" fill="#263238"/>
<path d="M263.288 276.172C263.176 277.268 263.975 278.04 265.34 278.181C266.727 278.324 267.684 277.733 267.797 276.637C267.915 275.5 267.076 274.722 265.709 274.582C264.367 274.444 263.405 275.034 263.288 276.172ZM267.62 282.826C267.752 281.544 266.779 280.649 265.103 280.477C263.448 280.306 262.333 280.985 262.201 282.268C262.068 283.55 263.019 284.464 264.675 284.634C266.349 284.808 267.488 284.109 267.62 282.826ZM271 283.28C270.719 286.009 268.101 287.474 264.421 287.096C260.76 286.718 258.517 284.752 258.799 282.022C258.957 280.47 259.884 279.396 261.343 278.836C260.335 278.062 259.84 276.986 259.973 275.684C260.235 273.14 262.676 271.781 265.964 272.12C269.295 272.464 271.404 274.29 271.143 276.836C271.009 278.138 270.283 279.088 269.14 279.638C270.475 280.486 271.16 281.728 271 283.28" fill="white"/>
<path d="M332.441 304.253L303.222 301.242C301.696 301.085 300.588 299.722 300.745 298.197L303.754 268.977C303.913 267.453 305.276 266.344 306.801 266.501L336.021 269.512C337.545 269.669 338.653 271.032 338.496 272.557L335.486 301.776C335.329 303.301 333.966 304.409 332.441 304.253Z" fill="#4285F4"/>
<g opacity="0.399994">
<g opacity="0.399994">
<path opacity="0.399994" d="M332.441 304.253L303.222 301.242C301.696 301.085 300.588 299.722 300.745 298.197L303.754 268.977C303.913 267.453 305.276 266.344 306.801 266.501L336.021 269.512C337.545 269.669 338.653 271.032 338.496 272.557L335.486 301.776C335.329 303.301 333.966 304.409 332.441 304.253Z" fill="black"/>
</g>
</g>
<path d="M327.076 303.7L297.856 300.689C296.332 300.533 295.223 299.17 295.38 297.644L298.391 268.425C298.548 266.9 299.911 265.792 301.436 265.949L330.656 268.958C332.18 269.116 333.288 270.478 333.132 272.005L330.122 301.224C329.964 302.748 328.602 303.857 327.076 303.7Z" fill="#263238"/>
<path d="M317.527 282.135C317.655 280.895 316.817 279.889 315.224 279.725C313.797 279.578 312.72 280.302 312.583 281.626C312.445 282.95 313.332 283.898 314.821 284.051C316.289 284.203 317.396 283.398 317.527 282.135ZM321.009 285.045C320.495 290.05 317.209 292.533 312.824 292.081C311.293 291.923 309.86 291.421 308.913 290.675L310.408 288.342C311.137 288.961 312.051 289.243 313.043 289.346C315.441 289.593 317.161 288.327 317.551 285.545C316.616 286.306 315.329 286.633 313.819 286.477C311.025 286.19 309.016 284.186 309.297 281.455C309.603 278.497 312.215 276.885 315.276 277.199C319.288 277.614 321.492 280.37 321.009 285.045" fill="white"/>
<path d="M382.662 309.426L353.444 306.415C351.917 306.258 350.809 304.895 350.968 303.37L353.976 274.151C354.134 272.626 355.497 271.517 357.022 271.675L386.242 274.685C387.766 274.842 388.874 276.205 388.718 277.73L385.708 306.95C385.55 308.474 384.188 309.582 382.662 309.426Z" fill="#4285F4"/>
<g opacity="0.399994">
<g opacity="0.399994">
<path opacity="0.399994" d="M382.662 309.426L353.444 306.415C351.917 306.258 350.809 304.895 350.968 303.37L353.976 274.151C354.134 272.626 355.497 271.517 357.022 271.675L386.242 274.685C387.766 274.842 388.874 276.205 388.718 277.73L385.708 306.95C385.55 308.474 384.188 309.582 382.662 309.426Z" fill="black"/>
</g>
</g>
<path d="M377.298 308.873L348.079 305.864C346.554 305.706 345.444 304.344 345.603 302.818L348.611 273.598C348.77 272.074 350.132 270.965 351.658 271.122L380.878 274.132C382.402 274.29 383.51 275.653 383.354 277.178L380.343 306.397C380.186 307.921 378.823 309.03 377.298 308.873Z" fill="#263238"/>
<path d="M372.166 291.46L356.653 289.863L356.789 288.536L372.302 290.133L372.166 291.46Z" fill="white"/>
<path d="M327.195 355.171L297.976 352.162C296.451 352.004 295.343 350.642 295.5 349.116L298.509 319.896C298.667 318.371 300.029 317.263 301.556 317.42L330.775 320.43C332.299 320.588 333.408 321.951 333.251 323.476L330.24 352.695C330.084 354.22 328.72 355.328 327.195 355.171Z" fill="#4285F4"/>
<g opacity="0.399994">
<g opacity="0.399994">
<path opacity="0.399994" d="M327.195 355.171L297.976 352.162C296.451 352.004 295.343 350.642 295.5 349.116L298.509 319.896C298.667 318.371 300.029 317.263 301.556 317.42L330.775 320.43C332.299 320.588 333.408 321.951 333.251 323.476L330.24 352.695C330.084 354.22 328.72 355.328 327.195 355.171Z" fill="black"/>
</g>
</g>
<path d="M321.83 354.619L292.612 351.608C291.086 351.452 289.978 350.088 290.136 348.563L293.145 319.344C293.302 317.819 294.665 316.71 296.19 316.868L325.41 319.878C326.934 320.035 328.044 321.399 327.886 322.924L324.876 352.143C324.72 353.667 323.356 354.776 321.83 354.619Z" fill="#263238"/>
<path d="M377.416 360.345L348.197 357.335C346.672 357.177 345.563 355.815 345.721 354.289L348.731 325.071C348.888 323.545 350.252 322.436 351.777 322.595L380.996 325.604C382.52 325.761 383.629 327.124 383.472 328.649L380.461 357.869C380.305 359.393 378.941 360.501 377.416 360.345Z" fill="#4285F4"/>
<g opacity="0.399994">
<g opacity="0.399994">
<path opacity="0.399994" d="M377.416 360.345L348.197 357.335C346.672 357.177 345.563 355.815 345.721 354.289L348.731 325.071C348.888 323.545 350.252 322.436 351.777 322.595L380.996 325.604C382.52 325.761 383.629 327.124 383.472 328.649L380.461 357.869C380.305 359.393 378.941 360.501 377.416 360.345Z" fill="black"/>
</g>
</g>
<path d="M372.052 359.792L342.833 356.783C341.308 356.626 340.198 355.263 340.357 353.738L343.366 324.518C343.524 322.992 344.888 321.884 346.413 322.042L375.632 325.051C377.156 325.21 378.265 326.572 378.108 328.098L375.097 357.316C374.941 358.84 373.578 359.95 372.052 359.792Z" fill="#455A64"/>
<path d="M367.118 340.464L351.605 338.868L351.741 337.543L367.254 339.139L367.118 340.464Z" fill="white"/>
<path d="M366.51 346.369L350.996 344.773L351.132 343.448L366.646 345.044L366.51 346.369Z" fill="white"/>
<path d="M269.858 349.711L192.632 341.755C190.802 341.567 189.468 339.929 189.658 338.098L192.644 309.106C192.832 307.275 194.471 305.943 196.302 306.131L273.527 314.087C275.359 314.277 276.691 315.913 276.502 317.745L273.515 346.737C273.327 348.569 271.69 349.901 269.858 349.711Z" fill="#263238"/>
<path d="M239.003 327.835C239.342 324.546 238.325 323.062 236.649 322.888C234.995 322.719 233.697 323.964 233.358 327.252C233.019 330.54 234.035 332.027 235.69 332.196C237.365 332.368 238.665 331.123 239.003 327.835ZM229.965 326.904C230.457 322.126 233.385 319.688 236.941 320.055C240.519 320.423 242.866 323.404 242.374 328.182C241.882 332.959 238.977 335.399 235.398 335.03C231.842 334.663 229.473 331.68 229.965 326.904" fill="white"/>
<path d="M308.753 343.566L307.431 343.41L309.268 327.923L310.591 328.079L308.753 343.566Z" fill="white"/>
<path d="M316.7 337.206L301.185 335.609L301.321 334.283L316.836 335.881L316.7 337.206Z" fill="white"/>
<path d="M294.066 90.3143L291.835 111.961L290.815 111.856L292.946 91.1676L287.503 90.6076L287.602 89.6489L294.066 90.3143Z" fill="#263238"/>
<path d="M311.847 113.054L311.749 114.012L297.091 112.502L297.167 111.76L307.407 103.378C310.341 100.992 311.059 99.4711 311.241 97.7098C311.538 94.8325 309.718 92.7698 305.946 92.3818C303.07 92.0845 300.881 92.7045 299.183 94.3098L298.542 93.5578C300.342 91.8671 302.89 91.0978 306.075 91.4258C310.219 91.8538 312.627 94.2578 312.266 97.7511C312.057 99.7938 311.223 101.52 308.086 104.071L298.766 111.706L311.847 113.054Z" fill="#263238"/>
<path d="M329.002 109.726C328.633 113.314 325.834 115.588 321.074 115.098C317.826 114.764 315.078 113.23 313.867 111.324L314.501 110.64C315.606 112.346 318.047 113.817 321.141 114.137C325.285 114.562 327.659 112.745 327.981 109.621C328.306 106.468 326.411 104.241 321.833 103.769L320.627 103.645L320.703 102.902L328.351 94.8143L316.414 93.5849L316.513 92.6263L329.809 93.9969L329.733 94.7383L322.054 102.854C327.125 103.377 329.374 106.109 329.002 109.726Z" fill="#263238"/>
<path d="M350.3 111.671L345.6 111.187L344.956 117.434L343.936 117.328L344.579 111.082L332.147 109.8L332.223 109.059L345.703 95.6337L346.908 95.7577L333.606 109.014L344.675 110.154L345.242 104.648L346.263 104.755L345.696 110.259L350.396 110.743L350.3 111.671Z" fill="#263238"/>
<path d="M354.822 117.512C354.781 117.913 354.661 118.151 354.518 118.636L352.977 122.667L352.174 122.584L353.573 118.415C353.057 118.267 352.726 117.827 352.781 117.301C352.838 116.745 353.318 116.325 353.906 116.387C354.525 116.451 354.873 117.017 354.822 117.512Z" fill="#263238"/>
<path d="M376.273 114.346L371.573 113.862L370.929 120.109L369.909 120.003L370.552 113.757L358.121 112.477L358.197 111.734L371.676 98.3102L372.881 98.4342L359.578 111.689L370.648 112.829L371.214 107.325L372.236 107.43L371.669 112.934L376.369 113.418L376.273 114.346Z" fill="#263238"/>
<path d="M392.341 116.127C391.978 119.652 389.254 122.121 384.337 121.615C381.151 121.287 378.371 119.751 377.162 117.844L377.826 117.163C378.902 118.868 381.374 120.341 384.435 120.656C388.671 121.093 390.974 119.08 391.29 116.019C391.634 112.679 389.858 110.495 383.673 109.859L379.467 109.425L381.663 99.3387L392.826 100.488L392.727 101.447L382.43 100.385L380.647 108.577L383.987 108.923C390.605 109.604 392.735 112.292 392.341 116.127Z" fill="#263238"/>
<path d="M155.831 559.56L147.354 590.904L174.906 593.419L180.695 563.579L155.831 559.56Z" fill="#4285F4"/>
<path d="M175.706 590.865C175.697 590.968 174.154 590.93 171.671 590.728C169.187 590.529 165.769 590.15 162.005 589.668C158.377 589.18 155.095 588.738 152.374 588.374C149.913 588.029 148.39 587.794 148.401 587.686C148.41 587.584 149.953 587.628 152.435 587.836C154.917 588.04 158.337 588.422 162.101 588.905C165.727 589.389 169.009 589.826 171.73 590.189C174.193 590.529 175.715 590.757 175.706 590.865Z" fill="#263238"/>
<g opacity="0.600006">
<g opacity="0.600006">
<path opacity="0.600006" d="M147.354 590.904L174.906 593.419L175.351 591.12L148.151 587.663L147.382 590.593" fill="white"/>
</g>
</g>
<path d="M161.041 589.51C160.868 589.467 162.041 584.091 163.661 577.5C165.281 570.91 166.736 565.603 166.909 565.646C167.083 565.688 165.911 571.064 164.289 577.655C162.669 584.244 161.215 589.552 161.041 589.51Z" fill="#263238"/>
<path d="M174.182 590.662C174.014 590.655 175.061 588.413 174.246 584.835C173.825 583.091 172.91 581.063 171.231 579.381C169.577 577.69 167.097 576.51 164.374 576.231C161.646 575.969 158.989 576.627 156.995 577.909C154.977 579.173 153.589 580.899 152.705 582.467C150.951 585.681 151.122 588.097 150.965 588.057C150.943 588.057 150.93 587.913 150.925 587.639C150.911 587.366 150.934 586.966 150.989 586.447C151.106 585.415 151.453 583.922 152.302 582.249C153.165 580.599 154.57 578.763 156.675 577.406C158.761 576.025 161.567 575.309 164.438 575.587C167.305 575.878 169.925 577.146 171.654 578.962C173.406 580.765 174.313 582.911 174.693 584.738C175.055 586.583 174.929 588.123 174.702 589.137C174.583 589.645 174.471 590.031 174.363 590.285C174.265 590.539 174.203 590.67 174.182 590.662Z" fill="#263238"/>
<path d="M269.487 555.991L267.853 580.675C267.853 580.675 292.421 588.827 292.562 593.418L244.561 593.766L245.53 555.201L269.487 555.991Z" fill="#4285F4"/>
<g opacity="0.600006">
<g opacity="0.600006">
<path opacity="0.600006" d="M253.08 578.148C252.144 578.373 251.471 579.397 251.658 580.342C251.846 581.286 252.882 581.981 253.822 581.772C254.762 581.562 255.607 580.356 255.315 579.44C255.024 578.521 253.763 577.773 252.9 578.202" fill="white"/>
</g>
</g>
<g opacity="0.600006">
<g opacity="0.600006">
<path opacity="0.600006" d="M244.561 593.766L244.81 589.883L291.021 591.159C291.021 591.159 292.562 591.825 292.807 593.766H244.561Z" fill="white"/>
</g>
</g>
<path d="M268.637 580.455C268.622 580.688 267.448 580.76 266.273 581.477C265.078 582.165 264.453 583.161 264.241 583.063C264.026 583.011 264.417 581.62 265.857 580.775C267.286 579.919 268.694 580.241 268.637 580.455Z" fill="#263238"/>
<path d="M273.606 582.688C273.653 582.916 272.626 583.284 271.801 584.251C270.946 585.193 270.713 586.259 270.481 586.241C270.26 586.272 270.138 584.893 271.188 583.712C272.226 582.52 273.608 582.464 273.606 582.688Z" fill="#263238"/>
<path d="M276.281 588.796C276.067 588.84 275.777 587.659 276.417 586.395C277.048 585.125 278.169 584.653 278.261 584.851C278.388 585.047 277.656 585.713 277.145 586.761C276.612 587.795 276.515 588.78 276.281 588.796Z" fill="#263238"/>
<path d="M268.386 574.787C268.28 574.997 267.216 574.643 265.888 574.692C264.562 574.715 263.518 575.128 263.402 574.924C263.271 574.751 264.303 573.913 265.867 573.876C267.43 573.828 268.507 574.607 268.386 574.787Z" fill="#263238"/>
<g opacity="0.300003">
<g opacity="0.300003">
<path opacity="0.300003" d="M269.158 560.879L268.872 565.279L245.299 564.351L245.39 560.382L269.158 560.879Z" fill="black"/>
</g>
</g>
<path d="M268.624 569.801C268.624 569.899 267.693 570.015 266.221 569.717C265.489 569.567 264.629 569.3 263.731 568.868C263.283 568.652 262.825 568.395 262.373 568.095C262.156 567.945 261.899 567.795 261.665 567.507C261.413 567.256 261.284 566.629 261.596 566.259C261.852 565.896 262.291 565.751 262.637 565.753C262.992 565.752 263.276 565.832 263.536 565.905C264.065 566.051 264.561 566.243 265.013 566.463C265.917 566.908 266.647 567.457 267.185 567.984C268.267 569.049 268.62 569.936 268.539 569.979C268.431 570.052 267.911 569.303 266.804 568.417C266.252 567.977 265.544 567.517 264.697 567.145C264.273 566.961 263.816 566.8 263.331 566.677C262.827 566.529 262.395 566.512 262.257 566.735C262.208 566.82 262.201 566.853 262.303 567.004C262.408 567.145 262.609 567.285 262.823 567.435C263.239 567.723 263.659 567.977 264.071 568.197C264.895 568.639 265.687 568.945 266.367 569.159C267.729 569.583 268.632 569.675 268.624 569.801Z" fill="#263238"/>
<path d="M268.308 570.128C268.224 570.161 267.784 569.308 267.745 567.788C267.727 567.035 267.833 566.125 268.152 565.167C268.313 564.691 268.531 564.204 268.808 563.727C269.104 563.263 269.465 562.637 270.377 562.56C270.853 562.557 271.236 562.939 271.361 563.261C271.509 563.591 271.532 563.871 271.581 564.149C271.652 564.712 271.625 565.263 271.533 565.767C271.352 566.784 270.908 567.621 270.432 568.219C269.457 569.433 268.471 569.684 268.453 569.603C268.379 569.484 269.209 569.056 269.963 567.883C270.335 567.305 270.672 566.539 270.791 565.649C270.852 565.207 270.859 564.735 270.789 564.26C270.729 563.747 270.551 563.329 270.359 563.377C270.12 563.365 269.703 563.737 269.493 564.137C269.235 564.56 269.025 564.993 268.86 565.423C268.532 566.28 268.376 567.105 268.321 567.805C268.213 569.212 268.437 570.097 268.308 570.128Z" fill="#263238"/>
<path d="M165.408 171.523C165.408 171.523 160.206 199.925 156.025 217.112C152.778 230.459 144.37 255.476 159.584 262.744C174.797 270.012 195.257 240.687 195.257 240.687L203.938 173.843C197.89 174.973 191.045 181.983 183.752 192.289L185.076 166.933L165.408 171.523Z" fill="#455A64"/>
<path d="M374.772 213.478L366.766 217.294L359.404 205.739L363.709 196.818C364.118 195.99 364.554 195.06 365.014 193.995C365.549 192.751 365.864 191.42 365.964 190.07C366.082 188.435 366.156 186.255 365.834 185.05C365.437 183.562 367.013 182.34 368.084 183.21C369.154 184.078 370.349 188.152 369.554 193.067C368.758 197.98 374.482 192.767 376.601 190.906C378.72 189.043 385.536 183.596 386.606 183.808C388.177 184.119 388.133 185.903 385.976 187.712C383.792 189.544 377.717 195.414 378.724 196.508C378.724 196.508 378.741 196.51 378.773 196.512C381.33 196.78 383.429 198.674 383.994 201.182C384.538 203.604 384.98 206.946 383.618 208.048C381.053 210.127 374.772 213.478 374.772 213.478Z" fill="#FFBE9D"/>
<path d="M219.647 105.713L219.435 175.196L249.244 176.619L250.105 159.717C250.105 159.717 260.693 161.82 263.425 151.987C265.171 145.705 264.735 97.1613 264.735 97.1613L219.647 105.713Z" fill="#FFBE9D"/>
<path d="M271.465 104.014C269.458 108.166 259.896 115.763 259.896 115.763L255.577 127.339C251.825 124.402 246.788 124.57 245.834 131.162C245.145 135.927 251.069 136.89 251.069 136.89C247.62 142.758 245.281 147.505 240.261 153.086C234.826 159.126 231.782 159.737 225.889 159.834H219.39C219.39 159.834 206.093 148.723 208.721 119.457C211.35 90.1901 237.66 98.7288 243.94 91.4168C254.168 79.5075 278.168 90.1541 271.465 104.014Z" fill="#263238"/>
<path d="M210.199 143.926C210.199 143.926 210.487 143.917 211.031 143.926C211.573 143.898 212.38 143.877 213.391 143.654C215.404 143.254 218.259 142.076 221.025 139.612C223.82 137.174 226.283 133.462 228.767 129.253C230.028 127.154 231.349 124.938 232.947 122.79C234.544 120.654 236.429 118.56 238.797 116.961C241.157 115.346 243.817 114.398 246.396 113.722C248.987 113.049 251.532 112.634 253.933 112.168C258.727 111.284 263.035 109.945 265.971 107.668C268.913 105.416 270.381 102.617 270.843 100.628C271.105 99.6262 271.105 98.8155 271.128 98.2742C271.1 97.7315 271.099 97.4448 271.099 97.4448C271.099 97.4448 271.137 97.7275 271.184 98.2742C271.179 98.8168 271.196 99.6368 270.948 100.653C270.513 102.672 269.055 105.522 266.089 107.822C263.131 110.152 258.783 111.518 253.981 112.418C251.576 112.894 249.037 113.313 246.465 113.985C243.903 114.661 241.276 115.602 238.952 117.19C236.621 118.764 234.755 120.834 233.164 122.953C231.575 125.084 230.253 127.29 228.985 129.385C226.489 133.589 223.993 137.316 221.155 139.76C218.347 142.226 215.449 143.39 213.412 143.761C212.389 143.969 211.576 143.973 211.031 143.982C210.484 143.954 210.199 143.926 210.199 143.926Z" fill="#455A64"/>
<path d="M208.664 120.122C208.664 120.122 209.135 119.94 210.046 119.636C210.956 119.345 212.308 118.877 214.13 118.665C215.911 118.462 218.332 118.542 220.524 120.046C221.588 120.785 222.551 121.964 222.806 123.454C223.064 124.9 222.742 126.653 221.492 127.809C220.876 128.38 220.026 128.704 219.155 128.748C218.275 128.789 217.395 128.504 216.608 128.066C215.044 127.162 213.783 125.604 213.2 123.75C212.578 121.917 212.471 119.84 212.942 117.829C213.404 115.82 214.515 113.886 216.154 112.445C217.774 110.992 219.89 109.988 222.167 109.754C224.452 109.51 226.768 110.012 229.02 110.641C231.28 111.273 233.552 112.004 235.947 112.301C238.335 112.622 240.8 112.634 243.252 112.318C245.698 111.981 248.111 111.401 250.282 110.374C252.423 109.362 254.371 107.688 254.992 105.438C255.612 103.233 255.026 100.721 253.427 99.1876C251.834 97.6249 249.299 97.4169 247.406 98.2956C246.452 98.7302 245.632 99.4582 245.183 100.377C244.704 101.285 244.584 102.336 244.706 103.322C244.967 105.313 246.156 107.085 247.739 108.097C249.331 109.13 251.194 109.522 252.948 109.562C254.716 109.609 256.407 109.288 257.95 108.812C261.055 107.856 263.532 106.116 265.35 104.304C267.192 102.493 268.384 100.576 269.172 98.9436C269.983 97.3116 270.314 95.9249 270.572 95.0062C270.754 94.0662 270.863 93.5729 270.863 93.5729C270.863 93.5729 270.791 94.0716 270.627 95.0182C270.386 95.9449 270.07 97.3409 269.27 98.9902C268.492 100.638 267.306 102.577 265.459 104.413C263.638 106.25 261.147 108.02 258.008 108.998C256.448 109.486 254.74 109.817 252.944 109.776C251.162 109.741 249.256 109.35 247.612 108.29C245.972 107.245 244.74 105.422 244.463 103.354C244.335 102.326 244.458 101.222 244.96 100.264C245.434 99.2902 246.302 98.5182 247.299 98.0636C249.276 97.1422 251.92 97.3502 253.611 98.9956C255.29 100.609 255.896 103.212 255.254 105.512C254.603 107.87 252.582 109.592 250.402 110.624C248.188 111.67 245.76 112.252 243.288 112.594C240.811 112.913 238.322 112.9 235.911 112.574C233.49 112.273 231.195 111.534 228.947 110.902C226.703 110.274 224.424 109.781 222.195 110.017C219.978 110.242 217.908 111.218 216.324 112.636C213.052 115.466 212.192 120.116 213.419 123.678C213.982 125.486 215.203 126.998 216.715 127.88C217.472 128.304 218.315 128.578 219.148 128.542C219.972 128.502 220.776 128.201 221.36 127.662C222.548 126.578 222.878 124.882 222.632 123.485C222.394 122.049 221.471 120.904 220.435 120.173C218.299 118.689 215.912 118.586 214.14 118.772C212.332 118.966 210.978 119.416 210.062 119.689C209.147 119.976 208.664 120.122 208.664 120.122Z" fill="#455A64"/>
<path d="M189.015 309.269L149.332 569.902L182.289 574.085L228.793 355.474L240.503 575.554L276.224 574.93L270.303 309.881L189.015 309.269Z" fill="#263238"/>
<path d="M229.192 350.4L241.134 574.875L275.542 574.275L269.65 310.542L189.586 309.939L150.093 569.325L181.765 573.347L229.192 350.4ZM239.872 576.232L239.837 575.589L228.396 360.545L182.814 574.823L148.57 570.477L188.442 308.597L270.954 309.219L276.906 575.586L239.872 576.232Z" fill="#263238"/>
<path d="M265.609 574.512C265.417 574.512 265.262 522.291 265.262 457.888C265.262 393.463 265.417 341.253 265.609 341.253C265.801 341.253 265.956 393.463 265.956 457.888C265.956 522.291 265.801 574.512 265.609 574.512Z" fill="#455A64"/>
<path d="M175.04 573.563C175.028 573.56 175.056 573.368 175.12 572.995C175.193 572.591 175.293 572.044 175.421 571.344C175.708 569.862 176.12 567.734 176.645 565.01C177.756 559.482 179.351 551.542 181.319 541.746C185.32 522.112 190.989 495.02 197.496 465.15C204.008 435.27 210.125 408.272 214.655 388.755C216.941 379.028 218.793 371.146 220.084 365.656C220.737 362.962 221.249 360.856 221.605 359.387C221.78 358.698 221.917 358.158 222.017 357.76C222.115 357.396 222.169 357.21 222.181 357.212C222.193 357.215 222.161 357.407 222.087 357.778C222.003 358.179 221.888 358.723 221.741 359.42C221.415 360.894 220.947 363.01 220.347 365.718C219.108 371.218 217.329 379.116 215.133 388.864C210.727 408.41 204.685 435.422 198.175 465.298C191.668 495.164 185.924 522.239 181.799 541.846C179.74 551.623 178.072 559.546 176.911 565.064C176.329 567.776 175.875 569.895 175.559 571.372C175.401 572.067 175.279 572.61 175.189 573.01C175.101 573.378 175.052 573.566 175.04 573.563Z" fill="#455A64"/>
<path d="M240.503 355.243C240.504 355.291 239.968 355.36 238.996 355.441C237.875 355.521 236.5 355.619 234.877 355.733C231.4 355.965 226.592 356.204 221.311 356.72C216.029 357.248 211.268 357.955 207.812 358.408C206.199 358.612 204.831 358.787 203.716 358.929C202.747 359.037 202.207 359.075 202.199 359.028C202.192 358.98 202.717 358.852 203.675 358.66C204.631 358.469 206.019 358.216 207.737 357.923C211.176 357.344 215.935 356.559 221.243 356.031C226.551 355.511 231.371 355.349 234.855 355.243C236.597 355.196 238.009 355.171 238.984 355.172C239.96 355.172 240.501 355.195 240.503 355.243Z" fill="#455A64"/>
<path d="M270.994 338.317C271 338.359 270.64 338.469 269.968 338.575C269.299 338.685 268.312 338.762 267.092 338.705C264.671 338.606 261.243 337.789 258.176 335.587C255.111 333.382 253.243 330.393 252.379 328.129C251.935 326.991 251.694 326.032 251.583 325.362C251.471 324.692 251.459 324.315 251.502 324.307C251.624 324.282 251.852 325.77 252.83 327.938C253.787 330.091 255.647 332.911 258.582 335.022C261.518 337.13 264.783 337.995 267.13 338.215C269.496 338.451 270.979 338.193 270.994 338.317Z" fill="#455A64"/>
<path d="M182.23 314.382L273.527 314.087L268.534 253.834C267.981 240.047 268.063 238.402 267.723 225.674C267.723 225.674 280.685 241.345 290.877 252.334C297.035 258.975 306.799 260.83 314.986 256.958L368.329 219.745L358.341 194.194L309.866 223.866C307.646 222.487 288.77 195.566 275.729 182.421C267.383 174.007 256.127 169.165 244.282 168.819C235.315 168.558 224.495 168.974 214.834 170.001C200.143 171.563 188.649 183.362 187.414 198.085C186.47 209.351 187.23 222.43 187.23 244.659L182.23 314.382Z" fill="#455A64"/>
<path d="M186.521 204.178C186.521 204.178 186.536 204.42 186.536 204.882C186.532 205.422 186.528 206.088 186.522 206.899C186.497 208.65 186.5 211.186 186.518 214.316C186.552 220.58 186.806 229.231 187.076 238.786C187.346 248.344 187.397 257.007 187.157 263.271C187.048 266.402 186.909 268.935 186.762 270.681C186.696 271.489 186.641 272.154 186.597 272.692C186.557 273.152 186.521 273.392 186.521 273.392C186.521 273.392 186.518 273.149 186.541 272.688C186.572 272.149 186.609 271.483 186.654 270.675C186.769 268.928 186.877 266.395 186.961 263.264C187.15 257.004 187.069 248.35 186.798 238.792C186.529 229.239 186.305 220.584 186.322 214.318C186.328 211.184 186.356 208.65 186.414 206.898C186.441 206.087 186.462 205.42 186.48 204.88C186.497 204.419 186.521 204.178 186.521 204.178Z" fill="#263238"/>
<path d="M307.867 232.491C307.829 232.485 307.905 232.005 308.06 231.235C308.213 230.466 308.445 229.406 308.717 228.239C308.991 227.073 309.252 226.019 309.455 225.261C309.657 224.503 309.801 224.039 309.839 224.05C309.875 224.061 309.797 224.542 309.644 225.311C309.491 226.081 309.26 227.138 308.988 228.302C308.716 229.466 308.455 230.517 308.252 231.274C308.049 232.033 307.904 232.498 307.867 232.491Z" fill="#263238"/>
<path d="M312.727 233.239C312.651 233.256 312.098 231.105 311.489 228.437C310.881 225.768 310.449 223.591 310.523 223.573C310.597 223.556 311.151 225.707 311.759 228.376C312.369 231.044 312.802 233.221 312.727 233.239Z" fill="#263238"/>
<path d="M269.974 227.935C269.974 227.935 269.795 227.785 269.474 227.478C269.099 227.113 268.639 226.666 268.082 226.125C266.879 224.942 265.141 223.227 263.071 221.031C261.01 218.83 258.607 216.146 256.262 212.909C253.925 209.678 251.649 205.865 250.069 201.519C248.466 197.187 247.782 192.746 248.027 188.746C248.209 184.758 248.967 181.158 250.322 178.435C251.65 175.694 253.466 173.925 254.807 172.919C255.491 172.419 256.037 172.057 256.433 171.85C256.817 171.627 257.026 171.522 257.026 171.522C257.054 171.567 256.202 171.971 254.874 173.005C253.561 174.03 251.789 175.801 250.499 178.521C249.182 181.223 248.45 184.791 248.282 188.758C248.054 192.726 248.738 197.122 250.329 201.425C251.899 205.738 254.154 209.533 256.47 212.759C258.793 215.991 261.175 218.682 263.215 220.898C265.263 223.107 266.979 224.843 268.158 226.049C268.701 226.605 269.149 227.063 269.514 227.438C269.822 227.758 269.974 227.935 269.974 227.935Z" fill="#263238"/>
<path d="M210.627 203.144C210.477 203.263 209.074 201.744 207.494 199.752C205.914 197.758 204.755 196.047 204.906 195.927C205.057 195.808 206.459 197.327 208.039 199.32C209.618 201.312 210.778 203.026 210.627 203.144Z" fill="#FAFAFA"/>
<path d="M231.377 226.694C231.513 226.83 229.575 228.98 227.051 231.499C224.527 234.019 222.371 235.95 222.237 235.814C222.101 235.678 224.037 233.527 226.562 231.007C229.085 228.49 231.241 226.558 231.377 226.694Z" fill="#FAFAFA"/>
<path d="M251.457 260.488C251.261 260.548 250.529 258.487 249.175 256.189C247.836 253.883 246.399 252.235 246.547 252.093C246.667 251.961 248.383 253.445 249.773 255.84C251.179 258.224 251.632 260.448 251.457 260.488Z" fill="#FAFAFA"/>
<path d="M199.401 256.661C199.239 256.733 197.927 253.831 197.261 249.987C196.577 246.145 196.824 242.971 197 242.983C197.207 242.985 197.273 246.103 197.945 249.867C198.596 253.634 199.596 256.59 199.401 256.661Z" fill="#FAFAFA"/>
<path d="M227.044 271.542C226.882 271.613 225.815 269.163 225.535 265.915C225.234 262.667 225.85 260.069 226.022 260.109C226.227 260.138 225.934 262.709 226.226 265.853C226.495 268.999 227.24 271.477 227.044 271.542Z" fill="#FAFAFA"/>
<path d="M216.112 293.166C216.011 293.328 213.203 291.756 209.841 289.655C206.479 287.554 203.836 285.719 203.939 285.556C204.04 285.394 206.847 286.966 210.209 289.067C213.571 291.167 216.213 293.003 216.112 293.166Z" fill="#FAFAFA"/>
<path d="M259.097 286.769C259.182 286.955 256.087 288.492 252.502 290.764C248.906 293.023 246.187 295.155 246.057 294.997C245.937 294.864 248.487 292.467 252.131 290.177C255.765 287.875 259.027 286.604 259.097 286.769Z" fill="#FAFAFA"/>
<path d="M205.031 311.209C204.994 311.398 201.982 310.955 198.306 310.221C194.627 309.487 191.677 308.739 191.715 308.551C191.753 308.363 194.763 308.806 198.442 309.539C202.118 310.274 205.069 311.021 205.031 311.209Z" fill="#FAFAFA"/>
<path d="M233.85 306.517C233.714 306.637 232.064 304.908 230.676 302.331C229.276 299.761 228.73 297.435 228.904 297.387C229.096 297.324 229.923 299.499 231.287 302C232.636 304.509 234.007 306.389 233.85 306.517Z" fill="#FAFAFA"/>
<path d="M266.279 308.775C266.425 308.899 265.496 310.253 264.203 311.802C262.909 313.351 261.741 314.506 261.593 314.382C261.447 314.259 262.376 312.906 263.669 311.357C264.964 309.807 266.132 308.653 266.279 308.775Z" fill="#FAFAFA"/>
<path d="M206.963 217.12C207.07 217.28 205.879 218.261 204.304 219.313C202.73 220.365 201.366 221.088 201.259 220.928C201.154 220.769 202.343 219.786 203.919 218.734C205.494 217.684 206.856 216.96 206.963 217.12Z" fill="#FAFAFA"/>
<path d="M229.466 191.983C229.29 192.043 228.103 189.005 227.066 185.123C226.022 181.243 225.53 178.019 225.714 177.983C225.906 177.945 226.699 181.087 227.736 184.945C228.767 188.802 229.652 191.922 229.466 191.983Z" fill="#FAFAFA"/>
<path d="M251.074 214.868C250.992 215.055 249.045 214.307 246.545 213.838C244.046 213.351 241.962 213.328 241.954 213.124C241.936 212.946 244.081 212.652 246.676 213.156C249.272 213.646 251.157 214.708 251.074 214.868Z" fill="#FAFAFA"/>
<path d="M265.928 195.427C265.959 195.602 263.659 196.037 260.84 195.594C258.017 195.169 255.955 194.063 256.037 193.905C256.116 193.715 258.228 194.501 260.945 194.907C263.659 195.335 265.909 195.222 265.928 195.427Z" fill="#FAFAFA"/>
<path d="M281.126 217.112C280.946 217.114 280.834 213.791 281.494 209.76C282.141 205.726 283.294 202.608 283.465 202.667C283.659 202.726 282.817 205.892 282.181 209.871C281.529 213.846 281.329 217.118 281.126 217.112Z" fill="#FAFAFA"/>
<path d="M298.981 242.647C298.843 242.78 296.719 240.814 294.238 238.254C291.757 235.694 289.857 233.51 289.994 233.376C290.131 233.243 292.255 235.21 294.737 237.771C297.218 240.33 299.119 242.514 298.981 242.647Z" fill="#FAFAFA"/>
<path d="M313.843 240.687C314.003 240.791 312.931 242.741 311.447 245.044C309.963 247.347 308.629 249.129 308.469 249.025C308.307 248.921 309.378 246.971 310.865 244.668C312.347 242.365 313.682 240.583 313.843 240.687Z" fill="#FAFAFA"/>
<path d="M331.075 232.286C330.903 232.37 329.615 230.073 328.2 227.156C326.783 224.238 325.775 221.806 325.948 221.722C326.12 221.638 327.408 223.934 328.824 226.853C330.239 229.77 331.248 232.204 331.075 232.286Z" fill="#FAFAFA"/>
<path d="M354.548 222.576C354.514 222.765 351.772 222.436 348.422 221.84C345.073 221.244 342.385 220.608 342.418 220.419C342.452 220.231 345.193 220.56 348.544 221.156C351.893 221.752 354.581 222.387 354.548 222.576Z" fill="#FAFAFA"/>
<path d="M168.14 247.542C167.967 247.461 169.076 244.741 170.616 241.469C172.159 238.194 173.548 235.607 173.721 235.689C173.895 235.771 172.787 238.49 171.245 241.765C169.704 245.037 168.313 247.625 168.14 247.542Z" fill="#FAFAFA"/>
<path d="M180.582 225.597C180.439 225.725 178.631 223.945 176.543 221.624C174.454 219.3 172.878 217.313 173.02 217.184C173.163 217.056 174.971 218.836 177.059 221.158C179.147 223.481 180.724 225.469 180.582 225.597Z" fill="#FAFAFA"/>
<path d="M179.55 260.844C179.673 260.991 178.749 261.961 177.488 263.011C176.225 264.06 175.102 264.789 174.98 264.643C174.857 264.495 175.781 263.525 177.044 262.476C178.305 261.427 179.428 260.696 179.55 260.844Z" fill="#FAFAFA"/>
<path d="M183.751 202.275C183.901 202.395 183.341 203.345 182.501 204.394C181.661 205.445 180.858 206.199 180.707 206.081C180.558 205.961 181.118 205.011 181.958 203.961C182.799 202.911 183.602 202.157 183.751 202.275Z" fill="#FAFAFA"/>
<g opacity="0.300003">
<g opacity="0.300003">
<path opacity="0.300003" d="M253.436 208.338C259.074 226.058 263.429 244.657 269.068 262.376L267.724 225.674C262.494 220.852 257.741 215.057 253.436 208.338Z" fill="black"/>
</g>
</g>
<path d="M161.692 231.523C161.684 231.519 161.742 231.37 161.864 231.087C162.022 230.73 162.2 230.327 162.406 229.858C162.881 228.793 163.593 227.263 164.497 225.385C166.304 221.625 168.925 216.489 172.061 210.949C175.201 205.41 178.261 200.522 180.556 197.039C181.704 195.298 182.649 193.899 183.32 192.946C183.614 192.527 183.869 192.167 184.094 191.849C184.274 191.599 184.373 191.471 184.381 191.477C184.388 191.482 184.305 191.621 184.141 191.881C183.929 192.207 183.688 192.578 183.41 193.006C182.701 194.098 181.8 195.486 180.721 197.146C178.469 200.654 175.441 205.553 172.302 211.086C169.17 216.619 166.525 221.735 164.674 225.47C163.804 227.247 163.077 228.735 162.505 229.905C162.28 230.363 162.086 230.761 161.914 231.11C161.777 231.385 161.701 231.527 161.692 231.523Z" fill="#263238"/>
<path d="M170.687 214.553C170.7 214.597 170.124 214.783 169.231 215.166C168.338 215.549 167.136 216.155 165.92 216.999C164.706 217.847 163.718 218.762 163.05 219.467C162.38 220.171 162.004 220.646 161.968 220.618C161.952 220.607 162.031 220.477 162.187 220.25C162.34 220.022 162.584 219.707 162.904 219.335C163.543 218.589 164.526 217.634 165.762 216.773C166.998 215.914 168.236 215.323 169.158 214.985C169.619 214.814 169.998 214.694 170.266 214.63C170.532 214.562 170.682 214.534 170.687 214.553Z" fill="#263238"/>
<path d="M171.942 187.203C172.096 187.315 170.282 190.091 167.887 193.4C165.494 196.712 163.426 199.304 163.271 199.191C163.115 199.079 164.93 196.306 167.326 192.994C169.719 189.683 171.786 187.091 171.942 187.203Z" fill="#FAFAFA"/>
<path d="M181.57 165.513C182.847 165.921 184.213 165.029 184.958 163.913C185.702 162.799 186.047 161.464 186.71 160.297C188.691 156.812 193.198 155.295 195.01 151.717C195.263 151.219 195.418 150.524 194.985 150.172C194.582 149.845 193.987 150.067 193.525 150.297C189.566 152.28 185.607 154.263 181.647 156.245" fill="#FFBE9D"/>
<path d="M181.647 156.245C181.623 156.199 182.059 155.925 182.866 155.471C183.673 155.016 184.851 154.38 186.314 153.609C187.842 152.817 189.578 151.917 191.473 150.936C191.961 150.687 192.459 150.432 192.969 150.172C193.461 149.967 194.013 149.479 194.905 149.708C195.343 149.843 195.631 150.335 195.629 150.735C195.645 151.136 195.534 151.477 195.391 151.796C195.087 152.384 194.746 152.932 194.321 153.436C192.626 155.457 190.498 156.684 188.935 158.147C188.142 158.865 187.471 159.625 186.998 160.429C186.523 161.233 186.211 162.087 185.842 162.843C185.17 164.404 183.979 165.409 183.029 165.628C182.059 165.875 181.541 165.529 181.57 165.513C181.581 165.437 182.101 165.655 182.937 165.347C183.778 165.049 184.765 164.14 185.355 162.62C185.682 161.877 185.963 161.007 186.453 160.117C186.942 159.228 187.647 158.397 188.459 157.635C190.066 156.091 192.175 154.832 193.734 152.956C194.125 152.495 194.443 151.979 194.707 151.477C194.949 150.981 194.941 150.468 194.65 150.405C194.345 150.287 193.798 150.56 193.293 150.819C192.781 151.071 192.278 151.317 191.786 151.56C189.865 152.488 188.103 153.339 186.554 154.088C185.061 154.799 183.845 155.36 182.998 155.735C182.15 156.108 181.671 156.292 181.647 156.245Z" fill="#EB996E"/>
<path d="M469.411 534.109H553.804V522.515H469.411V534.109Z" fill="#263238"/>
<path d="M469.556 533.965H553.66V522.659H469.556V533.965ZM553.948 534.255H469.267V522.369H553.948V534.255Z" fill="#263238"/>
<path d="M477.235 530.25L489.382 590.178H534.33L546.072 534.11L477.235 530.25Z" fill="#263238"/>
<path d="M477.235 584.511L483.714 593.419H538.346L546.072 584.511H477.235Z" fill="#455A64"/>
<path d="M508.438 532C508.272 532.002 508.06 504.238 507.964 469.998C507.866 435.746 507.922 407.986 508.089 407.986C508.254 407.986 508.468 435.743 508.565 469.995C508.661 504.236 508.604 532 508.438 532Z" fill="#263238"/>
<path d="M527.238 462.523C527.256 462.532 527.176 462.755 527.011 463.168C526.814 463.64 526.563 464.235 526.258 464.965C526.09 465.361 525.906 465.792 525.707 466.26C525.532 466.749 525.344 467.273 525.146 467.835C524.94 468.403 524.723 469.005 524.494 469.644C524.268 470.284 524.091 470.984 523.871 471.705C522.948 474.581 522.215 478.111 521.51 482.037C520.895 485.984 520.434 490.353 520.203 494.959C519.792 504.179 520.314 512.541 520.871 518.561C521.142 521.576 521.415 524.011 521.615 525.692C521.702 526.48 521.772 527.121 521.828 527.631C521.871 528.075 521.882 528.309 521.862 528.313C521.842 528.316 521.79 528.087 521.71 527.648C521.623 527.143 521.515 526.505 521.383 525.723C521.111 524.051 520.772 521.619 520.447 518.605C519.78 512.581 519.19 504.195 519.602 494.931C519.835 490.304 520.316 485.911 520.963 481.945C521.704 478 522.484 474.459 523.464 471.58C523.699 470.857 523.891 470.16 524.132 469.519C524.378 468.884 524.611 468.283 524.83 467.717C525.047 467.16 525.252 466.637 525.442 466.151C525.651 465.677 525.863 465.256 526.043 464.872C526.392 464.159 526.676 463.576 526.902 463.116C527.103 462.717 527.218 462.513 527.238 462.523Z" fill="#263238"/>
<path d="M525.079 440.068C525.099 440.076 525.006 440.391 524.811 440.984C524.592 441.626 524.3 442.486 523.934 443.566C523.736 444.13 523.522 444.751 523.287 445.426C523.078 446.118 522.851 446.867 522.607 447.667C522.115 449.274 521.543 451.099 521.035 453.154C520.764 454.178 520.482 455.25 520.187 456.364C519.934 457.49 519.67 458.662 519.396 459.874C518.807 462.291 518.382 464.916 517.838 467.658C516.907 473.172 516.088 479.267 515.523 485.699C514.991 492.134 514.758 498.282 514.676 503.875C514.66 509.471 514.73 514.511 514.96 518.738C515.035 520.852 515.17 522.763 515.279 524.439C515.376 526.119 515.482 527.563 515.588 528.743C515.675 529.879 515.744 530.786 515.795 531.462C515.835 532.084 515.847 532.412 515.827 532.415C515.806 532.418 515.755 532.094 515.675 531.475C515.596 530.8 515.49 529.898 515.355 528.763C515.214 527.588 515.072 526.144 514.943 524.466C514.803 522.787 514.638 520.876 514.535 518.76C514.251 514.53 514.136 509.479 514.122 503.872C514.172 498.264 514.39 492.099 514.924 485.647C515.491 479.2 516.33 473.087 517.292 467.56C517.852 464.814 518.298 462.183 518.91 459.763C519.196 458.551 519.472 457.379 519.738 456.251C520.046 455.136 520.34 454.066 520.624 453.042C521.16 450.988 521.763 449.166 522.288 447.566C522.548 446.768 522.791 446.024 523.016 445.334C523.27 444.663 523.5 444.047 523.712 443.486C524.124 442.423 524.452 441.574 524.698 440.94C524.93 440.362 525.06 440.06 525.079 440.068Z" fill="#263238"/>
<path d="M503.1 536.912C503.089 536.913 503.073 536.803 503.053 536.588C503.032 536.339 503.006 536.024 502.972 535.632C502.912 534.748 502.83 533.519 502.725 531.956C502.521 528.717 502.234 524.108 501.878 518.433C501.145 507.016 500.085 491.244 498.165 473.899C497.184 465.227 496.045 456.992 494.861 449.524C494.233 445.796 493.662 442.249 493.016 438.949C492.421 435.64 491.781 432.575 491.192 429.777C490.637 426.972 490.018 424.46 489.521 422.244C489.033 420.025 488.561 418.127 488.165 416.577C487.793 415.057 487.5 413.861 487.289 412.999C487.201 412.616 487.13 412.309 487.074 412.065C487.03 411.853 487.013 411.744 487.022 411.741C487.032 411.739 487.07 411.843 487.134 412.049C487.205 412.288 487.294 412.592 487.405 412.968C487.642 413.823 487.972 415.011 488.392 416.519C488.822 418.06 489.329 419.952 489.849 422.165C490.378 424.377 491.026 426.884 491.608 429.688C492.224 432.483 492.889 435.548 493.505 438.857C494.174 442.156 494.764 445.705 495.408 449.435C496.624 456.907 497.78 465.151 498.762 473.832C500.685 491.195 501.678 506.983 502.302 518.408C502.613 524.12 502.829 528.747 502.958 531.943C503.017 533.508 503.061 534.74 503.093 535.627C503.102 536.019 503.109 536.335 503.114 536.585C503.116 536.801 503.11 536.912 503.1 536.912Z" fill="#263238"/>
<path d="M507.749 421.332C507.383 417.4 503.408 414.432 499.457 414.392C495.507 414.351 491.827 416.72 489.409 419.846C486.995 422.971 485.663 426.787 484.572 430.583C481.912 439.85 480.457 449.584 481.595 459.159C482.732 468.732 486.616 478.158 493.487 484.922C494.604 486.022 496.051 487.122 497.583 486.795C498.421 486.615 499.108 486.032 499.744 485.459C513.239 473.268 521.032 455.01 520.499 436.831C520.391 433.191 519.913 429.402 517.896 426.368C515.881 423.336 511.181 420.115 507.749 421.332Z" fill="#4285F4"/>
<path d="M478.253 389.829C476.399 393.189 474.545 396.546 472.689 399.905C472.56 400.139 472.389 400.403 472.12 400.425C471.829 400.45 471.611 400.173 471.449 399.927C466.548 392.403 461.644 384.878 456.741 377.354L460.131 375.433L478.253 389.829Z" fill="#4285F4"/>
<g opacity="0.199997">
<g opacity="0.199997">
<path opacity="0.199997" d="M478.253 389.829C476.399 393.189 474.545 396.546 472.689 399.905C472.56 400.139 472.389 400.403 472.12 400.425C471.829 400.45 471.611 400.173 471.449 399.927C466.548 392.403 461.644 384.878 456.741 377.354L460.131 375.433L478.253 389.829Z" fill="black"/>
</g>
</g>
<path d="M508.089 407.985C491.364 398.117 474.639 388.246 457.915 378.378C457.403 378.076 456.848 377.72 456.693 377.146C456.493 376.402 457.051 375.686 457.585 375.134C464.487 368.016 474.509 363.889 484.399 364.601C494.288 365.313 503.799 371.025 508.64 379.678C513.483 388.33 513.643 399.772 508.089 407.985Z" fill="#4285F4"/>
<path d="M465.145 368.928C465.144 368.906 465.371 368.88 465.803 368.845C466.235 368.824 466.875 368.745 467.699 368.754C469.347 368.714 471.744 368.822 474.661 369.306C477.576 369.786 481 370.724 484.576 372.318C488.151 373.905 491.848 376.205 495.219 379.225C498.56 382.277 501.216 385.729 503.152 389.126C505.096 392.528 506.369 395.841 507.136 398.693C507.909 401.546 508.256 403.921 508.381 405.565C508.471 406.385 508.436 406.596 508.456 407.028C508.467 407.461 508.091 408.122 508.069 408.122C508.016 408.125 508.347 407.217 508.148 405.589C507.953 403.962 507.545 401.62 506.728 398.809C505.141 393.222 501.459 385.688 494.815 379.67C488.167 373.661 480.304 370.746 474.585 369.726C471.709 369.192 469.336 369.02 467.697 368.989C466.06 368.953 465.148 368.981 465.145 368.928Z" fill="#263238"/>
<path d="M501.298 387.55C501.326 387.626 500.36 388.074 498.762 388.702C497.162 389.333 494.93 390.138 492.431 390.933C489.931 391.726 487.642 392.357 485.972 392.765C484.303 393.173 483.256 393.365 483.235 393.287C483.214 393.205 484.222 392.867 485.858 392.355C487.707 391.778 489.864 391.103 492.248 390.358C494.623 389.591 496.774 388.898 498.618 388.302C500.25 387.777 501.268 387.47 501.298 387.55Z" fill="#263238"/>
<path d="M493.397 366.326C493.558 366.311 493.914 368.814 493.99 371.923C494.071 375.034 493.843 377.551 493.681 377.545C493.511 377.538 493.47 375.029 493.389 371.939C493.314 368.851 493.227 366.342 493.397 366.326Z" fill="#263238"/>
<path d="M457.476 377.817C457.452 377.739 458.841 377.235 461.12 376.534C463.4 375.831 466.575 374.942 470.115 374.087C473.655 373.235 476.887 372.582 479.235 372.17C481.585 371.757 483.051 371.573 483.064 371.653C483.08 371.735 481.643 372.067 479.319 372.586C476.995 373.105 473.785 373.823 470.255 374.673C466.725 375.523 463.543 376.346 461.236 376.943C458.932 377.539 457.501 377.899 457.476 377.817Z" fill="#263238"/>
<path d="M486.924 412.799C482.609 409.527 478.047 408.881 472.635 409.097C467.224 409.311 461.956 410.959 456.996 413.132C448.535 416.837 440.581 422.3 435.527 430.029C430.471 437.76 428.713 447.993 432.497 456.42C432.875 457.259 433.365 458.136 434.211 458.497C435.101 458.88 436.121 458.583 437.043 458.281C446.665 455.143 456.356 451.975 465.204 447.057C474.052 442.143 482.105 435.309 486.853 426.369C487.992 424.224 488.947 421.925 489.132 419.504C489.319 417.083 488.649 414.508 486.924 412.799Z" fill="#4285F4"/>
<path d="M487.01 411.783C487.015 411.804 486.776 411.9 486.316 412.064C485.796 412.244 485.128 412.475 484.302 412.758C483.856 412.907 483.37 413.07 482.842 413.246C482.312 413.435 481.748 413.672 481.135 413.91C479.918 414.403 478.504 414.894 477.016 415.616C476.262 415.96 475.476 416.318 474.656 416.691C473.838 417.07 473.022 417.532 472.156 417.975C470.412 418.831 468.648 419.924 466.768 421.034C463.08 423.367 459.175 426.175 455.375 429.484C451.607 432.834 448.323 436.348 445.54 439.711C444.2 441.434 442.89 443.044 441.816 444.666C441.27 445.468 440.704 446.219 440.227 446.982C439.752 447.748 439.296 448.482 438.86 449.186C437.954 450.57 437.287 451.91 436.643 453.054C436.33 453.631 436.023 454.16 435.766 454.66C435.524 455.162 435.302 455.624 435.098 456.047C434.71 456.831 434.398 457.466 434.152 457.959C433.931 458.392 433.806 458.618 433.786 458.61C433.767 458.6 433.856 458.362 434.042 457.91C434.259 457.403 434.539 456.754 434.886 455.947C435.076 455.516 435.284 455.044 435.51 454.534C435.752 454.024 436.044 453.484 436.344 452.898C436.963 451.734 437.608 450.372 438.495 448.968C438.924 448.255 439.371 447.508 439.836 446.732C440.308 445.958 440.867 445.196 441.408 444.382C442.47 442.739 443.772 441.106 445.11 439.363C447.887 435.959 451.183 432.406 454.979 429.034C458.806 425.7 462.748 422.884 466.478 420.563C468.376 419.459 470.163 418.374 471.927 417.532C472.803 417.098 473.63 416.642 474.458 416.271C475.287 415.91 476.084 415.56 476.846 415.227C478.354 414.527 479.784 414.059 481.019 413.594C481.639 413.371 482.211 413.148 482.748 412.975C483.283 412.815 483.776 412.67 484.23 412.535C485.072 412.295 485.754 412.099 486.283 411.948C486.755 411.82 487.004 411.763 487.01 411.783Z" fill="#263238"/>
<path d="M453.296 430.038C453.343 430.197 448.643 431.711 442.8 433.419C436.955 435.129 432.18 436.385 432.134 436.226C432.087 436.066 436.786 434.553 442.631 432.843C448.475 431.134 453.25 429.878 453.296 430.038Z" fill="#263238"/>
<path d="M452.865 453.202C452.783 453.204 452.689 451.953 452.635 449.932C452.579 447.909 452.569 445.114 452.656 442.029C452.743 438.944 452.907 436.152 453.076 434.136C453.244 432.12 453.408 430.878 453.489 430.884C453.573 430.89 453.56 432.141 453.501 434.16C453.432 436.376 453.348 439.068 453.257 442.046C453.181 445.022 453.115 447.716 453.06 449.932C453.005 451.952 452.949 453.201 452.865 453.202Z" fill="#263238"/>
<path d="M472.708 443.093C472.543 443.105 472.015 437.425 471.529 430.407C471.044 423.39 470.785 417.691 470.952 417.681C471.117 417.67 471.644 423.347 472.129 430.366C472.615 437.383 472.873 443.081 472.708 443.093Z" fill="#263238"/>
<path d="M448.009 417.129C448.013 417.047 449.298 417.015 451.373 417.028C453.447 417.043 456.313 417.103 459.473 417.208C462.635 417.313 465.497 417.44 467.569 417.564C469.639 417.687 470.921 417.804 470.919 417.887C470.918 417.971 469.634 418.003 467.559 417.989C465.483 417.975 462.618 417.913 459.453 417.809C456.289 417.705 453.425 417.576 451.354 417.453C449.283 417.329 448.005 417.212 448.009 417.129Z" fill="#263238"/>
<path d="M495.639 486.241C495.617 486.241 495.593 486.011 495.567 485.569C495.544 485.064 495.513 484.427 495.479 483.64C495.401 481.964 495.385 479.535 495.449 476.535C495.504 473.533 495.708 469.963 496.068 466.009C496.46 462.059 497.025 457.727 497.835 453.213C498.667 448.704 499.664 444.447 500.691 440.605C501.745 436.773 502.815 433.353 503.821 430.519C504.819 427.681 505.692 425.408 506.353 423.86C506.665 423.135 506.917 422.547 507.116 422.079C507.297 421.675 507.401 421.465 507.421 421.473C507.441 421.481 507.375 421.705 507.229 422.123C507.057 422.6 506.84 423.201 506.572 423.941C505.979 425.512 505.168 427.804 504.224 430.651C503.272 433.493 502.249 436.916 501.225 440.744C500.232 444.579 499.256 448.824 498.427 453.319C497.62 457.815 497.04 462.127 496.62 466.061C496.229 469.999 495.984 473.556 495.875 476.547C495.756 479.539 495.709 481.961 495.712 483.637C495.703 484.423 495.693 485.061 495.688 485.567C495.675 486.008 495.66 486.241 495.639 486.241Z" fill="#263238"/>
<path d="M498.285 453.39C498.342 453.448 497.582 454.292 496.283 455.586C494.985 456.88 493.143 458.619 491.039 460.463C488.935 462.307 486.971 463.907 485.518 465.026C484.065 466.142 483.129 466.784 483.079 466.72C483.026 466.654 483.867 465.895 485.249 464.695C486.79 463.358 488.621 461.767 490.643 460.011C492.649 458.236 494.463 456.631 495.993 455.276C497.363 454.064 498.226 453.328 498.285 453.39Z" fill="#263238"/>
<path d="M514.167 466.183C514.094 466.228 513.299 465.088 512.034 463.231C510.663 461.229 508.961 458.744 507.077 455.995C505.153 453.272 503.415 450.812 502.015 448.829C500.713 446.999 499.919 445.857 499.987 445.805C500.051 445.756 500.965 446.808 502.357 448.575C503.747 450.343 505.609 452.832 507.571 455.652C509.53 458.469 511.218 461.081 512.391 462.999C513.566 464.919 514.235 466.141 514.167 466.183Z" fill="#263238"/>
<path d="M505.847 425.95C505.936 426.088 500.66 429.642 494.064 433.882C487.467 438.123 482.046 441.448 481.957 441.308C481.867 441.168 487.142 437.618 493.74 433.375C500.335 429.135 505.758 425.811 505.847 425.95Z" fill="#263238"/>
<path d="M520.722 442.006C520.606 442.124 517.033 438.822 512.743 434.632C508.451 430.439 505.067 426.946 505.183 426.827C505.299 426.708 508.871 430.01 513.163 434.202C517.454 438.392 520.838 441.886 520.722 442.006Z" fill="#263238"/>
<path d="M524.463 441.683L528.992 441.308C532.207 441.043 535.327 440.091 538.138 438.508C539.527 437.727 540.923 436.961 542.4 436.368C547.999 434.12 554.247 434.523 560.272 434.219C570.107 433.725 579.839 431.239 588.704 426.949C589.215 426.703 589.668 426.324 589.942 425.825C590.874 424.131 589.146 422.621 587.658 421.707C580.028 417.004 572.262 412.243 563.608 409.909C554.956 407.575 545.135 407.971 537.752 413.051C529.086 419.015 525.928 431.265 524.463 441.683Z" fill="#4285F4"/>
<path d="M590.045 425.269C590.034 425.287 589.77 425.163 589.277 424.911C588.734 424.627 588.02 424.253 587.129 423.787C585.269 422.807 582.588 421.363 579.201 419.739C575.813 418.133 571.706 416.319 566.929 415.01C562.172 413.686 556.684 412.995 551.022 413.721C545.386 414.463 540.196 416.657 536.522 419.947C532.825 423.227 530.568 427.187 528.972 430.553C527.381 433.947 526.401 436.835 525.686 438.81C525.352 439.758 525.084 440.517 524.881 441.094C524.692 441.615 524.582 441.886 524.564 441.879C524.544 441.874 524.614 441.59 524.765 441.058C524.942 440.47 525.174 439.698 525.464 438.737C526.112 436.735 527.032 433.819 528.585 430.374C530.145 426.961 532.392 422.914 536.156 419.531C539.9 416.137 545.209 413.878 550.945 413.125C556.701 412.386 562.28 413.11 567.077 414.475C571.897 415.829 576.01 417.695 579.388 419.357C582.762 421.035 585.414 422.539 587.242 423.582C588.112 424.089 588.806 424.497 589.336 424.805C589.81 425.091 590.056 425.25 590.045 425.269Z" fill="#263238"/>
<path d="M579.169 431.112C579.077 431.25 573.153 427.418 565.941 422.555C558.726 417.691 552.954 413.636 553.046 413.499C553.141 413.362 559.062 417.192 566.277 422.056C573.489 426.919 579.261 430.974 579.169 431.112Z" fill="#263238"/>
<path d="M572.851 413.187C572.879 413.319 570.963 413.765 568.539 413.963C566.114 414.164 564.139 414.04 564.14 413.905C564.142 413.763 566.094 413.661 568.488 413.461C570.88 413.268 572.822 413.047 572.851 413.187Z" fill="#263238"/>
<path d="M546.921 409.808C547.064 409.874 546.195 411.232 544.979 412.842C543.763 414.453 542.661 415.706 542.517 415.64C542.375 415.574 543.244 414.216 544.46 412.605C545.676 410.994 546.78 409.741 546.921 409.808Z" fill="#263238"/>
<path d="M552.229 434.601C552.189 434.669 551.09 434.094 549.378 433.057C547.667 432.018 545.355 430.495 542.885 428.702C540.414 426.906 538.235 425.211 536.67 423.969C535.106 422.726 534.159 421.927 534.21 421.859C534.259 421.795 535.295 422.471 536.925 423.629C538.701 424.919 540.855 426.485 543.238 428.215C545.701 430.003 547.962 431.573 549.609 432.698C551.257 433.825 552.274 434.526 552.229 434.601Z" fill="#263238"/>
<path d="M531.132 460.924C526.812 459.784 521.663 463.985 520.772 468.362C519.882 472.741 521.524 477.22 523.446 481.252C527.702 490.18 533.575 498.46 541.31 504.624C549.046 510.788 558.732 514.729 568.623 514.678C566.796 506.197 569.106 497.337 568.088 488.72C567.2 481.198 563.694 474.012 558.311 468.684C552.93 463.356 545.71 459.921 538.18 459.109C535.423 458.81 532.231 458.378 531.132 460.924Z" fill="#4285F4"/>
<path d="M568.623 514.679C568.613 514.697 568.403 514.599 568.009 514.393C567.618 514.18 567.055 513.837 566.393 513.309C565.037 512.279 563.483 510.295 562.127 507.604C561.438 506.267 560.669 504.816 559.917 503.207C559.187 501.595 558.41 499.875 557.594 498.071C556.769 496.269 555.863 494.401 554.738 492.58C553.617 490.753 552.285 488.969 550.807 487.235C547.85 483.761 544.677 480.756 541.926 477.884C539.161 475.024 536.834 472.269 535.154 469.76C533.457 467.26 532.429 465.019 531.845 463.439C531.567 462.644 531.367 462.02 531.267 461.587C531.159 461.156 531.111 460.928 531.133 460.924C531.189 460.908 531.433 461.807 532.063 463.355C532.709 464.893 533.781 467.076 535.505 469.519C537.211 471.972 539.547 474.671 542.323 477.497C545.086 480.339 548.277 483.336 551.265 486.845C552.758 488.597 554.106 490.411 555.239 492.272C556.378 494.132 557.283 496.028 558.097 497.841C558.895 499.653 559.655 501.379 560.37 502.997C561.095 504.597 561.843 506.065 562.505 507.409C563.806 510.107 565.259 512.061 566.543 513.129C567.805 514.217 568.659 514.621 568.623 514.679Z" fill="#263238"/>
<path d="M546.286 507.631C546.206 507.615 546.343 506.501 546.682 504.723C547.021 502.943 547.575 500.501 548.323 497.841C549.074 495.18 549.875 492.808 550.515 491.113C551.154 489.42 551.621 488.399 551.695 488.427C551.775 488.456 551.453 489.528 550.918 491.252C550.382 492.976 549.649 495.356 548.902 498.004C548.157 500.653 547.539 503.065 547.097 504.816C546.653 506.564 546.37 507.648 546.286 507.631Z" fill="#263238"/>
<path d="M567.804 486.81C567.777 486.893 566.621 486.598 564.761 486.11C562.9 485.624 560.331 484.958 557.471 484.314C554.609 483.672 552.001 483.17 550.112 482.812C548.221 482.453 547.052 482.225 547.063 482.138C547.073 482.06 548.267 482.141 550.18 482.392C552.093 482.644 554.727 483.081 557.603 483.726C560.477 484.376 563.044 485.11 564.88 485.702C566.717 486.296 567.829 486.733 567.804 486.81Z" fill="#263238"/>
<path d="M530.256 492.86C530.177 492.844 530.343 491.556 530.724 489.494C531.104 487.433 531.708 484.597 532.515 481.5C533.325 478.402 534.183 475.633 534.859 473.649C535.536 471.664 536.02 470.458 536.096 470.485C536.177 470.51 535.837 471.762 535.265 473.776C534.693 475.788 533.903 478.565 533.097 481.652C532.292 484.737 531.624 487.548 531.139 489.582C530.655 491.617 530.34 492.876 530.256 492.86Z" fill="#263238"/>
<path d="M557.894 468.666C557.877 468.831 552.483 468.394 545.851 467.691C539.215 466.987 533.853 466.283 533.87 466.119C533.887 465.954 539.279 466.39 545.915 467.092C552.547 467.796 557.913 468.5 557.894 468.666Z" fill="#263238"/>
<path d="M553.943 534.062C553.943 534.227 534.987 534.363 511.609 534.363C488.223 534.363 469.27 534.227 469.27 534.062C469.27 533.895 488.223 533.76 511.609 533.76C534.987 533.76 553.943 533.895 553.943 534.062Z" fill="#455A64"/>
<path d="M540.756 558.455C540.756 558.621 527.983 558.756 512.231 558.756C496.475 558.756 483.705 558.621 483.705 558.455C483.705 558.289 496.475 558.155 512.231 558.155C527.983 558.155 540.756 558.289 540.756 558.455Z" fill="#455A64"/>
<path d="M540.26 561.943C540.26 562.11 527.711 562.244 512.232 562.244C496.749 562.244 484.203 562.11 484.203 561.943C484.203 561.778 496.749 561.642 512.232 561.642C527.711 561.642 540.26 561.778 540.26 561.943Z" fill="#455A64"/>
<path d="M541.253 555.581C541.253 555.747 528.043 555.883 511.749 555.883C495.451 555.883 482.243 555.747 482.243 555.581C482.243 555.415 495.451 555.28 511.749 555.28C528.043 555.28 541.253 555.415 541.253 555.581Z" fill="#455A64"/>
<path d="M535.604 41.8331C535.602 42.0251 526.653 42.1331 515.617 42.0745C504.576 42.0158 495.63 41.8118 495.632 41.6211C495.632 41.4291 504.58 41.3211 515.621 41.3798C526.656 41.4385 535.605 41.6411 535.604 41.8331Z" fill="#263238"/>
<path d="M515.82 61.7127C515.628 61.714 515.383 52.7673 515.271 41.7313C515.159 30.6913 515.224 21.7433 515.415 21.7407C515.607 21.7393 515.852 30.6847 515.964 41.7247C516.076 52.7607 516.012 61.7113 515.82 61.7127Z" fill="#263238"/>
<path d="M556.684 340.247C556.598 340.417 551.103 337.785 544.416 334.369C537.726 330.951 532.376 328.043 532.463 327.872C532.55 327.701 538.043 330.332 544.731 333.751C551.419 337.167 556.771 340.076 556.684 340.247Z" fill="#263238"/>
<path d="M538.574 346.264C538.402 346.181 540.948 340.646 544.262 333.906C547.575 327.165 550.4 321.77 550.572 321.854C550.744 321.94 548.199 327.47 544.884 334.213C541.571 340.953 538.746 346.348 538.574 346.264Z" fill="#263238"/>
<path d="M78.0633 246.362C78.134 246.54 71.754 249.251 63.8126 252.416C55.8686 255.583 49.374 258.003 49.3033 257.826C49.2326 257.647 55.6126 254.938 63.5553 251.771C71.4966 248.606 77.9927 246.184 78.0633 246.362Z" fill="#263238"/>
<path d="M63.3472 237.696C63.2899 237.721 63.1205 237.306 62.6379 236.696C62.1632 236.096 61.2912 235.301 59.9632 234.961C58.6685 234.604 56.8859 234.838 55.5645 236.048C54.2365 237.204 53.5659 239.374 54.3459 241.282C55.0912 243.206 57.0725 244.321 58.8325 244.246C60.6232 244.214 62.0779 243.158 62.7725 242.009C63.5019 240.849 63.5899 239.67 63.5205 238.91C63.4512 238.136 63.2885 237.717 63.3472 237.696C63.3752 237.681 63.6285 238.066 63.7899 238.874C63.9445 239.665 63.9405 240.946 63.1939 242.261C62.4859 243.561 60.8899 244.81 58.8525 244.886C56.8539 245.012 54.5565 243.752 53.7005 241.54C52.8019 239.346 53.6019 236.852 55.1392 235.569C56.6685 234.224 58.6859 234.03 60.0952 234.488C61.5405 234.928 62.4259 235.857 62.8579 236.536C63.2965 237.233 63.3779 237.686 63.3472 237.696Z" fill="#263238"/>
<path d="M73.3439 262.775C73.2865 262.801 73.1172 262.385 72.6345 261.775C72.1599 261.175 71.2865 260.38 69.9585 260.04C68.6652 259.684 66.8825 259.917 65.5612 261.127C64.2332 262.283 63.5612 264.455 64.3425 266.363C65.0879 268.285 67.0692 269.4 68.8292 269.325C70.6199 269.293 72.0745 268.237 72.7692 267.088C73.4985 265.928 73.5852 264.751 73.5172 263.989C73.4479 263.215 73.2839 262.796 73.3439 262.775C73.3719 262.76 73.6252 263.147 73.7852 263.953C73.9399 264.744 73.9359 266.027 73.1905 267.34C72.4825 268.64 70.8852 269.889 68.8479 269.965C66.8505 270.091 64.5532 268.831 63.6972 266.62C62.7972 264.425 63.5985 261.932 65.1359 260.649C66.6652 259.303 68.6825 259.111 70.0919 259.567C71.5372 260.007 72.4225 260.936 72.8532 261.616C73.2919 262.312 73.3732 262.767 73.3439 262.775Z" fill="#263238"/>
<path d="M152.614 107.762C152.614 107.762 152.765 108.121 153.019 108.815C153.277 109.534 153.646 110.561 154.125 111.895C155.086 114.623 156.489 118.603 158.294 123.727L158.382 123.974L158.121 123.939C153.397 123.297 147.598 122.509 140.947 121.605L141.114 121.561C135.871 125.678 128.865 129.238 120.567 130.529C118.503 130.863 116.365 131.055 114.181 131.077C113.087 131.105 111.986 130.993 110.873 130.957C110.315 130.929 109.755 130.901 109.194 130.873C108.634 130.825 108.077 130.715 107.514 130.638C102.997 130.111 98.4195 128.701 94.0421 126.579C89.6635 124.457 85.4781 121.559 81.8141 117.919C78.1755 114.261 75.0875 109.859 72.8368 104.943C68.3048 95.1382 67.3608 83.1288 71.0341 72.1048C74.2088 62.2595 80.9755 54.0848 89.0355 48.7342C93.0688 46.0142 97.5448 44.1808 102.035 42.9568L103.727 42.5222L104.57 42.3075L105.427 42.1782C106.57 42.0048 107.705 41.8315 108.834 41.6608C109.971 41.5662 111.107 41.5368 112.234 41.4728C113.361 41.3728 114.481 41.4408 115.594 41.5075C116.703 41.5968 117.821 41.5502 118.905 41.7515C119.993 41.9182 121.074 42.0848 122.147 42.2488C123.219 42.4235 124.25 42.7635 125.291 43.0102L126.841 43.4102C127.346 43.5742 127.839 43.7715 128.337 43.9488C132.366 45.2475 135.954 47.3248 139.237 49.5195C145.689 54.1262 150.554 59.9595 153.509 66.0088C156.539 72.0328 157.881 78.0968 158.194 83.4142C158.61 88.7528 157.871 93.3635 156.973 96.9955C156.049 100.641 154.887 103.333 154.038 105.111C153.605 105.999 153.257 106.667 153.007 107.098C152.759 107.537 152.614 107.762 152.614 107.762C152.614 107.762 152.711 107.531 152.939 107.077C153.174 106.622 153.501 105.946 153.911 105.051C154.717 103.261 155.833 100.563 156.71 96.9315C157.563 93.3102 158.255 88.7288 157.806 83.4395C157.459 78.1702 156.097 72.1755 153.071 66.2315C150.122 60.2622 145.289 54.5182 138.906 49.9915C135.658 47.8368 132.114 45.7955 128.135 44.5248C127.645 44.3515 127.158 44.1582 126.659 43.9982L125.13 43.6062C124.102 43.3662 123.086 43.0328 122.029 42.8635C120.97 42.7035 119.903 42.5422 118.831 42.3795C117.762 42.1822 116.661 42.2328 115.566 42.1462C114.469 42.0822 113.365 42.0168 112.253 42.1195C111.142 42.1835 110.023 42.2142 108.902 42.3088C107.79 42.4795 106.671 42.6515 105.547 42.8235L104.702 42.9542L103.873 43.1675L102.206 43.5968C97.7835 44.8115 93.3781 46.6195 89.4088 49.3022C81.4768 54.5822 74.8168 62.6328 71.6928 72.3235C68.0768 83.1755 69.0008 95.0022 73.4515 104.661C75.6635 109.506 78.6981 113.845 82.2795 117.457C85.8848 121.05 90.0035 123.914 94.3155 126.017C98.6261 128.118 103.137 129.522 107.594 130.054C108.149 130.131 108.698 130.242 109.251 130.291C109.806 130.321 110.358 130.35 110.907 130.378C112.006 130.417 113.094 130.533 114.173 130.507C116.331 130.494 118.442 130.313 120.482 129.989C128.682 128.745 135.626 125.261 140.842 121.211L140.917 121.154L141.009 121.167C147.653 122.118 153.446 122.946 158.165 123.622L157.991 123.833C156.245 118.665 154.887 114.65 153.958 111.899C153.514 110.561 153.173 109.53 152.934 108.81C152.707 108.115 152.614 107.762 152.614 107.762Z" fill="#263238"/>
<path d="M115.884 75.8936C116.482 76.1816 116.894 76.7936 116.896 77.503L116.894 86.3816C116.896 86.9403 116.633 87.467 116.189 87.8043C115.744 88.1416 115.165 88.2496 114.628 88.0976C113.218 87.7003 111.633 87.943 110.281 88.7643C109.036 89.519 108.172 90.6736 107.912 91.931C107.65 93.1843 107.981 94.599 108.817 95.811C109.713 97.1096 111.08 98.0176 112.482 98.239C115.342 98.695 118.541 96.6256 119.466 93.7216C119.765 92.783 120.768 92.2643 121.706 92.563C122.66 92.871 123.162 93.8656 122.864 94.8043C121.41 99.3683 116.501 102.49 111.92 101.76C109.546 101.383 107.341 99.9523 105.882 97.8376C104.494 95.8256 103.962 93.4096 104.42 91.2056C104.881 88.983 106.342 86.9816 108.43 85.715C109.94 84.799 111.645 84.3323 113.329 84.3456L113.328 77.5016C113.329 76.5163 114.128 75.719 115.112 75.719C115.389 75.719 115.65 75.7816 115.884 75.8936Z" fill="#4285F4"/>
<path d="M113.429 72.1606C113.407 71.3552 114.043 70.6859 114.849 70.6646C115.654 70.6446 116.325 71.2806 116.345 72.0859C116.366 72.8912 115.73 73.5606 114.925 73.5806C114.119 73.6019 113.449 72.9659 113.429 72.1606Z" fill="#4285F4"/>
</svg>
