<svg width="199" height="199" viewBox="0 0 199 199" fill="none" xmlns="http://www.w3.org/2000/svg">
<circle cx="99.5" cy="99.5" r="99.5" fill="#1A73E8" fill-opacity="0.12"/>
<g clip-path="url(#clip0)">
<path d="M150.474 142.947H140.603V82.6027C140.603 81.7597 139.919 81.0762 139.076 81.0762H122.794C121.951 81.0762 121.268 81.7597 121.268 82.6027V142.947H109.667V100.513C109.667 99.6696 108.984 98.9861 108.141 98.9861H91.8592C91.016 98.9861 90.3327 99.6696 90.3327 100.513V142.947H78.732V108.653C78.732 107.81 78.0487 107.127 77.2055 107.127H60.9238C60.0807 107.127 59.3973 107.81 59.3973 108.653V142.947H49.5265C48.6833 142.947 48 143.63 48 144.473C48 145.316 48.6833 146 49.5265 146H150.474C151.317 146 152 145.316 152 144.473C152 143.63 151.317 142.947 150.474 142.947ZM75.679 142.947H62.4501V110.18H75.679V142.947ZM106.615 142.947H93.3856V102.039H106.615V142.947ZM137.55 142.947H124.321V84.1291H137.55V142.947Z" fill="#1A73E8"/>
<path d="M147.126 43.1975C146.097 42.2893 144.728 41.8662 143.367 42.0373L130.342 43.6655C127.756 43.9887 125.866 46.4158 126.189 49.0042C126.516 51.6199 128.909 53.484 131.528 53.1569L132.591 53.0243C116.604 71.5607 97.5981 81.1404 84.1679 85.9549C67.4221 91.9583 54.3881 92.4718 54.2612 92.476C51.6281 92.5583 49.5505 94.7677 49.6301 97.4012C49.709 100.002 51.8078 102.039 54.4089 102.039C54.4572 102.039 54.5058 102.039 54.5555 102.037C55.135 102.019 68.9518 101.532 87.1548 95.0454C97.3879 91.3989 107.017 86.5582 115.774 80.658C116.473 80.1872 116.658 79.2382 116.186 78.5392C115.716 77.8399 114.767 77.6552 114.068 78.1263C105.523 83.8841 96.123 88.6089 86.1301 92.1697C68.3743 98.4965 55.0225 98.9685 54.4641 98.9854L54.4089 98.9862C53.4688 98.9862 52.7099 98.2495 52.6815 97.3088C52.6526 96.3561 53.4042 95.557 54.3573 95.5272C54.4905 95.5229 67.8964 95.0309 85.1981 88.8285C99.6929 83.6324 120.52 73.0226 137.427 51.9861C138.269 50.9388 137.379 49.3485 136.048 49.5153L131.15 50.1275C130.301 50.2325 129.477 49.6762 129.261 48.847C129.002 47.8493 129.699 46.8223 130.721 46.6943L143.746 45.0661C144.764 44.9375 145.691 45.7595 145.691 46.7827V59.8081C145.691 60.7619 144.915 61.5381 143.961 61.5381C143.007 61.5381 142.231 60.7621 142.231 59.8081V55.8593C142.231 55.2355 141.827 54.6521 141.244 54.4317C140.641 54.204 139.929 54.3952 139.521 54.8941C133.82 61.8797 127.329 68.201 120.227 73.6821C119.56 74.1972 119.436 75.1558 119.951 75.8232C120.466 76.4907 121.425 76.614 122.092 76.0991C128.279 71.3246 134.013 65.9294 139.183 60.0236C139.296 62.5612 141.396 64.5912 143.961 64.5912C146.598 64.5912 148.744 62.4456 148.744 59.8085V46.7831C148.743 45.412 148.154 44.1049 147.126 43.1975Z" fill="#1A73E8"/>
</g>
<defs>
<clipPath id="clip0">
<rect width="104" height="104" fill="white" transform="translate(48 42)"/>
</clipPath>
</defs>
</svg>
