<svg width="199" height="199" viewBox="0 0 199 199" fill="none" xmlns="http://www.w3.org/2000/svg">
<circle cx="99.5" cy="99.5" r="99.5" fill="#1A73E8" fill-opacity="0.12"/>
<g clip-path="url(#clip0)">
<path d="M149.689 57.9385C149.432 57.6339 149.065 57.4437 148.668 57.4098L126.47 55.5138L126.067 52.3148C125.964 51.4918 125.211 50.9085 124.39 51.0119L103.797 53.6009C103.716 53.5798 103.633 53.5639 103.546 53.5565L75.2423 51.1388C74.4273 51.0671 73.6874 51.6938 73.618 52.5072L73.1961 57.4478L51.2723 60.2042C50.4611 60.3062 49.8676 61.0698 49.9694 61.8816L61.1603 150.894C61.2111 151.3 61.124 151.69 61.29 152.083C61.5227 152.633 62.0765 153 62.674 153H136.367C137.197 153 137.869 152.328 137.869 151.498V149.542L140.777 149.791C141.592 149.861 142.332 149.236 142.402 148.422L150.036 59.0344C150.07 58.6374 149.946 58.2433 149.689 57.9385ZM61.172 126.907L53.1374 62.9971L61.172 61.987V126.907V126.907ZM76.4832 54.2595L89.6277 55.3821L76.2437 57.0649L76.4832 54.2595ZM123.274 54.1797L124.042 60.2831H74.7249L123.274 54.1797ZM139.537 146.67L137.869 146.527V102.636C137.869 101.807 137.197 101.135 136.367 101.135C135.537 101.135 134.865 101.807 134.865 102.636V149.996H64.1759V63.2869H134.865V95.6277C134.865 96.4575 135.537 97.1296 136.367 97.1296C137.197 97.1296 137.869 96.4575 137.869 95.6277V61.785C137.869 60.9555 137.197 60.2831 136.367 60.2831H127.069L126.853 58.5613L146.916 60.2749L139.537 146.67Z" fill="#1A73E8"/>
<path d="M128.357 68.2935H120.347C119.844 68.2935 119.375 68.5443 119.097 68.9622L115.698 74.0614C112.039 71.4403 107.559 69.8954 102.725 69.8954C101.895 69.8954 101.223 70.5675 101.223 71.3973V92.2236C101.223 93.0532 101.895 93.7255 102.725 93.7255H123.551C124.381 93.7255 125.053 93.0534 125.053 92.2236C125.053 85.8293 122.35 80.0551 118.028 75.9807L121.151 71.2973H128.357C129.187 71.2973 129.859 70.6251 129.859 69.7954C129.859 68.9656 129.186 68.2935 128.357 68.2935ZM121.991 90.7217H104.226V72.957C107.869 73.2383 111.229 74.5372 114.029 76.5642L112.689 78.5745C112.271 79.2021 112.393 80.0713 112.971 80.5568C113.648 81.1253 114.698 80.9753 115.188 80.2408L116.335 78.5204C119.528 81.6923 121.624 85.9683 121.991 90.7217Z" fill="#1A73E8"/>
<path d="M128.357 117.956H114.771L112.378 114.126C116.255 110.107 118.645 104.643 118.645 98.6315C118.645 97.8017 117.973 97.1296 117.143 97.1296H97.8184V77.8051C97.8184 76.9756 97.1461 76.3032 96.3165 76.3032C84.0048 76.3032 73.9883 86.3197 73.9883 98.6315C73.9883 110.943 84.0048 120.96 96.3165 120.96C101.521 120.96 106.314 119.17 110.115 116.174L112.665 120.254C112.94 120.693 113.421 120.96 113.939 120.96H128.357C129.187 120.96 129.859 120.288 129.859 119.458C129.859 118.628 129.187 117.956 128.357 117.956ZM107.203 105.846C106.763 105.142 105.836 104.928 105.133 105.368C104.43 105.807 104.216 106.734 104.655 107.438L108.513 113.61C105.184 116.325 100.937 117.956 96.3167 117.956C85.6613 117.956 76.9923 109.287 76.9923 98.6317C76.9923 88.4815 84.8585 80.134 94.8148 79.365V98.6317C94.8148 99.4612 95.4872 100.134 96.3167 100.134H115.583C115.248 104.477 113.47 108.422 110.73 111.49L107.203 105.846Z" fill="#1A73E8"/>
<path d="M83.5007 125.966H70.6845C69.8552 125.966 69.1826 126.638 69.1826 127.468C69.1826 128.298 69.855 128.97 70.6845 128.97H83.5007C84.3302 128.97 85.0026 128.298 85.0026 127.468C85.0026 126.638 84.3302 125.966 83.5007 125.966Z" fill="#1A73E8"/>
<path d="M102.724 125.966H89.9082C89.0786 125.966 88.4062 126.638 88.4062 127.468C88.4062 128.298 89.0786 128.97 89.9082 128.97H102.724C103.554 128.97 104.226 128.298 104.226 127.468C104.226 126.638 103.554 125.966 102.724 125.966Z" fill="#1A73E8"/>
<path d="M91.5109 133.977H70.6845C69.8552 133.977 69.1826 134.649 69.1826 135.478C69.1826 136.308 69.855 136.98 70.6845 136.98H91.5109C92.3404 136.98 93.0128 136.308 93.0128 135.478C93.0128 134.649 92.3402 133.977 91.5109 133.977Z" fill="#1A73E8"/>
<path d="M102.725 133.977H97.9189C97.0896 133.977 96.417 134.649 96.417 135.478C96.417 136.308 97.0894 136.98 97.9189 136.98H102.725C103.555 136.98 104.227 136.308 104.227 135.478C104.227 134.649 103.555 133.977 102.725 133.977Z" fill="#1A73E8"/>
<path d="M77.0926 141.986H70.6845C69.8552 141.986 69.1826 142.658 69.1826 143.488C69.1826 144.318 69.855 144.99 70.6845 144.99H77.0926C77.9221 144.99 78.5945 144.318 78.5945 143.488C78.5945 142.658 77.9221 141.986 77.0926 141.986Z" fill="#1A73E8"/>
<path d="M102.725 141.986H83.5009C82.6716 141.986 81.999 142.658 81.999 143.488C81.999 144.318 82.6714 144.99 83.5009 144.99H102.725C103.555 144.99 104.227 144.318 104.227 143.488C104.227 142.658 103.555 141.986 102.725 141.986Z" fill="#1A73E8"/>
</g>
<defs>
<clipPath id="clip0">
<rect width="102" height="102" fill="white" transform="translate(49 51)"/>
</clipPath>
</defs>
</svg>
