<svg width="199" height="199" viewBox="0 0 199 199" fill="none" xmlns="http://www.w3.org/2000/svg">
<circle cx="99.5" cy="99.5" r="99.5" fill="#1A73E8" fill-opacity="0.12"/>
<path d="M119.692 105.765L105.301 96.9226C105.125 96.8147 104.924 96.7416 104.72 96.7097L100.215 95.9147C99.3812 95.7673 98.5626 96.3408 98.4156 97.1743C98.2686 98.0078 98.8415 98.8264 99.675 98.9734L103.927 99.7237L118.066 108.412C118.757 108.836 119.703 108.63 120.162 107.963C120.653 107.248 120.431 106.22 119.692 105.765Z" fill="#1A73E8"/>
<path d="M152.485 106.263C151.899 105.636 150.917 105.603 150.29 106.189L143.994 112.073L115.147 83.6096L152.412 48.6859C153.038 48.0993 153.07 47.1166 152.484 46.4909C151.897 45.8653 150.914 45.8334 150.289 46.4197L111.845 82.4477C111.211 83.0417 111.198 84.076 111.816 84.6863L114.368 87.2036L113.553 87.9228L96.4979 86.4542C96.2348 86.4318 95.9613 86.4771 95.7211 86.5881L82.2076 92.7427C82.1683 92.7326 82.1289 92.7227 82.0881 92.7154L74.3149 91.3436L74.9435 89.7369C75.2542 88.9423 74.8661 88.0458 74.074 87.7293L49.2269 77.7905C48.4302 77.4715 47.5268 77.8593 47.2083 78.6557C46.8897 79.452 47.2771 80.3559 48.0735 80.6743L71.4894 90.0408L57.6903 125.304L49.1685 122.286C48.3598 122 47.4725 122.423 47.1862 123.231C46.8999 124.04 47.3232 124.927 48.1317 125.214L58.0704 128.734C58.8505 129.01 59.7337 128.606 60.035 127.836L62.3411 121.942L68.3837 125.328L67.7173 126.409C65.8289 129.469 66.7823 133.496 69.8431 135.384C71.4616 136.383 73.4709 136.62 75.2795 136.034C75.5695 137.919 76.6772 139.601 78.3013 140.603C79.9199 141.602 81.9289 141.839 83.7378 141.253C84.028 143.138 85.1352 144.82 86.7594 145.822C88.3829 146.824 90.3816 147.059 92.1962 146.474C92.4869 148.358 93.5939 150.039 95.2176 151.041C97.5776 152.497 100.701 152.279 102.829 150.496C103.365 150.047 103.826 149.51 104.193 148.915L105.253 147.198L106.125 147.734C108.488 149.186 111.611 148.962 113.735 147.175C114.27 146.725 114.731 146.188 115.097 145.592C115.825 144.407 116.126 143.079 116.047 141.786C116.54 141.905 117.045 141.969 117.554 141.969C119.809 141.969 121.943 140.779 123.123 138.858C123.834 137.701 124.159 136.382 124.076 135.054C124.568 135.172 125.072 135.235 125.58 135.235C127.835 135.235 129.969 134.045 131.149 132.125C131.86 130.967 132.185 129.646 132.102 128.317C132.599 128.436 133.104 128.497 133.607 128.497C135.8 128.497 137.945 127.393 139.175 125.391C141.057 122.327 140.096 118.303 137.032 116.42L135.968 115.766L139.537 112.037L142.875 115.331C143.461 115.908 144.426 115.921 145.026 115.36L152.411 108.458C153.038 107.873 153.071 106.89 152.485 106.263ZM76.1755 131.627C75.1861 133.23 73.0771 133.73 71.4738 132.741C69.8706 131.752 69.3712 129.643 70.3602 128.039L79.0584 113.943C80.0292 112.369 82.1124 111.855 83.703 112.794C85.3489 113.767 85.8031 116.024 84.8149 117.626L76.1755 131.627ZM84.6334 136.846C83.6444 138.449 81.5352 138.949 79.9321 137.96C78.3483 136.982 77.8396 134.845 78.8185 133.258L85.7768 121.981C86.7476 120.408 88.8307 119.893 90.4213 120.833C92.0672 121.806 92.5215 124.062 91.5331 125.664L84.6334 136.846ZM93.0923 142.065C92.6128 142.842 91.8596 143.385 90.9718 143.596C90.0835 143.806 89.1669 143.658 88.3904 143.179C86.8068 142.201 86.2981 140.063 87.277 138.477L92.4958 130.019C93.4666 128.445 95.5499 127.931 97.1403 128.871C98.7862 129.844 99.2405 132.1 98.2523 133.702L93.0923 142.065ZM104.971 141.741L101.55 147.284C100.573 148.868 98.4351 149.376 96.8486 148.398C95.2651 147.42 94.7566 145.282 95.7352 143.696L99.2144 138.057C100.185 136.484 102.269 135.969 103.859 136.909C105.505 137.882 105.959 140.139 104.971 141.741ZM133.26 114.102L125.563 109.372C124.849 108.934 123.865 109.169 123.427 109.882C122.988 110.596 123.223 111.58 123.937 112.018L135.406 119.066C137.011 120.052 137.514 122.16 136.528 123.765C135.542 125.37 133.434 125.873 131.828 124.887L119.528 117.329C118.797 116.88 117.841 117.108 117.392 117.839C116.943 118.57 117.172 119.526 117.902 119.975L127.38 125.799C128.966 126.773 129.478 128.91 128.502 130.498C127.528 132.084 125.391 132.596 123.803 131.621L115.214 126.343C114.483 125.894 113.527 126.122 113.078 126.853C112.629 127.583 112.857 128.54 113.588 128.989L119.355 132.532C120.94 133.507 121.453 135.643 120.477 137.231C119.503 138.817 117.365 139.33 115.778 138.354C115.778 138.354 110.706 135.241 110.659 135.218C109.95 134.875 109.083 135.119 108.662 135.804C108.213 136.535 108.441 137.491 109.172 137.94L111.329 139.265C112.934 140.252 113.437 142.36 112.451 143.965C111.477 145.55 109.34 146.063 107.752 145.087L106.885 144.554L107.615 143.371C108.548 141.858 108.838 139.994 108.409 138.259C107.987 136.546 106.932 135.117 105.44 134.235C104.277 133.547 102.974 133.268 101.707 133.354C101.945 132.331 101.946 131.253 101.691 130.22C101.268 128.507 100.214 127.078 98.7219 126.197C97.5579 125.509 96.2559 125.23 94.988 125.315C95.6284 122.564 94.4496 119.604 92.0033 118.158C90.8393 117.47 89.5373 117.192 88.2695 117.277C88.9098 114.526 87.731 111.566 85.2847 110.12C82.2478 108.325 78.2696 109.308 76.4167 112.311L70.0174 122.682L63.4839 119.022L73.1601 94.2938L78.4286 95.2236C76.9302 97.0848 76.5088 99.7052 77.5647 102.024C78.6574 104.423 81.0312 105.843 83.5102 105.843C84.4131 105.843 85.33 105.654 86.2039 105.256L95.2984 101.114C96.0685 100.763 96.4188 99.8273 96.0679 99.0572C95.7172 98.2872 94.7812 97.9365 94.0111 98.2877L84.9164 102.43C83.2024 103.211 81.172 102.451 80.3911 100.737C79.6104 99.0222 80.3698 96.9923 82.0842 96.2113L96.6373 89.5832L113.949 91.0741C113.993 91.078 114.038 91.0799 114.082 91.0799C114.459 91.0799 114.825 90.9426 115.11 90.6913L116.583 89.3901L137.325 109.855L133.26 114.102Z" fill="#1A73E8"/>
</svg>
