<svg width="199" height="199" viewBox="0 0 199 199" fill="none" xmlns="http://www.w3.org/2000/svg">
<circle cx="99.5" cy="99.5" r="99.5" fill="#1A73E8" fill-opacity="0.12"/>
<path d="M139.54 105.028L121.848 77.2925C124.355 75.9752 126.069 73.3464 126.069 70.3232C126.069 67.0142 124.015 64.1776 121.116 63.0165L126.476 44.2776C126.707 43.4692 126.482 42.5991 125.887 42.0046C122.322 38.4394 116.521 38.4394 112.955 42.0046C112.102 42.8574 110.969 43.327 109.763 43.327C108.556 43.327 107.423 42.8574 106.564 41.999L106.553 41.9877C103 38.4345 97.2093 38.4245 93.6423 41.9666L93.5758 42.0328C91.8152 43.7809 88.9557 43.7758 87.2016 42.0215L87.1847 42.0046C83.6192 38.4394 77.8183 38.4394 74.2528 42.0046C73.658 42.5996 73.4328 43.4703 73.6645 44.2792L79.0359 63.0121C76.1303 64.1702 74.0707 67.0098 74.0707 70.3235C74.0707 73.3466 75.7852 75.9754 78.2923 77.2928L60.5993 105.028C53.7545 115.758 53.3208 128.827 59.4391 139.987C65.5574 151.147 76.8084 157.81 89.5359 157.81H110.604C123.331 157.81 134.582 151.147 140.7 139.987C146.819 128.827 146.385 115.758 139.54 105.028V105.028ZM83.9113 45.2777L83.9282 45.2946C87.4814 48.8475 93.2722 48.8572 96.839 45.3156L96.9054 45.2494C98.6658 43.5013 101.525 43.5064 103.285 45.2661L103.296 45.2774C106.862 48.8427 112.663 48.8427 116.228 45.2774C117.679 43.8267 119.879 43.5715 121.594 44.5116L116.462 62.454H83.6917L78.5466 44.5114C80.2612 43.5715 82.4608 43.8272 83.9113 45.2777V45.2777ZM136.642 137.762C131.348 147.417 121.615 153.181 110.604 153.181H89.5362C78.5253 153.181 68.7916 147.417 63.4984 137.762C58.2052 128.107 58.5804 116.801 64.502 107.518L83.2086 78.1924H89.6549C90.9332 78.1924 91.9694 77.1562 91.9694 75.8779C91.9694 74.5997 90.9332 73.5635 89.6549 73.5635H81.9399C80.1531 73.5635 78.6996 72.11 78.6996 70.3232C78.6996 68.5365 80.1531 67.083 81.9399 67.083H81.9475H118.2C119.987 67.083 121.44 68.5365 121.44 70.3232C121.44 72.11 119.987 73.5635 118.2 73.5635H110.485C109.207 73.5635 108.171 74.5997 108.171 75.8779C108.171 77.1562 109.207 78.1924 110.485 78.1924H116.931L135.638 107.518C141.56 116.801 141.935 128.107 136.642 137.762Z" fill="#4285F4"/>
<path d="M104.149 114.902C103.568 114.697 102.975 114.483 102.383 114.261V103.772C103.952 104.234 105 104.982 105.045 105.015C106.063 105.777 107.507 105.575 108.277 104.56C109.048 103.541 108.848 102.089 107.829 101.317C107.693 101.214 105.541 99.6166 102.383 99.0119V96.7085C102.383 95.4302 101.347 94.394 100.068 94.394C98.7902 94.394 97.754 95.4302 97.754 96.7085V98.9952C97.3619 99.0704 96.9645 99.1656 96.5618 99.2866C93.3044 100.265 90.8696 103.051 90.2074 106.557C89.6031 109.757 90.6287 112.845 92.8839 114.613C94.1078 115.573 95.637 116.45 97.754 117.381V130.804C95.9314 130.688 94.7121 130.274 92.6795 128.944C91.61 128.244 90.1753 128.544 89.4756 129.614C88.7757 130.684 89.0757 132.118 90.1454 132.818C93.1093 134.757 95.1162 135.306 97.754 135.436V137.829C97.754 139.107 98.7902 140.143 100.068 140.143C101.347 140.143 102.383 139.107 102.383 137.829V135.195C107.339 134.11 110.238 129.974 110.888 126.105C111.738 121.047 109.093 116.65 104.149 114.902ZM95.7406 110.971C94.851 110.273 94.4737 108.911 94.7561 107.415C95.0158 106.04 95.9411 104.382 97.754 103.768V112.244C96.993 111.839 96.3063 111.415 95.7406 110.971ZM106.323 125.337C105.99 127.32 104.652 129.422 102.383 130.351V119.186C102.458 119.213 102.53 119.239 102.606 119.266C106.756 120.733 106.5 124.284 106.323 125.337V125.337Z" fill="#4285F4"/>
<path d="M100.07 78.1919C100.679 78.1919 101.276 77.9443 101.707 77.5138C102.137 77.0833 102.385 76.4862 102.385 75.8775C102.385 75.2688 102.137 74.6716 101.707 74.2411C101.276 73.8106 100.679 73.563 100.07 73.563C99.4616 73.563 98.8645 73.8106 98.434 74.2411C98.0035 74.6716 97.7559 75.2688 97.7559 75.8775C97.7559 76.4862 98.0035 77.0833 98.434 77.5138C98.8645 77.9443 99.4614 78.1919 100.07 78.1919Z" fill="#4285F4"/>
</svg>
